<?xml version="1.0" encoding="UTF-8"?>
<svg id="gesture_3-arms_out-black-skin_tone_light" data-name="gesture 3-arms out-black-skin tone light" xmlns="http://www.w3.org/2000/svg" width="4.15in" height="8.88in" viewBox="0 0 298.47 639.44">
  <g id="gesture_3-arms_out" data-name="gesture 3-arms out">
    <g>
      <path d="M43.85,232.12c-.27,.07-.54,.18-.81,.18-.17,0-.35-.14-.51-.26-2.72-2.02-5.3-4.18-7.38-6.9-1.35-1.76-2.74-3.5-4.26-5.12-1.4-1.48-2.37-3.29-3.41-5.02-1.1-1.81-2.35-3.54-3.16-5.52-.21-.52-.84-.81-.88-1.5,.47-.67,1-1.35,1.43-2.09,.39-.66,.66-1.39,1.01-2.08,1.19-2.32,2.4-4.63,3.6-6.94,.27-.51,.54-1.03,.75-1.56,.71-1.78,.88-3.56-.18-5.29-.1-.16-.2-.33-.28-.51-.04-.08-.05-.18-.07-.26,.05-.54,.44-.84,.82-1.13,1.07-.82,2.16-1.62,3.23-2.45,.32-.25,.44-.63,.34-1.03-.2-.84-.36-1.7-.64-2.52-.76-2.23-.91-4.53-.87-6.84,.03-2.02,.18-4.04,.4-6.06,.25-2.29,.39-4.6,.51-6.91,.05-.91-.23-1.7-.54-2.51-.05-.14-.29-.27-.45-.29-.16-.02-.43,.05-.49,.16-.36,.68-.74,1.36-.99,2.08-.35,1.04-.99,1.88-1.66,2.7-.29,.35-.73,.65-1.16,.82-1.25,.51-2.4,.02-2.79-1.24-.28-.91-.48-1.88-.51-2.83-.06-1.93-.27-3.84-.46-5.76-.03-.29,.03-.6-.06-.86-.63-1.68-.48-3.42-.49-5.15-.01-2.43-.41-4.8-1.25-7.08-.16-.44-.43-.87-.72-1.24-.94-1.16-1.4-.82-1.93,.16-1.06,1.98-1.61,4.12-2.04,6.31-.69,3.51-1.16,7.04-1.52,10.59-.06,.57-.12,1.16-.29,1.71-1.08,3.43-1.41,7-1.9,10.53-.19,1.4-.41,2.88,.06,4.31,.03,.09,.05,.2,.02,.29-.46,1.28,.12,2.44,.38,3.64,.14,.66,.22,1.33,.34,2,.77,4.39,1.95,8.64,4.09,12.6,.59,1.1,1.05,2.27,1.55,3.37-.2,1.05-.94,1.47-1.75,1.85-.73-1.26-1.43-2.52-2.17-3.75-.49-.83-.91-1.69-1.21-2.62-.29-.92-.64-1.82-1.02-2.71-1.33-3.13-2.11-6.42-2.54-9.78-.45-3.45-.67-6.92,.15-10.36,.04-.19,.13-.38,.11-.56-.26-1.86,.48-3.62,.55-5.45,.03-.86,.24-1.72,.46-2.56,.42-1.59,.78-3.19,1-4.81,.12-.86,.21-1.72,.35-2.57,.18-1.14,.41-2.27,.58-3.41,.17-1.14,.2-2.32,.46-3.44,.46-1.97,1.02-3.92,1.59-5.86,.19-.64,.49-1.27,.85-1.83,.95-1.49,2.45-1.92,3.96-.84,.88,.62,1.57,1.39,2,2.42,.88,2.15,1.51,4.33,1.71,6.68,.27,3.17,.26,6.37,.85,9.51,.18,.94,.1,1.93,.2,2.89,.08,.76,.21,1.52,.38,2.27,.06,.25,.28,.47,.47,.66,.16,.15,.69-.18,.92-.57,.2-.33,.38-.66,.55-1.01,.37-.78,.79-1.56,1.06-2.37,.28-.82,.89-1.24,1.57-1.6,.95-.5,2.28-.04,2.73,.92,.5,1.06,.77,2.19,.87,3.35,.15,1.73,.26,3.46,.11,5.21-.2,2.21-.32,4.43-.54,6.64-.11,1.16-.07,2.31-.05,3.47,.05,2.26,.71,4.35,1.53,6.42,.09,.23,.5,.36,.72,.22,.49-.31,.96-.64,1.45-.94,.32-.2,.84-.15,1.08,.09,.41,.41,.8,.83,1.2,1.25,2.26,2.38,4.14,5.08,6.24,7.6,2.04,2.45,4.12,4.85,6.47,7.03,1.7,1.57,3.15,3.39,4.71,5.11,.59,.64,1.18,1.27,1.74,1.94,2.04,2.48,4.45,4.55,6.96,6.52,.38,.3,.81,.56,1.11,.93,1.03,1.25,2.41,1.87,3.88,2.42,1.63,.61,3.23,1.28,4.83,1.96,2.87,1.23,5.89,1.86,8.98,2.12,1.44,.12,2.89,.2,4.34,.25,.96,.03,1.71,.37,2.12,1.24,.73,1.53,1.96,2.6,3.21,3.68,.7,.61,1.47,.9,2.36,.95,.39,.02,.77,0,1.16,.03,.64,.04,1.12-.24,1.49-.73,.52-.69,1.12-1.35,1.52-2.11,.96-1.8,2.17-3.42,3.27-5.12,.68-1.05,1.39-2.09,2.01-3.18,.58-1.03,1.33-1.88,2.23-2.63,1.78-1.48,3.57-2.96,5.31-4.49,1.16-1.01,2.35-2.02,3.37-3.17,2.25-2.54,4.79-4.77,7.23-7.11,2.16-2.07,4.28-4.19,6.37-6.34,.87-.9,1.6-1.93,2.38-2.92,1.2-1.52,2.38-3.04,3.57-4.56,.15-.18,.34-.18,.47-.02,.04,.05,.04,.18,0,.25-1.01,1.98-1.9,4.01-2.74,6.06-1.2,2.93-1.13,5.81,.16,8.71,1.07,2.38,2.15,4.75,3.56,6.95,.31,.49,.65,.96,.95,1.46,1.52,2.53,3.91,2.9,6.54,2.62,.71-.08,1.28-.46,1.53-1.16,.99-2.74,2.47-5.23,3.91-7.74,1.11-1.93,2.08-3.91,2.95-5.96,.82-1.95,.7-3.77-.3-5.56-1.46-2.61-2.81-5.28-4.79-7.57-.68-.79-1.15-1.78-1.69-2.69-.85-1.4-1.59-2.87-2.91-3.93-.2-.16-.45-.54-.39-.72,.33-1.02-.37-1.41-1.04-1.81-2.41-1.42-4.74-2.96-7.23-4.25-6.86-3.56-13.63-7.28-20.43-10.94-.34-.18-.7-.35-.98-.61-.19-.17-.35-.5-.32-.74,.06-.47,.26-.92,.4-1.38,.13-.45,.52-.82,.43-1.33-.11-.18-.18-.37-.32-.49-1.82-1.58-3.72-3.08-5.47-4.74-2.01-1.9-4.4-2.74-7.08-2.87-1.83-.09-3.67-.1-5.5-.05-1.57,.04-3.07-.28-4.57-.63-1.14-.27-1.77-1.11-2.15-2.16-.06-.17-.04-.38-.04-.57,0-.09,.03-.19,.06-.28,.7-1.97,1.91-3.31,4.16-3.45,.76-.05,1.52-.26,2.26-.49,.35-.11,.67-.37,.95-.62,.1-.09,.15-.42,.07-.51-.74-.88-1.48-1.77-2.29-2.59-.68-.68-1.44-1.28-2.19-1.89-.76-.61-1.6-1.07-2.55-1.33-1.49-.41-2.96-.9-4.45-1.27-.84-.21-1.71-.28-2.57-.36-.86-.08-1.74-.13-2.6-.1-1.59,.05-3.06-.4-4.5-.95-.53-.2-1.02-.52-1.51-.82-1.11-.68-1.43-1.75-1.46-2.97-.02-.76,.49-1.54,1.19-1.84,.18-.08,.35-.17,.54-.21,1.13-.21,2.27-.53,3.41-.59,2.71-.13,5.37-.6,8.04-.97,.67-.09,1.35-.11,2.02-.18,1.06-.11,2.12-.17,3.16-.35,2.78-.46,5.57-.56,8.37-.5,1.67,.04,3.24,.48,4.75,1.17,.7,.32,1.41,.64,2.07,1.04,3.14,1.9,6.3,3.76,9.22,5.98,2.54,1.92,5.04,3.89,7.57,5.82,.84,.64,1.69,1.29,2.59,1.86,.8,.51,1.68,.91,2.48,1.33,.1,.69-.24,1.18-.41,1.71-.14,.46-.22,.95-.4,1.39-.78,1.94-.65,3.98-.72,6-.03,.77,.22,1.52,.62,2.21,1.16,2.01,2.38,3.98,4.09,5.59,.99,.93,1.84,1.96,2.52,3.15,1.03,1.8,2.57,3.11,4.31,4.21,.53,.34,1.17,.23,1.55-.27,.29-.38,.6-.77,.8-1.2,1.68-3.69,3.33-7.39,5-11.08,.2-.44,.4-.88,.64-1.3,.71-1.26,1.45-2.5,1.93-3.88,.07-.2,.48-.42,.7-.39,.66,.09,1.31,.3,1.96,.48,5.06,1.36,3.7,2,6.42-2.45,3.78-6.18,7.49-12.4,11.23-18.6,.45-.74,.89-1.49,1.29-2.26,.12-.23,.21-.56-.11-.77-.41-.27-.74-.6-.89-1.09-.21-.64-.41-1.29-.7-1.9-.46-.98-1.12-1.81-2.08-2.35-.41-.23-.86-.47-1.32-.54-1.24-.18-2.49-.35-3.74-.38-1.64-.05-3.28,.09-4.91,.04-2.15-.07-4.2-.6-6.05-1.74-.57-.35-1.11-.79-1.53-1.3-.42-.51-.68-1.15-1.01-1.74-.02-1.73-.74-3.4-.42-5.16,.09-.46,.11-.97,.02-1.43-.44-2.2-.37-4.42-.27-6.64,.07-1.46-.12-2.89-.45-4.3-.14-.59-.62-1.01-1.22-1.07-.19-.02-.39-.03-.58-.03-2.55-.02-4.43-1.14-5.55-3.46-.08-.17-.13-.36-.22-.59,.23-1.68,.61-3.35,1.41-4.93,.43-.85,.68-1.8,.96-2.73,.84-2.87,1.56-5.78,2.79-8.52,.27-.6,.4-1.31,.42-1.97,.04-1.77,.43-3.43,1.16-5.04,.19-.43,.21-.93,.31-1.36-.24-.41-.61-.52-.97-.64-1.01-.34-1.99-.74-3.01-1.02-2.04-.56-3.52-1.95-5.01-3.32-.88-.8-1.43-1.84-1.65-3-.36-1.92-.34-3.84,.28-5.72,.18-.55,.4-1.06,.87-1.47,.8-.69,1.53-1.46,2.3-2.19,.42-.4,.87-.76,1.28-1.17,1.78-1.79,1.9-2.04,2.15-4.52,.07-.67,.12-1.35,.1-2.02-.03-1.38,.41-2.67,.79-3.96,.42-1.42,1.31-2.63,2.39-3.56,.85-.72,1.95-1.19,3.04-1.59,2.68-.98,5.44-1.29,8.26-.99,.75,.08,1.5,.35,2.21,.62,1.45,.54,2.87,1.14,4.31,1.71,.36,.14,.72,.26,1.14,.41,.32-.22,.66-.4,.93-.66,1.1-1.09,2.07-2.27,2.87-3.62,1.4-2.35,3.65-4.01,6.28-4.78,.74-.22,1.49-.43,2.24-.58,2.59-.52,5.03,.1,7.24,1.37,1.24,.71,2.31,1.75,3.19,2.91,.69,.92,1.31,1.91,1.94,2.88,.53,.8,1.03,1.62,1.55,2.43,1.51,.48,2.9,.08,4.28-.37,1.92-.64,3.85-1.26,5.75-1.95,.84-.3,1.68-.4,2.55-.48,2.31-.22,4.38,.55,6.37,1.58,1.03,.53,1.93,1.28,2.46,2.38,.17,.34,.4,.66,.62,.98,.79,1.14,1.24,2.39,1.3,3.78,.02,.47,.11,.95,.13,1.19,.3,.62,.73,.62,1.07,.77,1.14,.52,2.29,1.02,3.42,1.58,1.58,.78,2.49,2.1,2.87,3.79,.21,.94,.4,1.89,.51,2.85,.22,1.83,.24,3.65-.5,5.42-.52,1.24-.9,2.54-1.35,3.82,.66,2.08,1.95,3.81,3.44,5.3,1.61,1.62,2.63,3.58,3.67,5.52,.91,1.71,1.05,3.69,.93,5.65-.12,1.94-.45,3.83-1.02,5.69-1.39,4.56-3.4,8.81-6.09,12.75-1.37,2.02-3.16,3.65-4.98,5.22-1.33,1.14-2.96,1.8-4.68,2.19-.7,.16-1.2,.57-1.39,1.31-.21,.84-.55,1.67-.63,2.52-.34,3.55-.84,7.09-.45,10.74,.34,.27,.76,.51,1.06,.86,.38,.43,.67,.94,.97,1.44,1.82,3.07,3.65,6.14,5.44,9.24,.48,.83,.9,1.71,1.24,2.61,5.02,13.07,10.02,26.15,15.03,39.22,.17,.45,.38,.9,.47,1.36,.07,.36,.08,.8-.07,1.12-.39,.88-.86,1.73-1.33,2.57-1.08,1.94-2.1,3.91-3.11,5.89-.67,1.31-.73,2.59-.42,3.92,.26,1.12,.67,2.22,1.1,3.29,.47,1.18,1.3,2.14,2.16,3.06,1.06,1.12,2.19,2.19,3.19,3.36,.98,1.15,2.2,1.48,3.61,1.39,.19-.01,.39-.1,.57-.08,.29,.03,.55,.19,.63,.5,.54,2.15,1.08,4.31,1.6,6.47,1.73,7.13,3.46,14.26,5.18,21.4,.07,.28,.15,.56,.17,.85,0,.13-.12,.28-.22,.39-.03,.03-.2-.01-.26-.07-1.21-1.13-2.13-2.49-3.05-3.85-.54-.8-1.02-1.64-1.55-2.44-.21-.32-.46-.63-.74-.88-.3-.26-.68-.36-1.08-.25-.77,.2-1.44,.59-1.94,1.2-1.96,2.39-3.94,4.76-5.11,7.68-.36,.89-.83,1.74-1.23,2.61-.4,.88-.76,1.78-1.17,2.65-.83,1.75-.74,3.57-.37,5.39,.18,.86,.63,1.62,1.15,2.32,.57,.78,1.18,1.53,1.75,2.31,1.41,1.96,2.81,3.92,4.2,5.89,.39,.55,.75,1.12,1.13,1.69,.82,1.23,1.91,1.86,3.43,1.65,.57-.08,1.18-.19,1.72-.07,1.19,.27,1.78-.35,2.31-1.25,1.13-1.91,2.28-3.81,3.44-5.69,.25-.4,.6-.74,.95-1.05,.08-.07,.38,0,.49,.11,.12,.12,.2,.34,.2,.52,.12,2.9,.75,5.74,1.01,8.62,.45,4.9,1.02,9.8,1.55,14.69,.28,2.59,.59,5.18,.85,7.78,.12,1.15,.17,2.3,.24,3.46,.02,.24-.11,.36-.36,.35-.09,0-.21,0-.25-.06-1.3-1.42-2.61-2.84-3.89-4.28-1.03-1.16-2.14-2.22-3.41-3.12-.7-.5-1.45-.55-2.16-.08-.48,.31-.92,.69-1.31,1.11-.92,1-1.61,2.17-2.29,3.33-.78,1.33-1.41,2.74-2.18,4.08-1.12,1.95-1.76,4.07-2.33,6.22-.12,.47-.24,.94-.34,1.41-.39,1.9-.06,3.64,1.13,5.2,.7,.92,1.33,1.88,2.14,2.73,1.81,1.88,3.42,3.93,5.34,5.71,.78,.72,1.54,1.44,2.64,1.7,.44,.11,.81,.5,1.22,.74,.27,.15,.86,0,1.06-.25,.18-.22,.37-.45,.53-.68,1.22-1.74,2.42-3.49,3.66-5.21,.67-.94,1.05-2.08,1.97-2.84,.06-.05,.18-.05,.27-.03,.07,.01,.19,.08,.2,.13,.22,1.62,.46,3.25,.63,4.88,.54,5.09,1.07,10.18,1.59,15.27,.31,3.07,.59,6.15,.88,9.23,.07,.71-.17,1.23-.76,1.74-1.36,1.19-2.02,2.79-2.12,4.6-.03,.48,0,.97,.01,1.45,.01,.49-.07,.95-.35,1.37-.28,.42-.3,.9-.29,1.39,0,2.22-.23,4.41-.55,6.62-.33,2.3-.73,4.56-1.45,6.76-.4,1.23-.5,2.47-.38,3.72,.11,1.08-.06,2.1-.28,3.15-.5,2.35-1.08,4.69-1.69,7.02-.17,.65-.4,1.33-.36,1.98,.14,2.47-.6,4.75-1.35,7.05-.24,.73-.46,1.51-.43,2.26,.08,2.25-.45,4.41-.82,6.59-.06,.38-.19,.76-.2,1.14-.03,2.13-.6,4.19-.83,6.3-.21,2.02-.29,4.04-.45,6.07-.04,.48-.14,.95-.24,1.42-.08,.38-.29,.75-.28,1.11,.07,1.75-.27,3.45-.57,5.16-.17,.94-.07,1.92-.13,2.89-.06,1.05,.12,2.12-.37,3.14-.15,.31-.06,.75-.04,1.13,.05,.86,.32,1.72,.12,2.59-.2,.86,.33,1.72-.03,2.57,.06,1.92,.05,3.85,.19,5.77,.07,.97,.07,1.93,.04,2.89-.03,.87,.03,1.73,.13,2.59,.15,1.43,.02,2.9,.21,4.33,.18,1.34,.47,2.65,.57,4.01,.17,2.31,.4,4.61,.65,6.91,.31,2.88,.72,5.74,1.34,8.57,.08,.38,.18,.77,.14,1.14-.11,1.27,.13,2.48,.37,3.72,.36,1.88,.53,3.81,.7,5.72,.09,.96,.07,1.91,.53,2.81,.16,.32,.11,.76,.17,1.14,.18,1.14,.31,2.3,.58,3.42,.51,2.16,.88,4.33,1.09,6.54,.12,1.24,.42,2.48,.79,3.67,.26,.85,.42,1.68,.37,2.55-.12,1.86,.24,3.63,.85,5.38,.47,1.36,1.05,2.71,.9,4.21-.02,.19,.02,.39,.08,.57,.97,2.64,1.05,5.5,2.01,8.14,.23,.63,.31,1.32,.38,1.98,.2,1.82,.45,3.62,1.05,5.37,.35,1,.55,2.06,.67,3.11,.17,1.54,.54,3.04,.88,4.54,.78,3.38,1.44,6.79,2.32,10.14,.15,.56,.24,1.16,.52,1.64,1.04,1.78,1.37,3.8,1.88,5.74,.66,2.51,1.12,5.07,1.98,7.53,.13,.36,.16,.75,.23,1.13,.1,.58,.32,1.09,.67,1.58,.38,.55,.8,1.14,.93,1.78,.44,2.11,1.71,3.86,2.41,5.84,.29,.81,.64,1.55,.61,2.48-.03,.74,.33,1.49,.51,2.21-.52,1.41-1.58,2.17-2.86,2.72-.79,.34-1.66,.5-2.38,1.02-.61,.44-.84,.8-.64,1.45,.32,1.01,.67,2.01,1.01,3.01,.06,.18,.15,.36,.22,.54,1.23,3.48,1.92,3.05-1.78,4.94-2.58,1.31-5.04,2.84-7.38,4.57-2.71,2.01-5.44,4-8.21,5.94-1.82,1.28-3.7,2.45-5.55,3.68-1.69,1.12-3.4,2.19-4.85,3.65-1.12,1.13-1.93,2.39-2.39,3.9-.77,2.52-1.07,5.06-.92,7.72,.23,3.98,1.05,7.84,2.08,11.66,.35,1.3,.95,2.53,1.43,3.79,.31,.82,.15,1.37-.56,1.7-3.66,1.72-7.19,3.75-11.06,5.01-1.47,.48-2.96,.87-4.44,1.29-.93,.26-1.88,.43-2.79,.76-2.55,.92-5.14,1.66-7.76,2.34-3.45,.9-6.91,1.79-10.36,2.68-.28,.07-.57,.1-.86,.14-2.76,.48-5.51,.97-8.19,1.82-.73,.23-1.52,.34-2.28,.37-1.07,.05-2.09,.18-3.06,.69-.24,.13-.56,.09-.85,.12-.31,.03-.77-.45-.72-.76,.1-.68,.28-1.32,.66-1.9,.82-1.22,1.82-2.23,3.06-3.04,1.7-1.11,3.48-2.08,5.3-2.97,4.1-2.01,7.78-4.65,11.21-7.64,1.4-1.22,2.48-2.68,3.31-4.15,.13-.74-.44-.97-.58-1.41-.12-.36-.19-.74-.2-1.11,0-.48,.45-.95,.89-1,.19-.02,.4-.11,.57-.06,1.48,.4,2.36-.27,3.02-1.53,.67-1.28,1.45-2.51,2.19-3.75,.27-.45,.7-.65,1.22-.6,1.44,.11,2.89,.24,4.33,.35,1.06,.08,2.12,.21,3.18,.21,1.06,0,2.14-.12,3.01-.82,.2-.16,.37-.48,.36-.72,0-.24-.21-.57-.42-.68-.41-.23-.88-.4-1.35-.48-.86-.14-1.73-.18-2.59-.29-1.71-.22-3.43-.44-5.05-1.21,.19-1.11,.67-2.06,1.1-3.02,.39-.88,.78-1.76,1.15-2.65,.21-.51-.06-.97-.6-1.08-.95-.18-1.9-.35-2.84-.55-.39-.08-.66-.37-.88-.7-.4-.61-.21-1.4,.43-1.73,.45-.23,.91-.33,1.4-.23,1.04,.21,2.07,.48,3.11,.67,.46,.08,.95,.03,1.42,.05-.47,.73-.93,1.46-1.38,2.16,.13,.22,.19,.43,.32,.53,1.34,.96,2.75,1.79,4.28,2.4,.62,.25,1.28,.44,1.93,.58,.62,.13,1.14-.15,1.48-.67,.21-.32,.36-.68,.5-1.04,.17-.44-.09-1.07-.54-1.18-1.23-.29-2.41-.75-3.49-1.37-1.02-.58-2.1-.95-3.18-1.35,.5-1.68,1.52-3.1,2.31-4.64,1.58-3.11,2.95-6.29,3.99-9.61,.29-.92,.65-1.81,.97-2.71,.09-.26-.23-.58-.53-.49-1.11,.32-2.22,.65-3.32,.98-.46,.14-.92,.29-1.38,.4-.18,.04-.43,.03-.56-.07-.67-.53-1.36-1.07-1.96-1.68-.24-.25-.34-.7-.37-1.06-.11-1.55-.58-3.02-.96-4.51-1.22-4.87-2.88-9.61-4.13-14.47-.33-1.31-.8-2.58-1.25-3.85-.71-2-1.47-3.98-2.2-5.97-.13-.36-.29-.72-.37-1.1-.74-3.41-2.2-6.59-3.15-9.93-.92-3.25-1.92-6.48-2.8-9.74-1.24-4.57-2.39-9.15-3.59-13.73-.84-3.17-1.74-6.33-2.55-9.51-.59-2.34-1.08-4.7-1.6-7.06-.68-3.11-1.32-6.23-2.29-9.27-.76-2.41-1.05-4.9-1.51-7.37-.87-4.65-1.61-9.32-1.93-14.05-.53-2.36-.57-4.79-.89-7.18-.34-2.58-.53-5.19-.73-7.78-.21-2.79-.35-5.59-.53-8.38-.01-.18-.13-.36-.23-.52-.1-.17-.39,.08-.57,.52-.46,1.17-.94,2.33-1.37,3.51-1.4,3.8-2.61,7.66-3.83,11.52-.64,2.02-1.17,4.07-1.8,6.1-.6,1.93-1.25,3.85-1.89,5.77-1.4,4.21-2.56,8.5-3.63,12.8-.26,1.03-.37,2.09-.63,3.12-.38,1.5-.83,2.98-1.24,4.46-.62,2.23-1.23,4.46-1.57,6.76-.16,1.05-.45,2.07-.69,3.1-.5,2.16-1.01,4.32-1.51,6.48-.52,2.25-1.01,4.51-1.58,6.75-.56,2.24-1.21,4.47-1.8,6.71-.25,.93-.44,1.88-.68,2.81-.75,2.9-1.51,5.79-2.25,8.69-.88,3.46-1.77,6.92-2.11,10.49-.09,.95-.39,1.89-.55,2.84-.43,2.57-.83,5.14-1.26,7.71-.45,2.66-.78,5.34-1.13,8.01-.33,2.48-.67,4.98-1.24,7.41-.49,2.08-.59,4.2-.94,6.29-.22,1.33-.39,2.67-.66,3.99-.28,1.42-.43,2.86-.61,4.3-.11,.88-.6,1.46-1.4,1.65-1.21,.28-2.38,.79-3.68,.7-.64-.05-1.02,.39-1.15,1.06-.04,.19-.06,.38-.1,.57-1.04,5.4,.27,4.04-5.19,5.04-2,.36-3.98,.74-5.91,1.37-1.83,.6-3.67,1.16-5.52,1.73-2.78,.85-5.44,1.98-7.93,3.49-.5,.3-1,.6-1.45,.95-1.79,1.39-3.16,3.06-3.88,5.28-.98,3.04-1.9,6.06-2.08,9.28-.07,1.25-.27,2.49-.46,3.73-.51,3.35-.52,6.74-.69,10.11-.02,.48-.02,.97-.05,1.45-.04,.73-.34,1.09-1.01,1.18-1.34,.17-2.68,.34-4.03,.46-2.12,.19-4.24,.31-6.35,.5-1.73,.15-3.46,.37-5.19,.52-3.08,.27-6.16,.52-9.24,.77-1.54,.12-3.08,.23-4.62,.34-.96,.07-1.93,.13-2.89,.19-1.64,.11-3.28,.22-4.91,.33-.38,.03-.77,.08-1.15,.04-1.84-.18-3.67-.06-5.5,.1-2.7,.23-5.4,.24-8.11,.18-1.26-.03-2.51,.02-3.75,.26-.56,.11-1.14,.14-1.72,.2-.58,.06-1.22-.05-1.72,.18-1.33,.61-2.64,.38-3.98,.2-.57-.08-1.15-.14-1.73-.18-1.72-.12-1.86-.33-1.82-2.18,0-.39,.05-.77,.08-1.16,.06-1.12,.51-2.01,1.41-2.73,2.58-2.07,5.39-3.72,8.48-4.92,3.59-1.39,7.22-2.7,10.72-4.32,1.14-.53,2.33-.93,3.49-1.4,3.77-1.52,7.42-3.25,10.51-5.96,.35,.45,.62,1.03,1.07,1.32,1.15,.73,1.94,1.82,2.89,2.74,.14,.13,.29,.24,.44,.36,.18,.15,.63,.11,.78-.07,.73-.82,.84-1.53,.32-2.32-.68-1.04-1.36-2.07-2.36-2.85-.57-.45-.96-.5-1.53-.1-.54,.38-.96,.94-1.69,1-.41-.64-.86-1.27-1.23-1.94-.18-.32-.26-.72-.31-1.09-.09-.55,.61-1.13,1.15-.96,.36,.11,.75,.24,1.03,.48,.57,.5,1.08,1.07,1.64,1.64,1.56-.71,2.81-1.75,3.98-2.9,.25-.25,.29-.74,.08-1.06-.22-.32-.48-.61-.68-.94-.4-.65-.28-1.45,.25-1.82,.52-.37,1.35-.3,1.87,.17,.14,.13,.27,.27,.41,.41,.2,.2,.41,.41,.62,.61,.07,.07,.16,.11,.3,.2,.3-.16,.68-.28,.96-.52,1.42-1.16,2.82-2.34,4.22-3.52,.39-.33,.4-.69,.05-1.26-.15-.25-.33-.47-.47-.73-.25-.45-.06-1.12,.42-1.55,.33-.3,.99-.42,1.35-.21,.41,.24,.79,.55,1.2,.8,.36,.22,.74,.2,1.08-.05,.46-.34,.94-.68,1.37-1.07,1.22-1.09,2.42-2.21,3.64-3.31,1.36-1.23,2.76-2.41,4.09-3.67,2.23-2.14,4.32-4.41,6.22-6.85,.36-.46,.15-.96-.43-1.02-2.11-.24-4.22-.48-6.33-.72-.7-.08-1.28-.38-1.31-1.26-.05-1.54-.15-3.08-.1-4.62,.05-1.44,.28-2.88,.42-4.32,.06-.67,.13-1.35,.13-2.02,0-1.94,.29-3.85,.58-5.76,.52-3.43,1-6.88,1.48-10.32,.11-.76,.15-1.54,.21-2.31,.15-1.73,.32-3.46,.45-5.19,.09-1.25,.13-2.51,.19-3.76,.1-1.93,.21-3.86,.32-5.78,.15-2.51,.34-5.01,.46-7.52,.17-3.57,.24-7.14,.45-10.71,.15-2.5,.44-5,.71-7.5,.28-2.59,.57-5.18,.93-7.76,.41-2.96,.9-5.91,1.37-8.87,.17-1.05,.36-2.09,.54-3.13,.3-1.71,.62-3.42,.92-5.13,.39-2.18,.76-4.37,1.15-6.56,.21-1.14,.45-2.27,.69-3.4,.79-3.78,1.58-7.55,2.38-11.33,.14-.66,.28-1.32,.43-1.98,.53-2.35,1.23-4.67,1.47-7.08,.02-.19,.09-.38,.14-.56,1.25-4.56,1.93-9.25,3.05-13.85,1.01-4.12,2.03-8.25,2.98-12.38,1.16-5.08,2.29-10.17,3.37-15.26,.86-4.06,1.64-8.13,2.44-12.2,.19-.95,.39-1.9,.46-2.86,.12-1.64,.41-3.25,.65-4.88,.68-4.58,1.43-9.15,2.05-13.74,.6-4.49,1.44-8.95,2.29-13.41,1.32-6.92,2.93-13.78,4.4-20.66,.78-3.68,1.48-7.38,2.03-11.15-.22-.07-.48-.22-.75-.23-.67-.03-1.35,.02-2.03,0-.8-.01-1.56-.1-1.8-1.08-.04-.17-.19-.35-.35-.44-.69-.41-.76-1.06-.74-1.76,.05-1.74,.09-3.48,.16-5.21,.04-1.16,.13-2.31,.21-3.46,0-.06,.13-.12,.21-.15,.08-.03,.2-.06,.26-.02,.15,.1,.33,.21,.42,.36,.69,1.29,1.56,2.44,2.49,3.55,.39,.46,.84,.79,1.4,.99,.27,.1,.55,.19,.83,.26,.71,.19,1.22,1.06,2.11,.64,.76-.36,.98-1.15,1.4-1.78,.27-.4,.55-.79,.84-1.18,2.09-2.78,3.75-5.85,5.87-8.6,.23-.3,.38-.67,.57-1.01,1.08-1.88,1.21-3.86,.51-5.87-.5-1.45-.91-2.96-1.86-4.22-.23-.31-.42-.66-.52-1.03-.55-1.88-1.68-3.46-2.64-5.13-.39-.68-.88-1.25-1.43-1.81-.57-.58-1.52-.93-2.67-.45-.82,.34-1.53,.83-2.1,1.51-.8,.96-1.57,1.95-2.34,2.95-.71,.92-1.39,1.85-2.09,2.77-.03,.04-.17,.04-.24,.02-.08-.02-.2-.09-.21-.15-.06-.28-.14-.56-.13-.84,.29-8.2,.6-16.41,.9-24.61,0-.19,.01-.39,.03-.58,.07-1.18,.29-1.45,1.59-1.52,.79-.04,1.26-.37,1.58-1.03,1.23-2.52,2.79-4.85,4.27-7.22,.77-1.23,1.51-2.47,2.25-3.72,1-1.67,1.07-3.48,.69-5.33-.09-.46-.34-.91-.61-1.29-.77-1.11-1.52-2.25-2.42-3.25-.84-.94-1.56-1.96-2.29-2.98-.84-1.18-1.73-2.31-2.76-3.34-.74-.74-1.32-1.65-1.96-2.5-.35-.47-.73-.92-1.29-1.13-.25-.09-.62-.14-.82-.02-.57,.34-1.18,.7-1.6,1.2-2.02,2.36-3.73,4.92-4.88,7.82-.43,1.08-.87,2.15-1.32,3.21-1.11,2.61-1.8,5.29-1.49,8.16,.02,.18-.06,.38-.09,.57-.39,.6-1.05,.82-1.66,1.09-2.93,1.25-5.91,2.38-9,3.19-1.77,.46-3.55,.92-5.32,1.39-2.53,.67-5.11,1-7.73,1.1-.87,.03-1.48-.31-1.92-1.04-.1-.17-.23-.31-.32-.48-1.14-2.25-2.7-4.23-4.07-6.32-.58-.89-1.16-1.78-1.66-2.71-.51-.96-1.17-1.78-1.96-2.49-.83-.75-1.81-1.09-2.94-.68-.45,.16-.92,.3-1.37,.46-1.03,.37-1.87,1-2.52,1.88-1.21,1.63-2.35,3.31-2.98,5.27-.39,1.19-.8,2.38-1.21,3.56-.13,.36-.29,.71-.45,1.07-.21,.47-.66,.72-1.17,.63-2.09-.37-4.19-.7-6.26-1.16-2.16-.48-4.33-.97-6.38-1.85-.26-.11-.44-.5-.34-.71,.17-.34,.33-.7,.53-1.02,.71-1.15,1.4-2.31,2.15-3.43,.9-1.33,.99-2.9,1.36-4.39,.04-.18,.02-.39-.01-.58-.35-1.81-.81-3.58-2.03-5.04-.62-.74-1.25-1.47-1.82-2.25-1.26-1.71-2.49-3.44-3.72-5.17-.45-.63-.86-1.28-1.51-1.73-.28-.2-.82-.26-1.09-.04-1.51,1.2-3.01,2.37-4.06,4.06-1.84,2.95-3.47,6.02-5.08,9.1-.49,.94-.96,1.88-1.41,2.76-.3,.04-.51,.14-.65,.07-4.1-1.94-8.1-4.09-11.95-6.49-.3-.19-.55-.47-.88-.77,.85-.5,1.55-1.06,2.35-1.36,1.19-.45,1.87-1.31,2.39-2.38,.3-.61,.6-1.21,.92-1.81,.45-.85,.9-1.7,1.38-2.54,.81-1.42,1.69-2.81,2.45-4.26,.63-1.22,.91-2.54,.68-3.93-.06-.38-.1-.8-.29-1.11-1.06-1.72-1.83-3.6-3.05-5.25-2.64-3.57-5.51-6.96-8.24-10.46-.29-.38-.63-.72-.98-1.06-.42-.41-1.14-.42-1.57,.03-.67,.69-1.36,1.38-1.93,2.15-.91,1.24-1.79,2.51-2.45,3.92-.94,2.01-2.07,3.94-2.9,5.99-1.79,4.4-1.62,4.91,.16,9.71,.2,.53,.54,1.04,.91,1.46,2.49,2.82,5,5.63,7.5,8.43,.06,.07,.15,.11,.22,.18-.01,.01,.04-.05,.04-.05Zm137.5,83.56c-.05-.36-.14-.64-.11-.9,.21-1.83-.38-3.43-1.4-4.9-.82-1.19-1.66-2.37-2.5-3.54-.11-.15-.29-.25-.44-.37-.24-.2-.84-.27-1.09-.08-.38,.29-.81,.56-1.07,.94-.43,.64-.71,1.37-1.1,2.03-1.07,1.82-1.5,3.74-1.08,5.84,.07,.36,.07,.78-.04,1.13-.81,2.67-1.46,5.4-2.83,7.88-.74,1.35-1.38,2.75-2.09,4.12-.22,.42-.5,.82-.79,1.19-.29,.38-.66,.7-.96,1.08-2.34,2.88-5.11,5.28-8.33,7.09-2.52,1.42-5.02,2.88-7.69,4.03-1.36,.58-2.08,1.59-2.42,3.02-.92,3.94-2.02,7.84-2.49,11.89-.4,3.45-1.06,6.87-1.58,10.3-.76,4.96-1.47,9.93-2.25,14.89-.34,2.19-.77,4.37-1.18,6.55-.65,3.41-1.32,6.82-2,10.23-.34,1.7-.7,3.4-1.08,5.1-.32,1.41-.7,2.81-1.04,4.22-.75,3.09-1.54,6.18-2.24,9.28-1.07,4.7-2.25,9.38-3.07,14.15-.54,3.13-1.46,6.19-2,9.34-.42,2.47-1.01,4.91-1.52,7.36-.39,1.89-.77,3.78-1.16,5.66-.38,1.79-.77,3.58-1.15,5.38-.35,1.7-.81,3.39-.99,5.11-.19,1.83-.74,3.58-.99,5.4-.29,2.1-.68,4.18-1.03,6.28-.47,2.85-.94,5.71-1.42,8.56-.03,.19-.05,.38-.07,.58-.46,4.12-.96,8.24-1.36,12.36-.24,2.5-.44,5.01-.46,7.51-.04,4.54-.46,9.06-.67,13.59-.11,2.31-.56,4.6-.5,6.93,.06,2.23-.19,4.43-.42,6.64-.26,2.59-.54,5.19-.76,7.78-.17,2.02-.45,4.03-.87,6.01-.18,.84-.26,1.72-.3,2.58-.1,2,.02,2.14,1.94,2.43,.67,.1,1.34,.18,2.02,.21,2.89,.11,5.78,.15,8.65,.63,2.28,.38,4.61,.46,6.91,.68,.77,.08,1.53,.2,2.29,.3,.57,.08,1.15,.22,1.72,.21,2.52-.05,5,.32,7.51,.49,2.5,.17,5,.39,7.51,.54,1.25,.08,2.51,.08,3.76,.08,.63,0,1.16-.4,1.24-.99,.6-3.91,1.65-7.74,1.91-11.7,.11-1.63,.48-3.24,.71-4.87,.5-3.44,1.05-6.87,1.83-10.26,.04-.19,.07-.38,.08-.57,.06-1.46,.43-2.86,.72-4.28,.46-2.27,.89-4.55,1.44-6.8,.93-3.75,1.96-7.47,2.92-11.21,1.07-4.21,2.2-8.4,3.13-12.64,1.52-6.88,3.23-13.71,4.89-20.56,.77-3.19,1.52-6.38,2.44-9.53,1.56-5.38,3.26-10.71,4.86-16.07,2.18-7.31,4.71-14.5,7.21-21.7,2.25-6.47,4.37-12.99,6.42-19.53,1.96-6.26,3.71-12.58,5.36-18.93,.82-3.18,1.84-6.3,2.54-9.51,.28-1.3,.94-2.52,1.48-3.75,.14-.32,.51-.57,.82-.78,.34-.23,.73-.19,1.09,.01,.32,.17,.58,.62,.48,.96-.55,1.94-1.04,3.91-1.68,5.82-.64,1.89-1.41,4.52-1.77,6.66-.06,.38-.13,.8-.34,1.09-.65,.91-.83,1.91-.89,2.99-.03,.57-.23,1.14-.4,1.69-.8,2.58-1.7,5.12-2.37,7.74-.57,.92-.74,1.98-1.03,3-.31,1.11-.47,2.27-.87,3.34-1.15,3.07-1.78,6.31-3.14,9.3-.36,.79-.59,1.63-.85,2.46-.32,1.02-.46,2.06-.48,3.13-.1,5.51,.57,10.99,.71,16.49,.53,2.75,.33,5.58,1,8.32,.07,.28,.07,.58,.06,.87-.04,1.17,.11,2.3,.39,3.44,.25,1.02,.28,2.1,.4,3.16,.08,.67,.13,1.34,.21,2.01,.33,2.97,.82,5.92,1.4,8.85,.11,.57,.29,1.13,.32,1.71,.18,3.2,1.68,6.13,1.9,9.32,0,.09,.06,.19,.1,.27,.45,.78,.49,1.65,.61,2.51,.08,.57,.2,1.14,.34,1.7,.59,2.34,1.19,4.67,1.78,7.01,.07,.28,.13,.57,.16,.85,.2,2.03,.82,3.96,1.32,5.92,.45,1.77,1.01,3.52,1.42,5.31,1.13,4.99,2.63,9.88,3.98,14.8,.79,2.88,1.61,5.76,2.38,8.65,.15,.56,.32,1.11,.5,1.66,.73,2.2,1.54,4.37,2.18,6.59,.59,2.05,1.32,4.04,2.12,6,1.45,3.6,2.93,8.55,4.1,12.93,.59,2.19,.6,2.32,2.68,1.51,.63-.25,1.23-.55,1.84-.82,1.5-.65,3-1.33,4.52-1.95,1.88-.76,3.77-1.49,5.67-2.2,1.35-.51,2.71-1.02,4.09-1.45,2.58-.8,5.17-1.54,7.68-2.58,.71-.29,1.45-.56,2.19-.73,2.73-.64,5.35-1.63,8.01-2.49,1.74-.56,3.46-1.19,5.19-1.81,.36-.13,.7-.32,1.01-.53,.14-.09,.24-.31,.27-.48,.03-.18-.03-.38-.08-.57-.38-1.4-.72-2.81-1.17-4.18-1.72-5.23-3.1-10.55-4.3-15.92-.8-3.58-1.68-7.14-2.42-10.73-1.65-7.94-3.32-15.87-5.37-23.72-.19-.74-.34-1.51-.44-2.27-.61-4.4-1.26-8.79-2.15-13.14-.69-3.41-1.27-6.83-1.81-10.26-.2-1.24-.46-2.47-.62-3.71-.64-4.98-1.22-9.96-1.88-14.94-.54-4.12-1.05-8.24-1.09-12.4,0-.29,0-.58-.04-.87-.48-3.55-.52-7.13-.59-10.7-.03-1.54,.03-3.09,0-4.63-.08-4.35-.05-8.69,.6-13.01,.06-.38,.07-.77,.1-1.15,.42-4.13,.64-8.28,1.22-12.39,.52-3.73,.98-7.46,1.72-11.16,.7-3.5,1.44-6.99,2.05-10.51,.73-4.18,1.69-8.33,2.12-12.56,.17-1.62,.64-3.21,.94-4.82,.41-2.18,.98-4.36,1.11-6.56,.17-2.89,.62-5.76,.52-8.67-.03-.85,.2-1.72,.35-2.57,.12-.69,.47-.91,1.2-.86,.38,.02,.76,.03,1.15,.02,.25,0,.42-.46,.26-.68-.17-.23-.3-.51-.51-.7-1.52-1.35-3.04-2.68-4.23-4.34-.32-.45-.84-.8-1.33-1.09-.31-.19-.74-.31-1.1-.27-1.48,.17-2.81,.69-3.77,1.92-.59,.76-1.17,1.52-1.69,2.2-.99,.25-1.89,.22-2.71-.02-1.33-.4-2.67-.39-4.02-.43-.77-.02-1.55-.04-2.32-.07-.19,0-.38-.07-.57-.09-.24-.04-.41-.44-.31-.7,.56-1.47,1.61-2.62,2.55-3.84,.64-.84,1.36-1.63,1.85-2.59,.45-.88,.74-1.81,.66-2.78-.12-1.34-.33-2.68-1.07-3.87-1.29-2.05-2.7-4-4.39-5.73-.67-.69-1.35-1.39-1.93-2.15-.65-.86-1.47-1.53-2.21-2.29-.64-.66-1.43-.92-2.29-1.14-.86-.21-1.5,.05-2.1,.61-1.28,1.2-2.27,2.63-3.1,4.17-1.33,2.46-2.58,4.97-3.9,7.44-.71,1.32-.94,2.73-.91,4.2,.01,.59,.16,1.13,.5,1.63,1.24,1.83,2.22,3.85,3.72,5.51,.12,.14,.24,.33,.25,.51,.01,.16-.07,.44-.18,.49-.26,.11-.56,.16-.84,.15-2.61-.05-5.22-.1-7.82-.18-1.93-.06-3.86-.16-5.79-.23-.93-.03-1.66-.32-2.16-1.19-.58-1.01-1.35-1.88-2.29-2.58-.49-.37-1.14-.44-1.61-.1-.54,.39-1.09,.8-1.56,1.27-.75,.73-1.46,1.52-2.17,2.28-3.35,.22-6.63-.09-9.9-.02-.52,.01-.87-.32-.88-.93-.03-2-.78-3.77-1.72-5.47-1.88-3.39-4.22-6.46-6.71-9.42-.24-.29-.55-.54-.87-.75-.59-.39-1.21-.5-1.91-.18-1.64,.76-2.89,1.99-3.73,3.52-1.39,2.53-2.81,5.06-3.72,7.83-.51,1.55-1.06,3.09-1.59,4.63-.84,.38-1.72,.23-2.57,.29-.96,.06-1.93,.06-2.89,.11-.87,.04-1.73,.12-2.6,.18-.96,.07-1.92,.14-2.89,.2-.85,.05-1.73-.07-2.54,.38,0,1.03,.17,2.02-.04,2.93-.35,1.51-.5,3.04-.77,4.55-.15,.85-.39,1.7-.71,2.5-.61,1.54-1.1,3.07-1.09,4.75,0,.67-.17,1.34-.3,2-.37,1.89-.68,3.79-1.24,5.63-.02,.06,.28,.31,.4,.29,.37-.06,.76-.17,1.09-.34,2.22-1.17,4.44-2.34,6.64-3.55,1.79-.98,3.35-2.29,4.83-3.67,1.57-1.45,2.91-3.09,3.82-5.05,.41-.87,.87-1.72,1.36-2.56,.54-.93,.92-1.91,1.26-2.92,.34-1.01,.65-2.02,.99-3.03,.25-.74,.45-1.49,.24-2.27-.19-.69-.04-1.34,.13-1.99,.14-.56,.31-1.12,.47-1.67,.75-2.61,1.9-5.05,3.19-7.44,.51-.94,1.13-1.8,2.06-2.39,.3-.19,.82-.17,1.06,.11,1.31,1.55,2.58,3.12,3.91,4.65,1.55,1.78,2.57,3.84,3.43,6.01,.29,.74,.36,1.49,.26,2.27-.05,.36-.38,.7-.78,.71-.57,0-1.14-.03-1.76-.04Zm-24.71-244.86c-.19,1.31-.33,2.56-.55,3.79-.3,1.71-.77,3.37-1.61,4.92-.43,.79-.99,1.4-1.69,1.94-1.18,.92-2.5,1.09-3.83,.62-1.57-.56-2.97-1.43-3.49-3.2-.05-.18-.15-.36-.27-.51-.11-.15-.26-.31-.42-.36-.09-.02-.31,.16-.36,.3-.41,1.08-.8,2.17-1.18,3.26-.19,.55-.36,1.1-.49,1.66-.24,1,.52,2.28,1.52,2.48,1.04,.2,2.1,.4,3.15,.44,1.38,.05,2.12,.81,2.53,2,.22,.63,.4,1.29,.53,1.95,.16,.85,.23,1.72,.35,2.58,.05,.39,.36,.7,.76,.75,.38,.05,.77,.13,1.15,.09,1.05-.09,2.1-.24,3.16-.34,2.31-.21,4.56-.77,6.79-1.38,.55-.15,1.13-.22,1.71-.23,.51-.01,.89,.3,1.13,.76,.33,.62,.43,1.29,.35,1.97-.14,1.16-.46,2.26-1.06,3.28-.5,.86-1.12,1.6-2,2.04-2.41,1.2-4.81,2.44-7.53,2.87-1.23,.19-2.45,.52-3.67,.8-.34,.08-.6,.52-.54,.91,.07,.48,.13,.96,.23,1.43,.31,1.44,1.18,2.4,2.58,2.85,1.94,.63,3.91,1.04,5.97,.95,2.03-.09,4.05-.1,6.07,.12,.47,.05,.94,.17,1.39,.34,1.79,.67,3.13,1.83,4.04,3.53,.41,.76,.86,1.47,1.08,2.34,.29,1.13,.83,1.4,1.92,1.23,.38-.06,.76-.16,1.14-.22,2.28-.41,4.56-.81,6.84-1.21,.22-.04,.54,.4,.45,.62-.15,.35-.3,.71-.48,1.05-1.28,2.39-2.3,4.89-3.27,7.41-.57,1.49-.7,3.01-.25,4.54,1.07,3.64,2.39,6.48,4.52,9.66,.7,1.04,1.48,2.03,2.28,2.99,.29,.35,.75,.68,1.18,.78,1.22,.28,2.48,.43,3.7-.06,2.37-.95,2.76-.75,4.12-3.68,.04-.09,.1-.17,.14-.25,1.35-2.67,2.58-5.4,4.08-7.99,.38-.66,.64-1.4,.89-2.13,.55-1.54,.42-3.04-.43-4.46-.79-1.32-1.62-2.63-2.42-3.95-1.1-1.82-2.19-3.63-3.26-5.46-.14-.24-.16-.54-.23-.8,.64-.59,1.43-.62,2.18-.76,3.42-.63,6.84-1.25,10.25-1.89,.9-.17,1.17-.47,1.26-1.31,.04-.38,.16-.78,.1-1.15-.3-1.85-.02-3.65,.39-5.45,.06-.28,.1-.58,.09-.86-.05-2.33,.38-4.59,.91-6.77-.18-.23-.27-.4-.41-.52-2.64-2.19-3.89-4.97-3.57-8.42,.03-.29,.05-.58,.08-.87,.15-1.64,.51-3.24,.93-4.83,.34-1.3,.61-2.63,.82-3.96,.2-1.21-.11-2.41-1.07-3.15-1.73-1.34-3.64-2.19-5.91-1.17-.63,.28-1.23,.55-1.65,1.11-.75,1-1.69,1.93-2.19,3.04-.77,1.72-2.1,3-3.09,4.53-.36,.56-.94,.96-1.58,1.24-.93,.41-2.02,.22-2.64-.55-.42-.52-.81-1.09-1.09-1.69-.41-.89-.46-1.82-.19-2.82,.41-1.49,.86-2.96,1.57-4.33,.22-.42,.36-.89,.52-1.33,.07-.19-.21-.66-.4-.69-.38-.06-.76-.19-1.13-.17-2.42,.11-4.82-.09-7.23-.34-.77-.08-1.54-.08-2.31-.09-2.51-.05-5.02-.09-7.53-.13-.48,0-.96,.01-1.44,.02-3.76,.08-7.52,.41-11.29,.09-.36-.03-.73,.13-1.14,.21Zm-31.48,65.37c-1.07-.84-2.03-1.64-3.03-2.38-2.09-1.55-4.27-2.99-6.29-4.63-2.93-2.39-6.19-4.26-9.41-6.19-2-1.19-4.22-1.99-6.58-1.94-2.41,.05-4.81,.13-7.22,.34-2.3,.2-4.61,.28-6.86,.85-.18,.05-.39,.02-.58,.04-2.3,.25-4.6,.5-6.9,.76-.28,.03-.55,.16-.82,.25-.42,.14-.76,.56-.62,.83,.12,.24,.31,.47,.53,.61,.23,.15,.53,.24,.81,.27,2.2,.31,4.38,.73,6.61,.69,1.37-.03,2.69,.15,4,.53,1.02,.29,2.04,.57,3.07,.83,1.91,.5,3.55,1.47,4.94,2.86,1.37,1.36,2.74,2.72,4.07,4.11,.39,.41,.68,.93,1,1.41,.21,.33,.13,.75-.12,1.07-.74,.93-1.62,1.65-2.78,1.98-1.3,.38-2.6,.73-3.89,1.13-.36,.11-.68,.33-1.01,.52-.23,.13-.37,.56-.23,.74,.11,.14,.25,.33,.4,.36,1.71,.3,3.44,.41,5.18,.39,1.25-.01,2.51-.02,3.76,.05,2.13,.11,4.19,.62,6.16,1.44,1.08,.45,2.03,1.07,2.84,1.94,1.31,1.42,2.73,2.72,4.27,3.89,.29,.22,.67,.33,1.04,.52,1.06-1.11,1.77-2.37,2.51-3.6,1.83-3.05,3.7-6.08,5.14-9.68Zm100.96,423.24c.3-.07,.69-.11,1.04-.24,1.26-.48,2.47-1.1,3.76-1.46,1.12-.31,2.2-.69,3.28-1.11,1.89-.73,3.77-1.47,5.68-2.13,1.64-.56,3.29-1.07,4.97-1.49,3.08-.77,6.2-1.35,9.23-2.34,2.65-.87,5.37-1.51,8.03-2.36,2.29-.73,4.55-1.57,6.8-2.44,1.35-.52,1.37-.73,.83-2.08-.29-.71-.49-1.46-.77-2.18-.55-1.44-1.09-2.88-1.72-4.29-.53-1.2-1.13-1.42-2.29-1.01-1,.36-2.03,.65-2.97,1.12-1.82,.9-3.74,1.51-5.66,2.12-2.47,.78-4.98,1.44-7.42,2.33-1.53,.56-3.07,1.1-4.67,1.48-1.3,.31-2.51,.97-3.8,1.36-1.66,.5-3.37,.83-4.83,1.84-.15,.1-.36,.14-.55,.18-2.74,.62-5.19,2.03-7.87,2.84-1,.3-1.92,.88-2.85,1.4-.2,.11-.3,.47-.37,.73-.04,.17,.06,.37,.11,.56,.61,2.22,1.3,4.43,1.55,6.73,0,.08,.1,.16,.17,.23,.06,.06,.14,.11,.3,.22ZM172.56,67.6c1.54,.06,3.08,.11,4.62,.17,2.31,.1,4.62,.18,6.92,.31,2.02,.11,4.04,.08,6.05-.2,.62-.09,1.07-.56,1-1.18-.1-.85-.26-1.7-.44-2.54-.03-.13-.28-.31-.43-.31-.96,0-1.92,.06-2.88,.08-1.08,.02-2.08-.23-3-.85-1.36-.93-2.62-1.95-3.79-3.1-1.15-1.13-1.74-2.52-1.82-4.13-.04-.67-.04-1.35-.09-2.02-.06-.91-.61-1.33-1.57-1.22-1.44,.16-2.86,.4-4.17,1.08-1.21,.62-2.54,.89-3.85,1.21-1.17,.29-2.26,.17-3.34-.44-1.59-.9-3.23-1.72-4.85-2.55-.72-.37-1.55-.2-2.1,.42-.44,.5-.85,1.04-1.21,1.61-1.14,1.8-2.38,3.5-4.06,4.85-.4,.32-.38,.98,.08,1.24,1.46,.82,2.18,2.11,2.58,3.66,.19,.75,.37,1.49,.36,2.27,0,.48,.1,.95,.16,1.43,.04,.34,.31,.48,.58,.57,.27,.09,.57,.13,.85,.12,2.69-.12,5.39-.19,8.08-.4,2.12-.17,4.23-.16,6.34-.08Zm-20.81,497c1.32,0,2.09,0,2.86,0,.38,0,.77-.02,1.15-.05,.36-.02,.71-.35,.78-.73,.39-2.18,.78-4.36,1.16-6.54,.08-.48-.32-.97-.81-.98-.77-.02-1.55,.06-2.31-.05-3.63-.51-7.32-.21-10.94-.82-.47-.08-.96-.07-1.44-.09-2.31-.09-4.63,.01-6.89-.59-.37-.1-.77-.1-1.15-.1-2.51-.04-4.99-.44-7.47-.75-2.2-.27-4.4-.51-6.6-.69-1.53-.13-3.07-.12-4.61-.18-.54-.02-.97,.28-1.02,.78-.08,.86-.21,1.73-.16,2.59,.06,1.17,.08,2.31-.37,3.41-.07,.17-.03,.38-.04,.57-.01,.19,.3,.61,.5,.64,.38,.06,.76,.15,1.14,.15,2.99,0,5.94,.64,8.94,.53,.1,0,.19,0,.29,.02,2.08,.45,4.2,.54,6.31,.73,.96,.09,1.9,.33,2.85,.43,2.49,.26,5,.39,7.48,.73,1.91,.26,3.85,.24,5.73,.61,1.72,.33,3.45,.31,4.63,.38ZM226.03,150.57c-.13-.61-.15-1.23-.4-1.73-.72-1.47-1.43-2.96-2.33-4.31-1.29-1.92-2.74-3.73-4.15-5.56-1.18-1.53-2.4-3.02-3.6-4.53-.54-.68-1.07-1.37-1.63-2.03-1.01-1.18-1.76-1.16-2.87,.03-1.19,1.28-2.21,2.69-3.03,4.21-1.24,2.29-2.33,4.65-3.5,6.98-.65,1.31-.99,2.71-1.3,4.13-.1,.46-.14,.98-.03,1.43,.52,2.05,.97,4.15,2.17,5.95,1.23,1.84,2.1,3.88,3.21,5.79,1.03,1.78,2.3,3.32,3.84,4.65,.46,.4,1.01,.48,1.62,.43,1.58-.14,2.95-.79,4.32-1.53,.81-.44,1.41-.99,1.82-1.78,.45-.85,.87-1.72,1.31-2.58,.31-.6,.6-1.21,.93-1.79,.87-1.5,1.77-2.98,2.65-4.48,.6-1.02,.75-2.17,.96-3.28Zm-9.02,33.79c-1.43,.41-2.23,1.2-2.95,2.15-1,1.32-1.84,2.71-2.49,4.22-1.12,2.56-2.24,5.12-3.3,7.71-.55,1.33-1.02,2.71-1.45,4.08-.51,1.63-.4,3.23,.36,4.78,.51,1.04,1.06,2.05,1.85,2.92,.78,.86,1.5,1.77,2.31,2.59,1.08,1.1,2.17,2.2,3.47,3.05,1.17,.76,2.42,1.18,3.84,.92,.28-.05,.58-.1,.86-.09,.86,.05,1.48-.36,1.98-.99,.3-.38,.62-.75,.84-1.18,1.08-2.16,2.56-4.08,3.82-6.13,1.01-1.64,1.95-3.32,2.88-5.01,.28-.5,.44-1.07,.6-1.62,.14-.47,.11-.96-.12-1.41-.4-.77-.93-1.49-1.2-2.3-.65-1.97-1.88-3.58-3.14-5.16-1.5-1.89-3.12-3.68-4.63-5.56-.98-1.22-2.16-2.18-3.54-2.98Zm-21.05,62.74c1.99,.16,2.44-.66,3.32-1.83,.52-.69,.95-1.45,1.38-2.2,.63-1.08,1.22-2.19,1.84-3.27,1.1-1.92,2.18-3.85,3.34-5.74,1.1-1.79,.94-3.41-.26-5.09-1.46-2.03-2.88-4.09-4.64-5.88-.54-.55-1.03-1.14-1.5-1.75-1.41-1.83-2.79-3.68-4.19-5.52-.17-.22-.4-.42-.63-.58-.33-.24-.73-.29-1.09-.13-.35,.15-.71,.34-.97,.6-1.1,1.08-2.18,2.16-3.03,3.47-1.42,2.19-2.44,4.58-3.68,6.86-.93,1.71-1.37,3.59-1.7,5.49-.12,.68-.07,1.32,.09,2,.52,2.11,1.56,3.93,2.96,5.55,1.13,1.31,2.21,2.65,3.29,4,1.08,1.35,2.35,2.54,3.57,3.78,.35,.35,.82,.48,1.34,.35,.19-.05,.38-.08,.56-.12Zm28.85,23.83c.65-.83,1.4-1.61,1.94-2.51,1.34-2.25,2.99-4.26,4.56-6.33,.81-1.08,1.57-2.21,2.12-3.44,.35-.79,.62-1.62,.82-2.46,.11-.45,.09-.99-.06-1.42-.52-1.45-.98-2.93-1.78-4.26-.95-1.57-1.89-3.14-2.87-4.68-1.29-2.03-2.61-4.05-3.95-6.05-.37-.55-.85-1.05-1.34-1.51-.44-.41-1.03-.54-1.62-.36-1.43,.42-2.66,1.14-3.38,2.52-.31,.6-.64,1.19-.94,1.79-1.72,3.34-3.2,6.8-4.72,10.24-.63,1.42-1.11,2.86-1.48,4.37-.52,2.11-.19,3.92,1.28,5.63,1.2,1.4,2.65,2.53,3.89,3.87,1.24,1.35,2.41,2.75,3.69,4.06,1.12,1.14,2.22,1.44,3.87,.55Zm-46.56-62.97c-.15-.64-.26-1.31-.47-1.93-.44-1.29-1.09-2.46-1.95-3.52-1.7-2.1-3.21-4.34-4.61-6.65-.96-1.57-2.33-2.82-3.46-4.26-.53-.67-1.72-.69-2.36-.09-.78,.72-1.52,1.48-2.22,2.27-.31,.35-.54,.8-.71,1.25-.4,1.08-.84,2.17-1.07,3.29-.18,.86-.43,1.68-.77,2.47-1.28,3.04-1.96,6.25-2.74,9.43-.29,1.17-.22,2.34,.21,3.42,1.04,2.59,2.17,5.16,3.88,7.4,.47,.62,.99,1.19,1.67,1.59,.92,.55,1.68,1.29,2.42,2.05,.34,.34,.69,.67,1.08,.95,.77,.58,1.69,.49,2.37-.14,.94-.87,1.57-1.94,2.14-3.07,1.66-3.27,3.33-6.53,4.97-9.8,.43-.86,.82-1.75,1.15-2.65,.23-.62,.32-1.3,.48-2Zm-17.66,53.47c-.1,.71,.17,1.43,.4,2.17,.56,1.76,1.57,3.31,2.4,4.94,1.41,2.78,3.32,5.18,5.67,7.23,1.23,1.07,2.61,1.58,4.24,1.44,.94-.08,1.66-.49,2.14-1.28,.6-.99,1.13-2.02,1.73-3,1.66-2.72,2.9-5.67,4.42-8.46,.14-.25,.27-.53,.31-.81,.07-.57,.22-1.18,.09-1.71-.7-2.81-1.47-5.6-3-8.1-.6-.99-1.17-2-1.85-2.94-1.2-1.65-2.12-3.45-2.95-5.3-.2-.44-.4-.88-.65-1.29-.39-.65-1.32-.97-2.04-.72-.36,.13-.75,.26-1.04,.5-.51,.43-1.01,.9-1.42,1.43-1.24,1.6-2.31,3.35-3.66,4.84-2.49,2.75-3.53,6.15-4.64,9.54-.15,.45-.11,.95-.17,1.52Zm27.43,20.69c.2,1.35,.3,2.81,.9,4.14,.68,1.49,1.46,2.93,2.61,4.14,.66,.7,1.25,1.47,1.89,2.19,1.21,1.37,2.4,2.77,3.67,4.08,.95,.98,2.18,1.15,3.48,.79,.82-.23,1.46-.97,2.42-.81,.28-.25,.63-.45,.84-.75,1.01-1.4,1.97-2.85,2.99-4.25,1.48-2.04,2.62-4.26,3.64-6.55,.28-.64,.35-1.28,.23-1.97-.17-.97-.5-1.85-1.03-2.68-.72-1.14-1.46-2.27-2.13-3.44-.78-1.34-1.67-2.59-2.65-3.79-.49-.6-.98-1.19-1.44-1.81-1.21-1.62-2.4-3.26-3.63-4.86-.94-1.23-1.35-1.28-2.68-.6-.52,.27-1.01,.57-1.37,1.03-1,1.3-1.99,2.6-2.76,4.06-.99,1.87-2,3.74-3.04,5.58-.77,1.36-1.28,2.8-1.7,4.29-.11,.37-.15,.75-.23,1.22Zm15.84-102.89c-.1-1.32-.23-2.45-.77-3.52-1.13-2.25-2.49-4.34-4.05-6.3-.9-1.13-1.76-2.29-2.64-3.43-.94-1.22-1.87-2.45-2.83-3.65-.48-.6-1.42-.74-2.11-.37-.68,.37-1.31,.82-1.76,1.47-.39,.55-.76,1.11-1.13,1.68-.78,1.21-1.51,2.46-2.35,3.64-1.34,1.89-2.31,3.99-3.44,6-.33,.58-.55,1.23-.76,1.87-.27,.84-.27,1.68-.05,2.55,1.12,4.56,3.29,8.6,6.09,12.32,.46,.61,1.04,1.14,1.57,1.69,.2,.2,.44,.37,.68,.53,.58,.41,1.24,.55,1.92,.36,1.58-.44,3.07-1.12,4.48-1.96,.4-.24,.73-.63,1-1.01,.28-.39,.44-.85,.66-1.28,1.61-3.06,2.88-6.31,4.97-9.12,.32-.44,.38-1.07,.51-1.46Zm-49.5-19.9c-.04,2.2,.33,3.62,1.43,5.5,.44,.75,.85,1.51,1.33,2.24,.37,.56,.79,1.09,1.24,1.59,.91,1,1.85,1.96,2.78,2.93,.33,.35,.69,.68,1.05,.99,.54,.46,1.18,.65,1.88,.63,2.17-.07,3.36-.71,4.6-2.46,.11-.16,.21-.32,.3-.49,.75-1.35,1.54-2.67,2.23-4.05,1.08-2.15,2.11-4.33,3.1-6.52,.4-.87,.69-1.8,.97-2.71,.33-1.08,.15-2.12-.54-3.01-.77-.98-1.54-1.99-2.45-2.84-1.49-1.4-2.7-3-3.87-4.66-1.21-1.73-2.48-3.43-3.75-5.12-.45-.6-1.42-.77-2.11-.43-.53,.26-.98,.6-1.32,1.09-.83,1.19-1.54,2.44-2.05,3.81-1.4,3.79-2.77,7.6-4.46,11.27-.34,.73-.36,1.49-.37,2.26Zm-27.8,76.45c.45-.86,.84-1.63,1.25-2.39,1.24-2.29,2.49-4.57,3.71-6.87,.36-.68,.63-1.4,.91-2.12,.68-1.74,.44-3.39-.5-4.99-.54-.91-1-1.86-1.47-2.81-1.57-3.23-3.71-6.09-5.85-8.94-.75-1-2.08-1.11-3.12-.41-1.22,.82-2.18,1.9-3.04,3.07-1.37,1.86-2.73,3.74-4.08,5.62-.34,.47-.63,.97-.91,1.47-1,1.79-1.15,3.65-.45,5.58,.43,1.18,.89,2.34,1.56,3.41,.46,.74,.89,1.49,1.26,2.28,.91,1.94,2.24,3.6,3.52,5.28,.84,1.1,1.99,1.81,3.17,2.46,.6,.33,1.29,.41,1.97,.16,.72-.26,1.43-.54,2.08-.8Zm36.83-140.97c-.37-.36-.75-.33-1.12-.22-2.05,.56-4.14,.95-6.26,1.18-1.15,.13-2.3,.3-3.46,.37-1.79,.11-1.74,.46-1.69,1.94,.02,.58,.09,1.15,.15,1.73,.04,.38,.65,.85,1.05,.85,.19,0,.39,.02,.57-.01,2.66-.48,5.28-1.12,7.75-2.25,1.61-.74,2.62-1.9,2.99-3.58Zm-15.46-23.14c-.33,1.91-.27,3.79,.25,5.66,.1,.36,.29,.71,.48,1.04,.68,1.17,2.42,1.51,3.36,.28,1.51-2,2-3.68,1.78-6.71-.71-.2-1.43-.44-2.16-.58-.35-.07-.82-.09-1.1,.09-.81,.51-1.65,.23-2.6,.23Zm6.36-3.8c-.07-.69-.11-1.26-.19-1.84-.08-.57-.2-1.14-.3-1.71-.25-1.42-1.62-2.32-3.19-2.44-.52-.04-1.23,.39-1.41,.86-.2,.54-.42,1.08-.52,1.64-.26,1.42-.45,2.85-.67,4.28-.09,.57,.34,1.02,.8,.79,1.49-.75,2.96-.71,4.45,0,.08,.04,.2,.04,.27,0,.16-.08,.4-.16,.45-.3,.15-.45,.23-.92,.31-1.28Zm59.91,529.87c-.83,.57-1.4,1.08-1.82,1.74-.18,.28-.1,.58,.07,.8,.36,.47,.85,.74,1.46,.86,1.8,.35,3.59,.73,5.38,1.1,.28,.06,.57,.1,.86,.13,.72,.09,1.26-.21,1.65-.91,.3-.53,.15-1.25-.33-1.53-.33-.19-.67-.4-1.03-.5-2.04-.57-4.09-1.12-6.24-1.7Zm-109.62-16.98c-.74,.68-1.31,1.18-1.86,1.7-.42,.41-.4,.95,.07,1.19,1.72,.87,3.26,2,4.8,3.14,.23,.17,.48,.31,.74,.42,.17,.07,.4,.11,.56,.04,.25-.1,.59-.25,.67-.46,.53-1.43,.25-2.09-.7-2.73-.95-.64-1.8-1.42-2.71-2.13-.45-.35-.91-.68-1.57-1.17Zm-4.19,11.17c-.05-.18-.04-.43-.16-.54-1.1-1.07-2.2-2.13-3.34-3.15-.27-.24-.67-.36-1.02-.5-.32-.12-1.31,.44-1.39,.84-.04,.24,.08,.56,.23,.77,.51,.7,1.07,1.35,1.59,2.04,.64,.85,1.4,1.57,2.31,2.13,.34,.21,1,.06,1.31-.28,.34-.38,.49-.82,.45-1.32Zm98.86-287.21c-.04,.44-.11,.82-.1,1.19,.05,1.14,1.31,1.82,2.29,1.25,1.15-.66,1.78-1.68,1.99-2.96,.03-.18,0-.38-.05-.56-.23-.9-1.67-1.67-2.52-1.37-.64,.23-1.22,.53-1.59,1.13-.28,.46-.08,.92-.02,1.32Zm29.96-23.35c-.05-.91-.06-1.49-.13-2.06-.05-.42-.39-.64-.74-.81-.47-.22-.97-.23-1.36,.1-.43,.37-.93,.78-1.12,1.28-.82,2.17-.18,3.4,1.96,3.87,.36,.08,1.08-.36,1.14-.72,.11-.66,.2-1.33,.25-1.66Zm8.57-80.56s0,.05,0,.14c.06,1,.76,1.75,1.82,1.94,.78,.14,1.41-.2,1.88-1.03,.14-.25,.27-.51,.37-.78,.31-.78,.2-1.52-.26-2.2-.65-.96-1.93-1.39-2.95-.29-.54,.58-.92,1.24-.87,2.22Zm-36.04,54.25c-.18-.48-.31-.94-.54-1.34-.12-.22-.41-.4-.66-.48-.89-.29-1.71-.05-2.33,.62-.88,.95-.98,2.65-.29,3.71,.1,.15,.26,.28,.42,.35,1.25,.58,2.61,.04,3-1.2,.17-.54,.26-1.1,.39-1.65Zm-98.64-23.12c-.07-.27-.16-.73-.3-1.17-.12-.39-.44-.61-.8-.77-.86-.38-1.69-.14-2.29,.59-.39,.47-.51,1.02-.64,1.57-.18,.82,.12,1.49,.72,2.04,.7,.64,1.63,.6,2.33-.02,.62-.55,.81-1.27,.98-2.24Zm119.68-4.27c-.03-1.08-1.13-2.22-2.05-2.24-.6-.01-1.08,.29-1.49,.72-.87,.9-.84,1.83-.3,2.87,.39,.76,1.55,1.23,2.46,1.05,.18-.03,.38-.12,.49-.25,.59-.66,.9-1.43,.9-2.15Zm-46.23,60.26c0-1.36-1.51-2.25-2.69-1.57-.78,.45-1.31,1.11-1.51,2.02-.18,.85,.1,1.49,.9,1.92,.76,.41,1.83,.29,2.42-.29,.59-.56,.85-1.27,.88-2.08Zm69.73-35.95c-.26,.02-.45,.02-.63,.04-.9,.12-1.62,.86-1.6,1.71,0,.57,.08,1.13,.18,1.69,.14,.76,.77,1.24,1.63,1.32,.62,.06,1.24-.35,1.56-1.02,.38-.79,.56-1.61,.44-2.48-.07-.5-.36-.87-.82-1.06-.26-.11-.54-.15-.76-.2Zm-75.84-16.76c0,.48,0,.67,0,.86,.02,.39,.48,.88,.93,1,.7,.18,1.34,.11,1.84-.46,.44-.5,.87-1.02,1.27-1.55,.25-.33,.22-.73,.13-1.1-.19-.75-.75-1.05-1.46-1.21-1.19-.27-2.39,.46-2.6,1.61-.07,.38-.1,.76-.11,.86Zm-2.03-52.44c-.02-.19-.02-.39-.05-.57-.21-1.17-1.19-1.78-2.37-.99-.97,.65-1.31,1.63-1.36,2.74-.03,.75,.66,1.43,1.46,1.52,.74,.09,1.31-.18,1.74-.78,.41-.57,.55-1.22,.58-1.91Zm27.71,19.99c0-.49-.31-.95-.73-1.12-.48-.2-.93-.14-1.34,.14-.23,.16-.45,.36-.61,.58-.57,.79-.84,1.69-.81,2.67,.01,.53,.4,1.04,.99,1.25,.6,.21,1.22,.05,1.56-.34,.81-.92,.98-2.02,.94-3.18Zm54.97,104.44c.76-.02,1.41-.37,1.75-1.15,.19-.43,.34-.9,.44-1.36,.12-.57-.37-1.37-.94-1.62-.6-.27-1.13-.1-1.59,.3-.67,.58-1.11,1.29-1.23,2.2-.12,.93,.55,1.69,1.58,1.64Zm-37.74-189.17c.08-1.16-.6-2.23-1.8-2.11-1.51,.15-2.21,1.24-1.67,2.66,.1,.27,.24,.53,.41,.76,.49,.71,1.69,.79,2.3,.18,.5-.5,.73-1.12,.76-1.48Zm2.47,56.93c.02,.09,.11,.65,.25,1.2,.11,.41,.79,.7,1.2,.49,.34-.17,.69-.36,.94-.63,.77-.81,1.02-1.84,.97-2.92-.01-.23-.26-.53-.48-.67-.52-.32-1.1-.33-1.64-.04-.83,.44-1.33,1.09-1.24,2.56Zm-74.31-9.21c-.06,.66,.15,1.18,.49,1.38,.88,.51,2.11,.14,2.39-.76,.19-.63,.34-1.29,.43-1.94,.05-.38-.13-.74-.46-.99-.36-.28-.92-.29-1.34-.09-1.05,.52-1.51,1.39-1.52,2.4Zm48.08-11.9c.03,.31,.04,.5,.07,.68,.06,.5,.7,.99,1.24,.94,.48-.04,.92-.19,1.26-.56,.52-.57,.87-1.22,1.03-1.98,.13-.67-.23-1.31-.91-1.56-1.08-.39-2.2,.14-2.47,1.2-.12,.45-.15,.93-.21,1.27Zm-38.44,110.84c-1-.03-1.7,.49-1.89,1.4-.14,.67-.09,1.33,.18,1.97,.22,.54,.97,.87,1.42,.59,.48-.31,.94-.65,1.36-1.04,.38-.35,.47-.84,.34-1.32-.1-.37-.28-.71-.45-1.05-.19-.4-.57-.46-.95-.54Zm-4.5-45.74c.08-.35,.18-.62,.19-.9,.01-.38-.03-.76-.08-1.13-.09-.6-.84-1.18-1.45-1.13-1.17,.1-1.95,.92-1.94,2.04,0,.94,.78,1.66,1.66,1.51,.55-.09,1.08-.26,1.62-.39Zm-106.09-28.36c.52-.81,.32-1.64,.09-2.46-.1-.35-.72-.73-1.13-.73-1.01-.01-1.84,.62-2.08,1.59-.27,1.12,.62,2.12,1.74,1.93,.46-.08,.92-.21,1.38-.32Zm31.98,28.57c-.02-.2-.03-.58-.1-.95-.15-.76-.95-1.28-1.71-1.13-1.19,.23-1.78,1.02-1.67,2.23,.07,.75,.85,1.4,1.57,1.29,.37-.06,.74-.15,1.11-.24,.5-.13,.77-.49,.79-1.2Zm52.08,26.99c.17-.07,.42-.1,.49-.22,.27-.48,.53-.98,.7-1.51,.24-.76-.18-1.46-.98-1.78-.38-.15-1.09,.13-1.45,.61-.42,.56-.57,1.2-.31,1.86,.27,.68,.87,.93,1.55,1.05Z"/>
      <path d="M198.4,626.62c-1.54,0-3.09-.02-4.63,0-.89,.01-1.72-.12-2.45-.69-.69-.54-1.46-.93-2.3-1.16-.09-.02-.2-.08-.24-.15-.12-.24-.27-.5-.29-.76-.01-.13,.2-.34,.36-.4,.45-.17,.91-.39,1.38-.4,2.24-.07,4.38-.72,6.54-1.16,2.17-.44,4.36-.79,6.54-1.16,.57-.1,1.13-.25,1.69-.38,2.73-.61,5.46-1.2,8.19-1.82,.66-.15,1.3-.36,1.95-.54,.93-.25,1.86-.48,2.79-.74,.56-.15,1.14-.28,1.65-.53,1.91-.97,3.96-1.41,6.06-1.75,1.13-.18,2.22-.62,3.32-.98,2.39-.78,4.69-1.75,6.9-2.97,1.18-.65,2.45-1.14,3.68-1.69,1.05-.47,2.17-.84,3.15-1.43,1.57-.95,3.22-1.72,4.82-2.59,.93-.51,1.81-1.08,2.67-1.71,1.48-1.08,3.08-1.97,4.63-2.96,1.22-.78,2.42-1.58,3.64-2.36,.8-.52,1.48-1.22,2.41-1.57,.43-.16,.8-.54,1.15-.86,1.86-1.68,3.75-3.33,5.43-5.21,.7-.79,1.52-1.48,2.23-2.27,1.69-1.85,3.35-3.73,5.02-5.6,.64-.72,1.23-1.49,1.91-2.17,.75-.76,1.48-1.51,1.99-2.47,.18-.33,.48-.6,.73-.89,.4-.46,.86-.49,1.2-.07,.31,.37,.59,.77,.89,1.14,2.3,2.82,2.03,2.34,.15,5.45-.3,.49-.67,.94-1.06,1.37-4.05,4.42-8.24,8.67-13.22,12.08-1.43,.98-2.85,1.99-4.25,3.02-1.94,1.43-3.87,2.89-5.79,4.34-3.85,2.92-7.94,5.48-12.06,7.98-.74,.45-1.47,.92-2.22,1.36-1.73,1.04-3.41,2.2-5.34,2.88-.09,.03-.19,.06-.27,.11-2.04,1.32-4.37,1.99-6.58,2.94-2.22,.96-4.5,1.7-6.86,2.24-2.44,.55-4.83,1.28-7.25,1.92-.93,.25-1.86,.53-2.8,.71-2.37,.47-4.74,.87-7.11,1.33-2.77,.54-5.56,.63-8.36,.54Z"/>
      <path d="M273.9,567.22c2.28,2.75,2.93,3.74,4.44,6.67-.4,1.31-1.04,2.6-2.11,3.6-2.47,2.32-4.46,5.07-6.81,7.49-2.41,2.5-4.83,4.99-7.3,7.44-1.37,1.37-3.06,2.35-4.64,3.44-1.58,1.1-3.25,2.07-4.89,3.08-.32,.2-.69,.33-1.05,.48-.21,.09-.66-.07-.74-.3-.23-.63-.51-1.25-.64-1.9-.32-1.61-.52-3.24-.86-4.84-.46-2.11-.25-4.23-.12-6.34,.09-1.51,.82-2.76,1.82-3.85,2.63-2.86,3.82-3.83,7.08-5.87,.41-.25,.8-.53,1.19-.81,1.17-.85,2.35-1.68,3.48-2.58,1.15-.91,2.73-.96,3.81-1.99,1.34-.37,2.4-1.23,3.48-2.03,1.19-.89,2.49-1.39,3.86-1.7Z"/>
      <path d="M148.59,616.13s-.17,.17-.32,.29c-1.08,.92-2.37,1.36-3.74,1.26-1.35-.1-2.67,.26-4.03,.1-.74-.09-1.54,.11-2.27,.3-1.51,.4-3.04,.5-4.58,.52-2.13,.03-4.23,.22-6.29,.79-.74,.2-1.52,.3-2.28,.31-.78,0-1.51,.07-2.27,.29-.72,.21-1.52,.19-2.29,.21-1.64,.05-3.27,.15-4.85,.7-.54,.18-1.13,.22-1.7,.29-.57,.06-1.16,.09-1.73,.09-3.09,0-6.15,.36-9.2,.73-3.34,.41-6.69,.71-10.07,.61-.77-.02-1.55,.02-2.3,.14-1.45,.22-2.9,.21-4.32-.01-1.54-.24-3.07,.04-4.6-.05-1.55-.09-3.07,.08-4.61,.21-2.39,.2-4.79,.42-7.19-.03-.37-.07-.79-.07-1.14,.04-1.63,.51-3.25,.21-4.88,.07-.48-.04-.97-.29-1.42-.22-2.03,.3-4.04-.25-6.07-.11-.48,.03-.96-.04-1.44-.09-.72-.08-1.2-.54-1.35-1.29-.06-.28-.07-.57-.09-.86-.02-.32,.17-.62,.42-.64,.48-.02,.96-.04,1.44-.06,.77-.03,1.56,.04,2.3-.11,1.81-.37,3.64-.4,5.47-.52,.38-.02,.79,.04,1.15-.07,1.14-.35,2.24-.53,3.37,.03,.24,.12,.57,.1,.85,.08,2.79-.12,5.58-.3,8.36-.35,2.03-.04,4.03-.25,6.04-.45,1.24-.12,2.5,0,3.75,0,.39,0,.81,.13,1.15,0,1.59-.59,3.24-.34,4.87-.37,1.73-.04,3.46,.02,5.16-.47,.63-.18,1.34-.14,2.01-.1,1.85,.12,3.66,.01,5.44-.52,1.31-.39,2.66-.51,4.01-.43,2.42,.14,4.82-.2,7.21-.42,2.1-.2,4.23-.25,6.3-.76,.56-.14,1.17-.11,1.69-.31,1.02-.4,2.09-.37,3.13-.46,.76-.07,1.55,.19,2.29,.07,.74-.12,1.44-.47,2.22-.59,1.98-.31,3.94-.82,5.96-.81,.1,0,.22,.03,.29,0,1.03-.65,2.3-.23,3.36-.76,.17-.09,.37-.2,.54-.18,1.3,.12,2.45-.23,3.54-.92,.2-.13,.57-.07,.84,0,.39,.11,.74,.05,1.13-.01,1.37-.22,1.61-.03,1.55,1.17-.07,1.25-.07,2.51-.84,3.74Z"/>
      <path d="M151.45,586.1c0,.07,.01,.46-.06,.84-.62,3.43-.45,6.93-.95,10.38-.06,.38-.08,.77-.06,1.16,.14,2.81-.41,5.58-.6,8.37-.02,.28-.1,.57-.19,.84-.12,.4-.4,.67-.81,.73-1.05,.16-2.1,.36-3.15,.41-1.56,.08-3.05,.43-4.55,.81-2.62,.66-5.28,1.17-7.97,1.44-.38,.04-.77,0-1.15-.01-.26,0-.58-.32-.57-.54,0-.19-.01-.39,.02-.58,.66-3.52,.87-7.08,.85-10.65-.02-2.43,.44-4.81,.88-7.18,.2-1.06,.71-1.95,1.48-2.75,1.3-1.35,2.72-2.41,4.57-2.9,1.21-.33,2.35-.88,3.53-1.28,1.28-.43,2.56-.86,3.94-.86,.46,0,.94-.19,1.39-.35,.94-.33,1.89-.4,2.85-.2,.21,.04,.48,.36,.52,.58,.08,.47,.02,.96,.02,1.76Z"/>
      <path d="M272.63,564.73c-.61,.82-1.42,1.17-2.26,1.37-.96,.23-1.78,.69-2.61,1.2-2.06,1.26-4.17,2.43-6.2,3.73-1.62,1.04-3.17,2.2-4.73,3.33-1.72,1.24-3.44,2.49-5.13,3.77-.99,.76-1.99,1.54-2.87,2.43-.74,.75-1.35,1.63-1.93,2.52-.64,.98-.97,2.1-.98,3.29-.01,1.64-.02,3.28,.03,4.92,.02,.67,.2,1.33,.34,1.99,.51,2.55,1.04,5.1,1.55,7.66,.1,.49-.12,.97-.58,1.21-.85,.46-1.7,.9-2.56,1.33-.26,.13-.86-.08-1.02-.35-.19-.33-.39-.67-.53-1.02-.73-1.78-1.3-3.62-1.77-5.49-.33-1.31-.66-2.62-.98-3.93-.07-.28-.11-.57-.13-.85-.1-1.44-.21-2.88-.26-4.33-.05-1.45,.1-2.89,.62-4.27,.2-.54,.4-1.09,.55-1.65,.51-1.94,1.6-3.44,3.21-4.66,1.15-.87,2.27-1.77,3.53-2.5,1.16-.68,2.31-1.41,3.37-2.24,2.04-1.61,4.37-2.81,6.29-4.59,1.7-.92,3.18-2.18,4.82-3.18,1.63-.99,3.27-2.02,5.2-2.42,.34-.07,.64-.39,.94-.61,.47-.33,.92-.69,1.39-1.02,.18-.13,.64,.02,.75,.24,.7,1.37,1.38,2.74,1.92,4.13Z"/>
      <path d="M128.14,611.52c-1.33,.23-2.45,.48-3.59,.62-1.87,.23-2.19,.31-2.09-1.87,.08-1.73,.03-3.47,.11-5.21,.05-1.25,.02-2.51,.33-3.74,.09-.37,.18-.79,.1-1.15-.28-1.29,.11-2.49,.37-3.71,.24-1.13,.54-2.26,.65-3.41,.13-1.36,.56-2.64,.91-3.93,.9-3.29,3-5.57,6.02-6.99,1.65-.77,3.22-1.77,5.08-2.03,2.72-1.27,5.67-1.89,8.47-2.9,2.21-.8,4.5-1,6.82-.98,.23,0,.53,.33,.53,.59,0,.67,0,1.35,0,2.02,0,1.7-.13,1.93-1.88,2.34-1.4,.33-2.84,.55-4.27,.71-1.16,.13-2.29,.32-3.38,.73-2.08,.78-4.15,1.57-6.22,2.36-1.19,.46-2.16,1.25-3.1,2.1-1.73,1.57-2.56,3.61-2.9,5.84-.32,2.09-.63,4.19-.57,6.33,.11,3.48-.37,6.93-.88,10.37-.08,.56-.29,1.11-.5,1.91Z"/>
      <path d="M52.89,218.19c.02,1.01-.09,1.86-.47,2.67-.53,1.13-1.03,2.28-1.54,3.42-.64,1.4-1.26,2.79-1.69,4.29-.55,1.93-1.94,3.05-3.96,3.31-.39,.05-.77-.03-1.07-.3-.93-.84-1.88-1.67-2.48-2.79-.73-1.35-1.71-2.56-2.26-4.03-.2-.53-.52-1.03-.86-1.5-1.16-1.59-1.74-3.42-2.33-5.26-.33-1.05-.28-2.1,.04-3.13,.31-1.01,.62-2.04,1.09-2.98,.94-1.89,1.95-3.76,3.02-5.59,.48-.82,1.15-1.53,1.75-2.28,.21-.26,.77-.26,1.06-.04,.23,.17,.47,.34,.67,.54,.27,.27,.53,.56,.76,.87,2.35,3.05,4.69,6.11,7.03,9.17,.85,1.11,1.33,2.34,1.23,3.63Zm-9.62-7.77c-.4,.01-.75,.13-.99,.48-1.06,1.55-1.41,3.36-1.86,5.13-.05,.18-.03,.38-.02,.57,.12,2.36,.71,4.55,2.2,6.45,.53,.68,1,1.41,1.52,2.1,.29,.4,1.27,.37,1.56-.03,.11-.15,.25-.3,.33-.47,1.26-2.51,2.2-5.13,2.91-7.84,.16-.6,.01-1.2-.37-1.63-1.42-1.57-2.85-3.13-4.47-4.51-.07-.06-.17-.1-.26-.12-.18-.05-.37-.09-.56-.14Z"/>
      <path d="M153.2,192.52c-.05,.23-.09,.71-.26,1.16-.26,.72-.56,1.44-.92,2.12-1.57,2.98-3.17,5.95-4.77,8.92-.27,.51-.59,.99-.92,1.46-.24,.33-.64,.5-1.02,.42-1.36-.27-2.46-.86-3.29-2.1-1.84-2.74-3.26-5.68-4.49-8.72-.37-.91-.52-1.85-.58-2.82-.05-.78,0-1.54,.3-2.27,.73-1.78,1.33-3.61,2.27-5.31,.56-1.01,1-2.09,1.55-3.1,.79-1.43,1.61-2.85,2.47-4.24,.47-.76,.95-.72,1.52,.11,.49,.71,1,1.43,1.42,2.18,.71,1.26,1.56,2.43,2.46,3.56,1.49,1.9,2.79,3.92,3.78,6.14,.32,.72,.48,1.46,.49,2.49Zm-12.3,1.42c-.01,2.19,.49,3.67,1.86,4.81,.43,.36,.76,.85,1.12,1.29,.54,.65,1.39,.71,1.99,.11,.27-.27,.56-.54,.76-.86,1.16-1.88,2.35-3.74,3.07-5.84,.52-1.51,.84-1.66-.43-3.43-.5-.7-.99-1.42-1.39-2.18-.84-1.59-2.29-2.56-3.62-3.64-.41-.33-1.29-.11-1.5,.38-.22,.52-.45,1.06-.55,1.62-.36,1.98-.58,3.98-1.11,5.94-.2,.73-.18,1.52-.21,1.81Z"/>
      <path d="M240.63,214.55c.09,.13,.27,.36,.43,.6,1.63,2.51,3.49,4.83,5.31,7.2,.59,.76,1.12,1.57,1.72,2.32,1.5,1.87,2.1,4.08,2.51,6.37,.1,.59,.04,1.15-.28,1.67-.61,.98-1.22,1.96-1.83,2.94-.51,.82-1.01,1.64-1.52,2.45-.51,.81-.98,1.63-1.81,2.21-.45,.31-.71,.89-1.08,1.33-.74,.88-2.01,.9-2.78,.04-.32-.36-.63-.73-.88-1.14-1.73-2.9-3.83-5.54-5.86-8.22-.35-.46-.69-.93-.98-1.43-.75-1.31-1.08-2.67-.4-4.13,.12-.26,.17-.55,.28-.82,1.51-3.54,3.1-7.05,5.47-10.13,.4-.52,.72-1.16,1.7-1.26Zm-4.05,12.6c.1,1.12,.05,2.09,.45,3,.79,1.79,2.09,3.22,3.26,4.73,.17,.21,.46,.35,.71,.48,.43,.22,.87,.41,1.31,.61,.49,.22,.99,.1,1.24-.36,1.15-2.11,2.32-4.21,3.41-6.36,.41-.81,.3-1.71-.29-2.46-.36-.45-.75-.88-1.16-1.28-1.03-1.01-2.07-2-3.12-3-.42-.4-.82-.81-1.26-1.18-.63-.54-1.45-.55-2.12-.03-.23,.18-.47,.36-.62,.59-1.13,1.63-1.55,3.5-1.81,5.26Z"/>
      <path d="M249.15,293.95c-.32-.11-.62-.15-.83-.31-.75-.61-1.52-1.2-2.17-1.91-2.01-2.21-3.97-4.47-5.95-6.72-.25-.29-.44-.63-.67-.94-.47-.66-.66-1.38-.58-2.19,.13-1.35,.41-2.68,.85-3.96,.53-1.55,1.08-3.09,1.96-4.5,.56-.9,.97-1.89,1.48-2.82,.61-1.09,1.29-2.15,2.21-3.03,.26-.25,.79-.28,1.06-.04,.29,.26,.59,.51,.84,.79,2.04,2.31,4.34,4.39,6.18,6.89,.17,.23,.38,.44,.57,.66q1.94,2.27,2.18,5.13c.03,.38,.1,.78,.06,1.15-.06,.47-.12,.98-.36,1.37-2.1,3.57-4.18,7.16-6.83,10.42Zm-6.29-14.42c-.02,.91,.14,1.94,.72,2.88,.56,.9,1.04,1.85,1.63,2.73,.54,.8,1.14,1.56,1.78,2.27,.8,.9,1.78,.81,2.39-.16,.25-.41,.52-.82,.69-1.26,.65-1.62,1.43-3.16,2.42-4.59,.33-.47,.59-1,.78-1.54,.26-.76,.19-1.51-.25-2.22-.47-.76-1.06-1.38-1.79-1.86-1.13-.74-2.24-1.5-3.22-2.44-.58-.56-1.56-.54-2.12-.02-1.76,1.64-2.87,3.61-3.04,6.22Z"/>
      <path d="M145.63,294.94c0-.34,0-.92,0-1.5,0-.79,.22-1.53,.57-2.22,1.69-3.36,3.57-6.6,6.24-9.31,.2-.2,.42-.44,.67-.53,.24-.08,.58-.06,.79,.06,.32,.19,.62,.48,.82,.79,.71,1.14,1.39,2.3,2.04,3.48,.46,.84,.83,1.74,1.28,2.58,.73,1.37,1.11,2.86,1.64,4.31,.55,1.51,.31,2.94-.42,4.17-1.76,2.98-3.7,5.85-5.58,8.75-.15,.24-.38,.43-.58,.64-.54,.57-1.55,.64-2.09,.11-.76-.73-1.46-1.52-1.97-2.47-.64-1.19-1.32-2.35-2.07-3.47-1.06-1.58-1.64-3.26-1.33-5.41Zm2.37-.04c.07,.42,.11,.9,.23,1.36,.52,2.05,1.79,3.6,3.37,4.92,.32,.27,.74,.23,1.1,.08,.54-.23,1.01-.58,1.32-1.09,.91-1.48,1.83-2.95,2.69-4.45,.33-.58,.48-1.26,.74-1.88,.29-.7,.14-1.35-.26-1.92-1.05-1.5-2.13-2.98-3.22-4.45-.86-1.17-1.6-1.23-2.58-.19-.39,.42-.76,.88-1.04,1.37-.43,.75-.74,1.58-1.19,2.31-.73,1.2-.8,2.56-1.16,3.93Z"/>
      <path d="M142.14,243.87c-1.25,.56-2.3,1.04-3.35,1.51-.22,.1-.59-.15-.64-.39-.17-.97-.08-1.92,.22-2.85,.21-.64,.42-1.28,.65-1.92,.57-1.53,1.13-3.07,1.76-4.58,.9-2.15,2.29-4.01,3.74-5.82,.15-.19,.49-.22,.78-.34,1.45,1.59,2.97,3.06,4.19,4.81,1.04,1.5,2.25,2.88,3.37,4.33,.47,.61,.89,1.26,1.34,1.88,1.02,1.39,.94,2.9,.42,4.41-.25,.72-.64,1.4-1.04,2.06-1.45,2.39-2.92,4.76-4.39,7.14-.15,.25-.31,.49-.48,.72-.37,.52-.86,.76-1.18,.58-.4-.22-.42-.62-.42-.99,0-.58,.02-1.16,.06-1.73,.07-1.15-.04-2.36,.28-3.44,.32-1.08,1.06-2.04,1.66-3.03,.8-1.33,1.4-2.74,1.96-4.18,.26-.67,.26-1.33-.06-1.96-.35-.69-.7-1.38-1.13-2.01-.7-1.04-1.45-2.04-2.19-3.05-.24-.33-.61-.46-1-.5-1.45-.13-3,.77-3.44,2.1-.27,.82-.41,1.68-.53,2.54-.21,1.52-.2,3.07-.6,4.71Z"/>
      <path d="M132.05,136.48c.8,.24,1.54,.44,2.27,.67,.37,.12,.6,.55,.53,.91-.18,.95-.39,1.89-.56,2.84-.12,.66-.21,1.33-.29,2-.15,1.19,.09,2.3,.68,3.34,.29,.5,.59,.99,.9,1.48,.66,1.07,1.75,1.46,2.88,1.73,.38,.09,.77-.16,1-.48,.86-1.16,1.66-2.36,2.22-3.71,.62-1.51,1.32-3,1.99-4.49,.21-.46,.64-.62,1.21-.48,1.69,.42,2.34,1.72,1.57,3.28-1.83,3.72-3.48,7.52-5.25,11.26-.12,.26-.24,.53-.37,.78-.75,1.47-1.13,1.67-2.56,.3-.48-.46-.87-1.04-1.2-1.61-.59-1.01-1.3-1.9-2.15-2.71-1.76-1.68-3.06-3.72-4.35-5.75-.32-.49-.49-1.05-.49-1.64-.01-.96-.07-1.92,.22-2.87,.39-1.29,.68-2.61,1.08-3.9,.1-.34,.42-.6,.68-.96Z"/>
      <path d="M77.93,241.3c-.03,.2-.03,.61-.17,.95-.87,2.16-1.95,4.2-3.44,6-.33,.4-.86,.56-1.29,.38-.71-.3-1.47-.51-2.02-1.08-.11-.11-.19-.38-.14-.5,.24-.52,.49-1.05,.82-1.52,.81-1.2,1.68-2.36,2.5-3.55,.33-.47,.66-.95,.93-1.46,.59-1.1,.61-2.23-.07-3.3-.41-.65-.87-1.28-1.39-1.84-.65-.71-1.38-1.35-2.1-2-.78-.7-1.64-.58-2.24,.2-1.01,1.32-1.75,2.81-2.29,4.33-.51,1.42-.86,2.97-.52,4.54,.21,.94,.47,1.87,.69,2.81,.02,.07-.03,.21-.09,.24-.15,.09-.36,.23-.47,.18-1.14-.52-2.28-1.04-3.38-1.62-.74-.39-1.08-1.21-.83-1.96,.3-.91,.56-1.86,1.02-2.7,1.42-2.63,2.92-5.22,4.4-7.82,.43-.77,1.03-1.4,1.74-1.92,.35-.25,1.06-.21,1.34,.09,.13,.14,.28,.27,.38,.43,1.28,1.94,2.79,3.7,4.31,5.45,.7,.81,1.25,1.71,1.71,2.67,.43,.9,.52,1.85,.6,3Z"/>
      <path d="M104.85,254.11s-.19-.02-.38,0c-1.13,.11-2.09-.27-2.91-1.01-.57-.52-1.1-1.07-1.68-1.58-1.01-.88-2.17-.71-2.97,.42-.17,.24-.31,.49-.46,.74-.81,1.42-.83,1.53-2.8,1.18-.54-.1-.79-.52-.61-1.05,.53-1.55,1.06-3.09,1.62-4.63,.51-1.37,1.31-2.56,2.27-3.66,.52-.6,1.16-.99,1.88-1.29,.78-.32,1.29-.27,1.85,.27,.27,.27,.58,.53,.77,.85,1.7,2.91,3.63,5.67,5.53,8.45,.43,.63,.2,1.15-.49,1.21-.48,.04-.96,.06-1.64,.11Z"/>
      <path d="M236.06,172.06c-.08,.5-.22,1.26-.32,2.02-.33,2.4,.04,4.64,1.82,6.4,.88,.87,1.34,1.84,1.53,3.01,.14,.85,.34,1.69,.49,2.54,.06,.33-.48,.66-.81,.51-.34-.16-.73-.3-.99-.56-1.24-1.21-2.44-2.45-3.65-3.69-1.47-1.51-2.08-3.43-2.55-5.4-.06-.26-.02-.59,.06-.85,.77-2.4,1.83-4.64,3.34-6.67,.05-.06,.2-.13,.26-.1,.15,.07,.33,.17,.41,.3,.36,.7,.48,1.45,.43,2.5Z"/>
      <path d="M18.48,200.86c.25-.03,.35-.07,.44-.04,1,.3,1.72-.17,2.19-.94,.75-1.22,1.4-2.51,2.06-3.78,.31-.59,.54-1.23,.86-1.82,.74-1.38,1.86-2.43,3.15-3.28,.11-.07,.45-.01,.5,.08,.3,.59,.61,1.2,.79,1.83,.09,.33-.02,.77-.17,1.11-.83,1.84-1.69,3.65-2.54,5.48-.37,.78-.8,1.54-1.09,2.35-.4,1.13-1.05,2.02-2.07,2.66-.32,.2-.57,.54-.9,.69-.22,.1-.62,.07-.8-.07-1.28-1.04-2.4-2.21-2.42-4.25Z"/>
      <path d="M138.47,146.7c-.51,.02-.85-.12-1.11-.44-1.02-1.27-1.46-2.72-1.19-4.32,.14-.85,.43-1.68,.7-2.5,.43-1.34,.74-1.44,2.1-.93,.76,.28,1.31,.8,1.77,1.42,.3,.4,.43,.9,.26,1.37-.45,1.27-.91,2.54-1.46,3.77-.27,.6-.73,1.12-1.07,1.63Z"/>
      <path d="M102.9,216.52c-.97,1.72-1.85,3.53-3.52,4.79-.37,.28-.57,.77-.92,1.08-.17,.15-.53,.13-.8,.11-.17-.01-.35-.14-.51-.25-.95-.68-1.69-1.55-2.19-2.61-.18-.37-.06-.86,.31-.94,.95-.21,1.83-.54,2.53-1.25,1.51-.61,3-1.26,4.6-1.6,.16-.03,.41,.02,.51,.13,.08,.09,0,.33-.01,.54Z"/>
      <path d="M68.78,240.9c.2-1.65,.36-3.08,1.2-4.3,.22-.32,.68-.45,.97-.26,.89,.6,1.56,1.39,2.02,2.35,.11,.24,.18,.59,.08,.82-.71,1.68-1.74,3.14-3.01,4.44-.15,.15-.62-.01-.73-.22-.51-.97-.4-2.03-.54-2.83Z"/>
      <path d="M148.65,241.67c-.11,.39-.16,.68-.29,.92-.07,.14-.27,.23-.43,.32-.08,.04-.22,.08-.27,.04-.8-.61-1.77-.63-2.69-.85-.13-.03-.24-.28-.29-.45-.06-.18-.08-.38-.06-.56,.14-1.13,.3-2.27,.46-3.4,.04-.28,.38-.59,.58-.52,.17,.06,.39,.1,.49,.22,.69,.91,1.4,1.81,2.01,2.78,.29,.46,.35,1.06,.49,1.52Z"/>
      <path d="M217.42,587.75c.27,.07,.64,.13,.99,.27,.12,.05,.25,.36,.2,.46-.29,.59-.62,1.17-.97,1.72-.25,.4-.8,.47-1.26,.23-.56-.29-.83-.76-.88-1.37-.04-.54,.46-1.18,.96-1.24,.28-.04,.57-.05,.96-.08Z"/>
      <path d="M44.31,232.99s.07,.14,.08,.14c.19-.05,.19-.13,.01-.21l-.09,.07Z"/>
      <path d="M44.39,232.92q-.62-.17-.55-.79s-.04,.06-.03,.04c.17,.26,.32,.54,.48,.82,0,0,.09-.07,.09-.07Z"/>
      <path d="M227.99,316.9c-1.39,.22-2.76-.63-3.84-2.19-1.31-1.9-2.65-3.78-4.03-5.63-.79-1.06-.82-2.07-.2-3.21,.59-1.1,1.05-2.27,1.63-3.38,.98-1.87,2-3.72,3.01-5.58,.41-.77,.91-1.47,1.55-2.07,.41-.38,1.13-.44,1.59-.07,.37,.3,.76,.59,1.08,.95,2.05,2.29,4.08,4.6,6.12,6.91,.06,.07,.11,.16,.18,.23,1.16,1.28,1.25,2.76,.76,4.32-.37,1.19-.78,2.37-1.42,3.46-.49,.82-.86,1.72-1.29,2.58-.43,.86-.88,1.71-1.31,2.57-.38,.76-.96,1.17-1.84,1.13-.48-.02-.96,0-1.99,0Zm-4.18-9.29c-.36,1.11,.51,2.17,1.3,3.28,.5,.7,1.27,1.13,1.72,1.92,.6,1.04,1.92,.9,2.54-.16,.48-.83,.93-1.68,1.41-2.51,.63-1.08,1.3-2.13,1.91-3.22,.18-.32,.36-.73,.32-1.07-.11-1.17-.48-2.29-1.42-3.05-1.27-1.02-2.52-2.06-3.65-3.25-.12-.13-.33-.21-.51-.24-.17-.03-.41-.01-.54,.09-.3,.23-.64,.47-.81,.79-.57,1.11-1.08,2.25-1.6,3.38-.52,1.16-.71,2.39-.69,4.05Z"/>
      <path d="M176.55,315.89c-.28-.04-.59-.02-.84-.13-.24-.11-.54-.3-.62-.53-.64-1.88-.71-3.72,.52-5.42,.12-.17,.64-.26,.78-.14,.14,.12,.31,.22,.42,.37,.34,.45,.64,.95,1.01,1.38,.66,.78,.85,1.69,.78,2.66-.09,1.22-.8,1.95-2.05,1.8Z"/>
      <path d="M249.39,318.38c-.39-.05-.86-.1-1.32-.16-.59-.08-.84-.28-.8-.58,.05-.41,.3-.69,.6-.89,1.25-.81,2.33-.51,3,.85,.11,.23-.05,.6-.3,.63-.37,.05-.74,.09-1.19,.15Z"/>
      <path d="M202.22,315.62c-.31,.13-.53,.26-.76,.29-.15,.02-.37-.06-.48-.17-.07-.08-.05-.32,.01-.44,.14-.23,.38-.44,.64-.31,.21,.1,.34,.36,.57,.63Z"/>
      <path d="M197.76,127.07c-.07,.28-.09,.57-.21,.83-.84,1.84-1.69,3.67-2.55,5.49-.2,.44-.46,.85-.66,1.28-.45,.96-.62,2.08-1.38,2.84-1.01,1.02-2.15,1.9-3.27,2.81-.39,.32-.88,.33-1.37,.17-.67-.21-1.23-.59-1.63-1.14-2.62-3.59-4.98-7.33-5.87-11.79-.07-.37-.09-.77-.02-1.13,.13-.66,.26-1.33,.53-1.94,1.28-2.9,2.5-5.83,4.1-8.58,.42-.73,.95-1.17,1.79-1.28,.57-.08,1.13-.22,1.7-.35,.85-.2,1.5,.03,1.96,.81,.73,1.25,1.47,2.49,2.23,3.71,.66,1.06,1.38,2.08,2.07,3.12,.9,1.37,1.73,2.77,2.3,4.32,.1,.27,.18,.54,.27,.83Zm-11.61,.21c-.18,1.56,.37,3.11,1.11,4.56,.4,.79,.68,1.54,.76,2.42,.05,.56,.88,.78,1.39,.45,.5-.32,.89-.73,1.16-1.25,.81-1.53,1.64-3.04,2.37-4.61,.44-.95,.77-1.97,1.03-2.99,.11-.43,0-.96-.15-1.39-.15-.44-.43-.87-.75-1.21-1.05-1.12-2.14-2.2-3.23-3.28-.13-.13-.33-.2-.49-.29-.28-.16-.87-.1-1.08,.13-.25,.28-.57,.56-.7,.89-.77,2.07-1.49,4.16-1.42,6.56Z"/>
      <path d="M212.02,135.18c.46,.31,.91,.53,1.23,.86,.54,.54,1.04,1.14,1.51,1.76,1.94,2.52,3.86,5.05,5.79,7.58,.12,.15,.23,.31,.35,.46,1.68,2.1,1.78,4.4,.82,6.8-.54,1.34-1.12,2.66-1.77,3.95-.53,1.04-.97,2.1-1.25,3.23-.49,2-1.81,3.11-3.75,3.58-.49,.12-.99,.09-1.36-.26-.91-.86-1.85-1.7-2.48-2.8-.76-1.34-1.51-2.68-2.27-4.03-.28-.5-.52-1.04-.86-1.5-1.29-1.75-1.89-3.78-2.46-5.82-.15-.53-.13-1.16-.02-1.71,.31-1.51,.84-2.96,1.54-4.34,.57-1.11,1.18-2.21,1.76-3.32,.63-1.2,1.26-2.39,2.15-3.42,.3-.35,.69-.64,1.08-1Zm-2.15,13.19c-.03,2.1,.61,3.98,1.83,5.69,.61,.86,1.2,1.74,1.81,2.6,.3,.42,1.26,.46,1.54,.03,.37-.56,.76-1.12,1.01-1.74,.83-2.05,1.63-4.12,2.24-6.25,.25-.87,.08-1.57-.44-2.14-1.3-1.42-2.69-2.76-4.06-4.11-.2-.19-.49-.3-.74-.42-.37-.17-1.1,.03-1.31,.34-1.09,1.64-1.55,3.5-1.86,5.42-.03,.19,0,.38,0,.58Z"/>
      <path d="M208.7,203.92c.14-.59,.2-1.17,.41-1.7,.84-2.15,1.5-4.37,2.54-6.44,.69-1.38,1.24-2.82,1.89-4.22,.65-1.4,1.39-2.75,2.47-3.88,.36-.37,.9-.39,1.28-.02,.41,.41,.82,.81,1.19,1.25,1.8,2.14,3.58,4.28,5.36,6.43,.31,.37,.63,.73,.9,1.13,.59,.88,1.12,1.8,1.3,2.87-.38,1.18-.24,2.5-.91,3.61-.1,.17-.18,.34-.27,.51-1.25,2.17-2.42,4.38-3.43,6.68-.66,1.52-1.61,2.84-2.86,3.95-.54,.48-1.25,.52-1.85,.06-2.14-1.66-4.16-3.45-5.8-5.62-.69-.92-1.24-1.95-1.77-2.97-.26-.5-.32-1.1-.47-1.65Zm4.44-2.21c.12,.46,.14,.98,.38,1.37,.8,1.31,1.65,2.59,2.54,3.84,.2,.28,.61,.43,.95,.6,.29,.14,.94-.04,1.04-.28,.68-1.61,1.67-3.02,2.71-4.41,.4-.53,.65-1.18,.98-1.76,.4-.7,.5-1.47,.39-2.23-.1-.66-.29-1.31-.52-1.94-.67-1.84-2.05-3.23-3.1-4.83-.16-.25-.81-.34-1.07-.15-.37,.29-.8,.57-1.06,.95-.9,1.37-1.55,2.87-2.25,4.34-.68,1.45-.68,2.98-1.01,4.5Z"/>
      <path d="M195.26,244.11c-1.13-.59-1.87-1.49-2.63-2.36-.95-1.09-1.86-2.21-2.77-3.33-1.28-1.57-2.36-3.27-3.24-5.11-.35-.73-.46-1.46-.31-2.24,.23-1.13,.53-2.24,1.07-3.28,.89-1.71,1.74-3.43,2.64-5.13,.77-1.45,1.68-2.81,2.87-3.96,.25-.24,.84-.23,1.03,.05,.75,1.12,1.62,2.14,2.48,3.17,.86,1.04,1.77,2.03,2.69,3,1.07,1.12,1.88,2.41,2.64,3.77,.86,1.55,.92,3.11,.32,4.71-.41,1.08-.86,2.14-1.38,3.17-.78,1.55-1.63,3.06-2.46,4.58-.7,1.29-1.65,2.33-2.97,2.97Zm3.54-11.71c-.09-2.01-.55-3.6-2.19-4.67-.47-.31-.85-.77-1.22-1.21-.68-.81-1.3-1.66-1.63-2.7-.25-.78-1.14-.78-1.65-.3-.27,.26-.52,.59-.67,.93-.44,.96-.86,1.94-1.23,2.93-1.2,3.19-.27,6.05,1.44,8.77,.15,.24,.37,.45,.6,.61,.86,.62,1.72,1.23,2.62,1.79,.19,.12,.59,.06,.81-.06,.32-.18,.67-.44,.84-.75,.65-1.18,1.22-2.4,1.85-3.6,.32-.62,.51-1.24,.42-1.74Z"/>
      <path d="M214.13,257.85c.13-.89,.41-2.11,.89-3.27,.73-1.78,1.48-3.55,2.28-5.3,.87-1.93,1.8-3.83,2.72-5.74,.25-.52,.49-1.06,.82-1.52,.33-.46,.77-.85,1.19-1.24,.27-.25,.86-.2,1.03,.09,.83,1.41,1.91,2.63,2.73,4.06,1.34,2.33,2.89,4.54,4.31,6.82,.46,.73,.86,1.5,1.19,2.3,.85,2.1,.95,1.88-.17,4.35-.35,.78-.85,1.52-1.36,2.21-1.72,2.31-3.48,4.6-5.23,6.89-.17,.23-.38,.43-.58,.64-.46,.48-1.11,.53-1.52,.09-.6-.63-1.21-1.24-1.75-1.92-1.21-1.51-2.63-2.8-4.03-4.12-.69-.66-1.33-1.38-1.95-2.11-.45-.53-.6-1.19-.57-2.24Zm5.49-2.6s.07,.01,.1,.02c-.03,.19-.04,.39-.09,.57-.33,1.21,.03,2.28,.64,3.31,.5,.83,.97,1.66,1.49,2.48,.21,.34,.59,.48,.99,.5,.61,.03,1.18-.09,1.52-.64,1.14-1.79,2.26-3.59,3.36-5.41,.25-.41,.4-.87,.57-1.32,.17-.47,.16-.96-.04-1.41-.2-.44-.42-.86-.68-1.27-.67-1.06-1.36-2.1-2.06-3.15-.32-.48-.64-.96-.99-1.43-.56-.76-1.71-.8-2.24-.08-.99,1.33-1.8,2.74-2.06,4.41-.18,1.14-.34,2.28-.52,3.42Z"/>
      <path d="M168.65,223.11c-1.25-.77-4.05-2.86-4.57-3.52-.6-.75-1.13-1.56-1.65-2.36-.37-.56-.63-1.2-1.04-1.73-1.22-1.56-1.49-3.33-1.1-5.18,.47-2.26,1.06-4.49,1.62-6.73,.12-.47,.25-.93,.44-1.37,.6-1.42,1.06-2.89,1.35-4.41,.17-.86,.56-1.63,1.04-2.36,.27-.42,.64-.71,1.06-.95,.26-.15,.55-.2,.8,0,1.09,.81,2.04,1.8,2.71,2.97,1.24,2.18,2.78,4.16,4.23,6.19,.9,1.27,1.48,2.69,1.97,4.15,.16,.47,.19,.94,.05,1.42-.2,.64-.32,1.33-.65,1.9-1.77,3.09-3.07,6.42-4.71,9.58-.44,.86-.84,1.72-1.53,2.4Zm-5.09-14.24c0,1.04-.01,1.91,0,2.77,.01,.59,.19,1.16,.56,1.61,.97,1.2,1.99,2.35,3.24,3.26,.45,.33,1.2,.13,1.49-.4,.18-.34,.37-.68,.52-1.03,.79-1.87,1.65-3.69,2.82-5.35,.64-.9,.78-1.95,.77-3.03-.01-.81-.24-1.51-.87-2.06-1.38-1.2-2.75-2.41-4.11-3.63-1.11-1-1.63-1-2.54,.3-.33,.47-.57,1-.8,1.53-.86,1.98-1.19,4.06-1.09,6.03Z"/>
      <path d="M179.62,263.09c-.64,1.96-1.53,3.68-2.42,5.38-.58,1.11-1.24,2.18-1.79,3.3-.44,.88-1.06,1.61-1.7,2.32-.54,.61-1.34,.68-2.11,.29-.79-.4-1.43-.97-2.03-1.6-1.95-2.03-3.48-4.37-4.81-6.83-.55-1.02-1-2.08-1.47-3.14-.44-1-.52-2.04-.17-3.1,.4-1.19,.71-2.41,1.21-3.55,.46-1.05,1.06-2.07,1.73-3,1.52-2.11,3.13-4.15,4.71-6.22,.11-.15,.3-.23,.45-.35,.18-.13,.35-.1,.5,.09,.06,.07,.14,.14,.18,.22,1.13,2.57,2.59,4.95,4.19,7.24,1.86,2.66,2.99,5.59,3.53,8.94Zm-12.92-1.93c.18,1.67,.47,3.37,1.14,4.97,.18,.42,.52,.83,.88,1.11,.52,.41,1.12,.73,1.72,1.03,.35,.17,.77,.15,1.09-.1,.45-.35,.96-.68,1.28-1.14,1.26-1.81,2.43-3.68,3.26-5.74,.19-.48,.21-.94-.07-1.37-1.13-1.78-2.23-3.58-3.42-5.31-.36-.53-.95-.93-1.49-1.32-.65-.47-1.31-.32-1.73,.33-.79,1.21-1.46,2.47-1.97,3.82-.44,1.18-.61,2.41-.7,3.72Z"/>
      <path d="M190.17,282.31c.16-.71,.28-1.37,.46-2.01,.1-.37,.3-.71,.48-1.05,1.17-2.22,2.37-4.41,3.5-6.65,.66-1.31,1.57-2.42,2.48-3.55,.42-.52,1.04-.5,1.42,.11,1.18,1.89,2.65,3.56,4.11,5.22,.96,1.09,1.79,2.27,2.57,3.48,.79,1.21,1.55,2.44,2.29,3.68,.29,.49,.53,1.03,.72,1.57,.23,.65,.22,1.34-.05,1.99-1.06,2.49-2.26,4.91-4.02,7-.24,.28-.57,.64-.89,.68-.88,.1-1.33,.68-1.83,1.28-.3,.37-.65,.7-1.02,1-.45,.36-1.23,.31-1.62-.05-.28-.26-.56-.53-.81-.82-1.92-2.29-3.83-4.6-5.74-6.89-.62-.75-1.17-1.55-1.45-2.48-.24-.82-.4-1.67-.6-2.5Zm7.5-7.05c-.71,0-1.15,.25-1.37,.68-.39,.77-.72,1.57-1.01,2.38-.6,1.68-.67,3.38,.02,5.07,.25,.62,.49,1.26,.67,1.9,.51,1.8,1.59,3.27,2.73,4.7,.31,.38,1.21,.39,1.59,.02,.14-.13,.3-.25,.4-.41,1-1.53,2-3.06,2.97-4.6,.2-.32,.36-.68,.47-1.04,.28-.98,.17-1.87-.58-2.67-1.72-1.81-3.38-3.68-5.09-5.5-.25-.26-.61-.42-.79-.54Z"/>
      <path d="M201.46,178.66c-.06,.3-.07,.6-.17,.86-.13,.36-.3,.71-.48,1.05-.99,1.77-1.91,3.57-2.66,5.45-.94,2.34-2.65,3.96-4.84,5.12-.26,.14-.52,.25-.78,.38-.39,.2-.77,.12-1.09-.11-.94-.69-1.73-1.55-2.36-2.53-1.05-1.62-2.06-3.27-3.02-4.94-.96-1.69-1.47-3.56-1.9-5.45-.08-.36-.04-.78,.05-1.13,.18-.65,.38-1.31,.68-1.9,1.63-3.18,3.57-6.18,5.49-9.19,.21-.32,.49-.59,.75-.88,.34-.39,.89-.39,1.26-.01,.07,.07,.13,.14,.19,.22,2.21,2.68,4.43,5.35,6.42,8.2,.82,1.18,1.44,2.5,2.12,3.78,.18,.33,.23,.73,.34,1.09Zm-3.65-1.89c-.9-2.18-2.43-3.81-3.68-5.62-.76-1.09-2.1-1.01-2.92,.08-.06,.08-.13,.15-.18,.23-1.31,2.08-2.15,4.31-2.08,6.81,.02,.58,.07,1.16,.05,1.74-.03,1.14,.34,2.08,1.25,2.78,.62,.48,1.11,1.05,1.56,1.69,.41,.57,1.32,.58,1.78,.05,.31-.36,.62-.74,.86-1.15,.92-1.58,1.67-3.26,2.68-4.79,.36-.55,.48-1.24,.69-1.8Z"/>
      <path d="M164.97,170.93c-1.03-.21-1.76-.82-2.43-1.52-1-1.04-2.04-2.05-2.98-3.14-1.73-2.01-3-4.25-2.87-7.03,.03-.57,.14-1.14,.31-1.68,.26-.83,.57-1.64,.91-2.43,1.07-2.48,1.99-5.01,2.87-7.56,.37-1.08,.93-2.11,1.46-3.13,.34-.66,.93-.72,1.38-.22,.13,.14,.25,.29,.37,.44,.36,.45,.73,.89,1.06,1.36,.84,1.17,1.67,2.35,2.5,3.54,.77,1.11,1.64,2.12,2.64,3.05,.77,.72,1.44,1.55,2.08,2.39,.7,.9,.8,1.94,.44,3.02-.06,.18-.12,.37-.21,.54-1.28,2.7-2.53,5.41-3.86,8.08-.42,.86-1.04,1.62-1.57,2.42-.54,.82-1.28,1.42-2.11,1.88Zm-4.73-14.27c.04,2.33,.64,4.34,1.84,6.14,.48,.73,1.14,1.29,1.9,1.73,.5,.29,1.51,.19,1.9-.24,.39-.42,.79-.85,1.07-1.35,.92-1.68,1.8-3.39,2.68-5.1,.37-.72,.37-1.45,.08-2.23-.34-.92-.78-1.73-1.52-2.4-1.21-1.09-2.51-2.1-3.52-3.39-.06-.07-.15-.11-.23-.17-.61-.5-1.69-.34-1.99,.38-.7,1.68-1.36,3.38-1.98,5.09-.19,.53-.18,1.13-.23,1.54Z"/>
      <path d="M114.88,220.75c0-1.09,.14-1.84,.6-2.5,1.54-2.21,3.07-4.42,4.61-6.63,.22-.31,.47-.61,.73-.89,1.12-1.18,1.52-1.54,2.9,.06,2.75,3.17,4.55,6.88,6.41,10.57,.41,.81,.45,1.69,.23,2.53-.19,.74-.48,1.46-.83,2.14-.96,1.88-1.97,3.74-2.95,5.61-.37,.71-.86,1.23-1.64,1.52-.42,.16-.73,.61-1.14,.84-.21,.12-.62,.14-.79,.01-.68-.53-1.37-1.07-1.92-1.73-.74-.88-1.41-1.82-2.02-2.8-.97-1.55-1.89-3.13-2.77-4.73-.46-.84-.83-1.73-1.16-2.63-.19-.53-.22-1.12-.27-1.39Zm4.23,.54c0,1.47,.49,3.12,1.19,4.7,.22,.5,.76,.85,1.1,1.32,.38,.53,.68,1.13,1.04,1.68,.17,.26,.77,.28,1.06,.13,.55-.29,.84-.79,1.11-1.29,1.01-1.96,2-3.93,2.98-5.9,.13-.26,.2-.54,.3-.81,.22-.57,.16-1.16-.1-1.68-1.05-2.05-2.23-4.01-3.91-5.63-.49-.47-1.29-.42-1.79,.15-1.74,2.02-2.77,4.35-2.96,7.33Z"/>
      <path d="M42.58,216.5c0-.8,.16-1.64,.62-2.39,.07-.11,.33-.12,.5-.14,.08-.01,.2,.04,.26,.1,.75,.73,1.52,1.44,2.21,2.23,.22,.25,.35,.74,.28,1.06-.29,1.3-.5,2.63-1.25,3.79-.2,.32-.75,.43-.98,.18-.13-.14-.28-.26-.4-.41-.99-1.28-1.18-2.79-1.25-4.41Z"/>
      <path d="M142.81,194.33c.03-.34,.03-.64,.09-.92,.35-1.69,.71-3.39,1.1-5.07,.03-.14,.23-.3,.38-.33,.16-.04,.39,0,.53,.1,.23,.17,.45,.38,.59,.62,.59,.99,1.17,1.99,1.73,2.99,.29,.53,.36,1.1,.14,1.67-.46,1.16-.82,2.36-1.56,3.39-.54,.76-.9,.88-1.62,.24-.82-.73-1.35-1.62-1.37-2.7Z"/>
      <path d="M240.37,224.02c.23,.15,.55,.25,.7,.46,.72,1.05,1.67,1.85,2.63,2.66,.36,.3,.64,.71,.93,1.1,.1,.14,.2,.4,.14,.54-.64,1.5-1.21,3.04-2.25,4.34-.17,.21-.52,.21-.75,0-.07-.07-.17-.11-.23-.18-.65-.83-1.32-1.66-1.94-2.52-.52-.72-.76-1.54-.86-2.43-.08-.69-.08-1.35,.2-1.98,.27-.61,.55-1.22,.88-1.81,.06-.12,.34-.12,.54-.18Z"/>
      <path d="M246.87,276.03c1.28,.76,2.6,1.53,3.71,2.6,.27,.26,.4,.75,.24,1.05-.8,1.53-1.6,3.05-2.41,4.57-.11,.21-.57,.24-.74,.08-1.13-1.09-1.73-2.52-2.42-3.88-.37-.73-.22-1.54,.1-2.24,.35-.77,.7-1.59,1.51-2.17Z"/>
      <path d="M152.34,290.14c.25,.13,.56,.21,.74,.41,.56,.65,1.11,1.32,1.59,2.03,.6,.88,.55,1.82,.02,2.72-.49,.83-1,1.64-1.51,2.45-.48,.76-1.07,.82-1.6,.17-1.16-1.44-1.62-3.02-.99-4.84,.38-1.09,.72-2.2,1.74-2.94Z"/>
      <path d="M225.73,307.26c-.07-1.63,.48-2.92,1.22-4.16,.12-.2,.55-.28,.77-.11,.76,.56,1.54,1.11,2.25,1.73,.58,.51,.65,1.4,.36,2.11-.47,1.17-1.31,2.09-2.04,3.08-.19,.26-.8,.3-1.05,.09-.87-.77-1.72-1.55-1.52-2.73Z"/>
      <path d="M188.11,126.49c.14-.69,.38-1.91,.63-3.13,.05-.23,.52-.33,.73-.2,.85,.52,1.41,1.3,1.85,2.16,.16,.31,.2,.78,.1,1.11-.43,1.37-.85,2.76-1.72,3.94-.15,.2-.6,.17-.72-.06-.55-1.02-1-2.08-.87-3.83Z"/>
      <path d="M212.04,147.8c.1-.5,.22-1.16,.35-1.81,.07-.34,.63-.61,.9-.42,.93,.67,1.73,1.47,2.38,2.4,.19,.27,.21,.74,.15,1.1-.13,.75-.3,1.5-.58,2.2-.26,.65-.27,1.7-1.23,1.67-.86-.02-1.07-.99-1.41-1.64-.54-1.04-.44-2.22-.57-3.51Z"/>
      <path d="M215.4,200.74c.25-1.86,.81-3.57,1.81-5.13,.11-.18,.59-.21,.77-.03,.33,.34,.75,.64,.95,1.05,.35,.68,.59,1.41,.81,2.14,.2,.66,.12,1.35-.19,1.96-.56,1.11-1.17,2.2-2.06,3.09-.1,.1-.4,.15-.5,.08-.97-.72-1.51-1.69-1.59-2.91,0-.1,0-.19,0-.25Z"/>
      <path d="M192.8,227.37c.09,.03,.2,.04,.27,.11,.9,.86,1.84,1.69,2.68,2.61,.76,.83,.99,1.86,.68,2.97-.1,.37-.23,.74-.4,1.08-.35,.66-.47,1.67-1.38,1.67-.8,0-1.27-.8-1.73-1.42-.69-.95-1.02-2.06-1.31-3.19-.05-.18-.06-.38-.05-.57,.06-1.07,.29-2.1,.75-3.06,.05-.12,.33-.13,.5-.19Z"/>
      <path d="M223.14,250.45c.09,.02,.24,0,.28,.05,.74,1.1,1.5,2.18,2.18,3.32,.3,.5,.32,1.11,0,1.65-.64,1.06-1.3,2.1-1.97,3.14-.22,.34-.72,.34-.96-.02-.32-.46-.79-.94-.86-1.45-.31-2.21-.03-4.38,.91-6.42,.06-.13,.28-.19,.43-.28Z"/>
      <path d="M165.62,208.84c-.27-1.71,.25-3.16,.78-4.6,.13-.34,.67-.48,.97-.28,1.13,.75,2.13,1.64,2.9,2.77,.2,.29,.35,.77,.26,1.09-.55,1.86-1.54,3.5-2.64,5.08-.08,.11-.41,.18-.52,.1-.84-.53-1.49-1.22-1.61-2.27-.07-.67-.1-1.34-.14-1.88Z"/>
      <path d="M168.81,260.89c0-1.43,.37-2.51,.93-3.54,.4-.74,1.13-.81,1.56-.11,.7,1.15,1.38,2.31,2.03,3.49,.13,.23,.16,.6,.06,.84-.55,1.33-1.01,2.7-1.95,3.83-.21,.25-.78,.27-1.05,.05-.07-.06-.17-.1-.23-.17-.18-.22-.41-.44-.51-.7-.47-1.27-.83-2.56-.84-3.69Z"/>
      <path d="M196.67,280.44c.07-.42,.13-.8,.21-1.18,.09-.47,.77-.7,1.14-.39,.36,.31,.74,.61,1.05,.97,.51,.58,.92,1.25,1.46,1.79,1.74,1.74,1.55,1.83,.19,3.87-.26,.4-.56,.78-.85,1.16-.22,.29-.78,.24-.99-.08-.16-.24-.36-.46-.46-.72-.52-1.24-1.04-2.48-1.49-3.75-.19-.53-.18-1.13-.26-1.66Z"/>
      <path d="M195.29,177.28c-.54,1.39-1.18,2.79-2,4.09-.21,.34-.67,.4-.99,.17-.83-.6-1.34-1.37-1.35-2.42,0-.39,0-.77-.02-1.16-.13-1.61,.44-3.02,1.25-4.37,.12-.2,.56-.2,.75,0,1,1.05,1.88,2.19,2.36,3.68Z"/>
      <path d="M162.43,156.28c-.02-.91,.39-1.68,.72-2.48,.35-.84,.87-.99,1.53-.41,.94,.82,2.03,1.48,2.77,2.52,.23,.32,.36,.72,.18,1.09-.7,1.47-1.42,2.94-2.16,4.39-.29,.58-.97,.57-1.37,.02-1.13-1.52-1.56-3.27-1.67-5.12Z"/>
      <path d="M121.28,221.48c.07-1.84,.36-3.04,.88-4.19,.26-.58,.97-.67,1.38-.13,.69,.92,1.37,1.86,1.67,2.99,.12,.45,.15,.97,.05,1.41-.3,1.32-.9,2.52-1.66,3.65-.13,.19-.6,.28-.78,.14-.23-.17-.52-.33-.64-.56-.63-1.21-.82-2.54-.9-3.31Z"/>
    </g>
  </g>
</svg>