<?xml version="1.0" encoding="UTF-8"?><svg id="laptop-black-no_fill" xmlns="http://www.w3.org/2000/svg" viewBox="0 0 500.42 518.42"><path d="M278.73,46.97c.14-.74-.22-1.39-.34-2.07-.14-.81-.29-1.62-.31-2.44-.02-.72,.62-1.22,1.34-1.11,.92,.14,1.82,.35,2.46,1.17,.88,1.12,1.77,2.21,2.22,3.61,.32,.98,.8,1.92,1.26,2.85,.46,.93,.98,1.83,1.64,3.05-.04-.56-.01-.81-.08-1.02-.51-1.51-.98-3.02-1.62-4.49-.73-1.66-.93-3.49-1.07-5.3-.02-.27,0-.55,.05-.82,.19-1.03,.71-1.42,1.74-1.24,.65,.11,1.28,.29,1.91,.47,.4,.11,.61,.43,.76,.81,.15,.4,.3,.82,.91,.98,.18-.8,.35-1.58,.51-2.3,.9-.69,1.87-.79,2.88-.72,.54,.04,.91,.3,1.16,.79,.47,.93,1,1.83,1.45,2.77,.28,.59,.46,1.22,.67,1.85,.36,1.09,.66,2.21,1.08,3.27,.7,1.76,.81,3.64,1.27,5.45,.1,.37,.14,.76,.23,1.13,.52,2.03,.91,4.07,1.08,6.16,.08,.99,.02,1.98,.15,2.96,.15,1.17,.04,2.29-.26,3.41-.08,.31-.08,.65-.09,.98-.12,5.5-.25,10.99-.09,16.49,.02,.82,.04,1.65,.11,2.47,.22,2.47-.01,4.93-.06,7.4,0,.33,.02,.66,.03,.98,.07,1.65,.12,3.3,.22,4.94,.14,2.36,.13,4.75,.52,7.07,.49,2.92,.98,5.85,1.5,8.77,.57,3.24,.98,6.51,1.82,9.71,.37,1.43,.48,2.93,.66,4.4,.19,1.49,.59,2.9,1.22,4.26,.55,1.2,1.02,2.44,1.65,3.59,1.47,2.7,3.4,4.98,6.2,6.41,1.71,.88,3.4,1.78,5.11,2.65,.29,.15,.62,.22,.94,.27,2.01,.3,4.02,.8,6.04,.81,2.24,.02,4.49,.31,6.72-.12,1.89-.36,3.77-.74,5.66-1.07,1.3-.23,2.6-.4,3.91-.58,1.47-.2,2.94-.38,4.41-.55,1.03-.12,2.07-.2,3.12-.3,.32-1.29,.26-5.15-.13-6.68-1-.3-2.05-.6-3.09-.91-1.28-.38-2.49-.87-3.42-1.89-1.1-1.22-1.89-2.53-1.78-4.28,.14-2.3,.19-4.61,.28-6.92,0-.16,.03-.33,.03-.49,.02-4.29,.04-8.58,.05-12.87,0-.99,.01-1.98,0-2.97,0-.21-.06-.41-.1-.69-.52-.08-1.01-.11-1.48-.24-.47-.13-1-.25-1.34-.56-1.64-1.49-3.13-3.11-3.9-5.24-.64-1.74-.68-3.56-.42-5.38,.14-.99,.62-1.88,1.25-2.66,.52-.64,1.06-1.27,1.66-1.83,.86-.8,1.12-1.68,.75-2.82-.46-1.41-.83-2.83-1.56-4.15-.73-1.31-1.07-2.76-1.02-4.29,.03-.86,.27-1.62,.84-2.27,.22-.25,.44-.49,.66-.74,.81-.89,1.62-1.79,2.44-2.67,1.1-1.18,2.34-2.2,3.81-2.85,1.31-.58,2.75-.85,4.17-.84,1.88,0,3.72,.35,5.42,1.22,.39,.2,.84,.29,1.2,.53,1.14,.76,2.4,.66,3.66,.61,.37-.01,.77-.12,1.1-.29,.98-.49,1.98-.96,2.89-1.56,3.02-2,6.04-4.02,9.25-5.69,1.71-.89,3.59-1.36,5.5-1.66,.6-.09,1.21-.12,1.8-.21,1.01-.16,1.97,0,2.92,.32,.68,.23,1.33,.52,2.02,.73,1.39,.42,2.6,1.14,3.74,2.03,2.12,1.68,4.11,3.48,5.57,5.79,.48,.77,1.12,1.19,2.03,1.18,.55,0,1.11,.05,1.63-.08,2.03-.5,3.96-1.26,5.81-2.26,1.4-.75,2.87-1.38,4.35-1.97,.76-.3,1.58-.45,2.39-.59,1.51-.25,3.01-.68,4.56-.62,.76,.03,1.55,.03,2.28,.21,2.24,.56,4.51,1.06,6.66,1.87,2.36,.89,4.62,2.04,6.49,3.83,.83,.79,1.35,1.72,1.7,2.77,.21,.62,.35,1.27,.53,1.91,.44,1.53,.49,3.02-.2,4.51-.25,.54-.38,1.15-.52,1.74-.36,1.5,.24,3.08,1.56,3.85,.75,.44,1.58,.79,2.42,.99,1.56,.37,3.02,.94,4.46,1.66,1.81,.9,3.63,1.8,5.55,2.51,3.1,1.15,6.01,2.73,8.59,4.82,1.54,1.25,2.94,2.65,4.07,4.29,.98,1.42,1.57,3.03,2.1,4.64,.24,.72,.38,1.48,.71,2.18,.37,.77,.45,1.55,.2,2.4-.25,.84-.36,1.72-.54,2.58-.36,1.78-1.12,3.44-1.77,5.12-.15,.4-.45,.77-.77,1.06-2.62,2.47-5.51,4.58-8.81,6.01-1.38,.6-2.97,.74-4.48,1.01-1.52,.28-3.06,.37-4.6,.25-1.22-.1-2.41,.02-3.61,.22-.37,.07-.77,.14-1.14,.09-2.94-.43-5.91-.55-8.87-.68-.6-.03-1.2-.12-1.8-.18-3.01-.27-6.01-.65-8.95-1.38-.85-.21-1.74-.26-2.6-.41-.81-.13-1.64-.23-2.43-.44-1.6-.44-3.25-.55-4.88-.77-.87-.12-1.74-.24-2.59-.43-2.2-.49-4.43-.79-6.66-1.1-2.17-.3-4.33-.64-6.35-1.59-.84-.4-1.72-.7-2.67-1.09-.55,.82-.82,1.71-1.12,2.56-.9,2.52-2.3,4.74-4,6.78-1.31,1.57-2.44,3.24-3.38,5.06-.74,1.44-.66,2.98-.8,4.5-.05,.54,.5,1.12,1.07,1.3,1.22,.38,2.49,.43,3.75,.47,.27,0,.57-.1,.82-.03,1.61,.45,3.27,.35,4.9,.57,1.58,.21,3.17,.38,4.75,.52,.43,.04,.87-.09,1.31-.11,.6-.03,1.2-.02,1.8-.02,.93,0,1.85,0,2.78,0,.22,0,.45-.06,.66-.01,2.59,.53,5.24,.57,7.82,1.2,2.14,.52,4.24,1.12,6.33,1.81,1.87,.62,3.71,1.34,5.58,1.96,1.97,.65,3.63,1.85,5.19,3.13,1.61,1.32,3.06,2.83,4.56,4.27,.28,.26,.54,.57,.72,.9,1.24,2.27,2.44,4.54,3.23,7.02,1.17,3.67,2.15,7.39,2.76,11.19,.53,3.3,1.27,6.58,1.47,9.93,.04,.71,.19,1.42,.31,2.12,.39,2.22,.64,4.46,.87,6.7,.22,2.19,.46,4.37,.53,6.57,.05,1.48,.04,2.97,.04,4.45,0,1.15,.32,2.3,0,3.45-.03,.1,0,.22,.02,.33,.44,1.86,.18,3.71,0,5.57-.09,.87-.07,1.76-.02,2.63,.18,3.2-.06,6.35-.67,9.5-.37,1.94-.69,3.89-.74,5.87-.02,.92-.37,1.84-.03,2.77,.06,.17-.04,.43-.11,.63-.37,1.05-.46,2.13-.55,3.23-.21,2.63-.37,5.26-.88,7.85-.45,2.28-.42,4.59-.4,6.9,.03,3.68,0,7.37-.06,11.05-.02,1.04-.2,2.08-.32,3.11-.24,2.14-.25,4.28,.05,6.42,.27,1.92,.16,3.84-.22,5.74-.06,.32-.15,.65-.14,.98,.08,2.03,.15,4.06,.29,6.09,.06,.8,.49,1.61,.4,2.37-.09,.77-.12,1.52-.08,2.28,.05,1.15,.22,2.3-.08,3.44,.31,1.78-.15,3.62,.47,5.38,.16,.45,.15,.97,.19,1.46,.15,1.74,.26,3.49,.45,5.23,.1,.92,.33,1.84,.51,2.75,.22,1.09-.26,2.05-.61,3.01-.23,.64-1.21,.77-1.87,.32-.59-.4-1.15-.83-1.48-1.51-.23-.48-.47-.96-1.04-1.47-.07,.49-.17,.79-.15,1.08,.07,1.02-.24,1.96-.52,2.9-.23,.75-.85,1.05-1.55,.75-.39-.16-.77-.44-1.03-.76-.33-.42-.54-.95-.8-1.43-.12-.23-.15-.54-.56-.61-.1,.58-.23,1.16-.31,1.74-.09,.73-.53,1.19-1.1,1.56-.67,.44-1.38,.31-1.89-.32-.37-.46-.57-1.09-1.24-1.27-.53,.56-.99,1.13-1.14,1.94-.06,.33-.38,.67-.66,.88-.77,.56-1.43,.45-2-.3-.88-1.16-1.39-2.49-1.62-3.93-.1-.6-.19-1.2-.26-1.8-.36-3-.76-6-1.06-9.01-.21-2.08-.28-4.17-.42-6.25-.11-1.59-.28-3.2,.06-4.77,.5-2.29,.32-4.59,.3-6.88-.03-3.8-.09-7.59-.17-11.39-.02-.95,.08-1.86,.43-2.75,.39-.98,.48-2.01,.53-3.07,.08-1.65,.27-3.29,.38-4.93,.08-1.21,.04-2.42,.14-3.62,.19-2.3,.45-4.6,.65-6.9,.29-3.35,.4-6.7,.12-10.05-.02-.22-.04-.44-.03-.66,.09-2.91,.08-5.82-.16-8.74-.14-1.64-.15-3.3-.2-4.94-.03-1.21,0-2.42-.05-3.63-.08-1.98-.2-3.95-.29-5.93-.09-1.87-.16-3.73-.24-5.6-.02-.55-.03-1.1,0-1.65,.28-5.12,0-10.23-.27-15.34-.1-1.98-.51-3.92-1.15-5.81-.48-1.4-.88-2.83-1.34-4.24-.17-.52-.4-1.02-.6-1.54-.8-2.08-2.4-3.31-4.47-3.8-2.67-.63-5.33-1.31-8.03-2.14-.12,.25-.32,.48-.33,.72-.06,1.69-.46,3.39,.11,5.07,.08,.24,0,.53-.02,.8-.04,.43-.23,.89-.15,1.3,.42,1.93-.07,3.84-.16,5.75-.1,1.99-.07,3.95,.14,5.92,.1,.92,.08,1.86,.07,2.79-.02,1.26-.24,2.54-.08,3.78,.21,1.59,.1,3.15,.01,4.73-.07,1.32,.16,2.63,.42,3.92,.1,.48,.17,.98,.15,1.47-.06,1.45,.23,2.83,.62,4.21,.18,.63,.23,1.27,.2,1.94-.04,1.09,.06,2.2,.24,3.27,.58,3.37,.65,6.77,.63,10.18-.01,1.65-.08,3.28,.25,4.9,.05,.26,.03,.55,0,.82-.27,2.74-.35,5.48-.22,8.23,.03,.6-.06,1.21-.09,1.81-.04,.6-.16,1.21-.11,1.8,.21,2.04,.07,4.06-.14,6.08-.07,.65-.03,1.32-.02,1.98,.02,1.76,.11,3.52,.05,5.28-.09,2.59,.36,5.15,.38,7.73,0,.05,.02,.11,.02,.16,.27,2.9,.52,5.8,.81,8.69,.12,1.2,.37,2.39,.47,3.59,.12,1.59,.15,3.18,.22,4.77,.02,.55-.04,1.11,.07,1.65,.52,2.67,.25,5.37,.35,8.06,.05,1.24-.64,1.97-1.64,2.42-.95,.42-1.96,.68-3.03,.71-1.14,.04-2.28,.22-3.43,.34-.11,.28-.23,.47-.27,.67-.48,2.2-.9,4.42-1.44,6.6-.7,2.79-.94,5.64-1.06,8.49-.17,4.29-.09,8.58,.16,12.86,.08,1.26,.08,2.54-.02,3.79-.28,3.32,.1,6.58,.72,9.83,.59,3.08,1.08,6.17,1.64,9.26,.35,1.95,.73,3.89,1.1,5.83,.08,.43,.14,.87,.26,1.29,.26,.95,.49,1.92,.83,2.84,.68,1.86,1.43,3.69,2.16,5.53,.22,.56,.43,1.14,.73,1.66,1.37,2.38,2.69,4.8,4.18,7.1,1.26,1.94,2.89,3.59,4.51,5.24,2.5,2.55,5.51,4.14,8.95,4.96,.59,.14,1.16,.33,1.75,.48,1.61,.4,3.25,.53,4.91,.44,2.03-.11,4.06-.15,6.09-.27,2.41-.14,4.56-1.03,6.67-2.17,2.47-1.34,4.74-2.98,7.09-4.49,.19-.12,.39-.22,.55-.36,1.79-1.51,3.93-2.4,5.96-3.49,.92-.49,1.83-1,2.74-1.52,1.72-.98,3.43-1.98,5.14-2.96,.19-.11,.4-.19,.61-.24,1.19-.25,2.31-.66,3.35-1.31,.29-.18,.74-.19,1.1-.16,1.63,.14,3.16-.2,4.66-.8,.93-.37,1.89-.5,2.89-.55,1.37-.07,2.74-.33,4.11-.12,1.21,.18,2.38,.08,3.59-.12,1.07-.17,2.19-.11,3.28-.09,.78,.01,1.37,.36,1.59,1.18,.39,1.43,.86,2.84,1.16,4.29,.55,2.69,1.02,5.4,1.55,8.09,.44,2.21,.59,4.47,.98,6.69,.73,4.2,.54,8.44,.66,12.66,.04,1.32,.16,2.63,.25,3.94,.03,.49,.1,.99,.09,1.48-.02,1.38,.04,2.74,.3,4.1,.2,1.02,.08,1.93-.7,2.74-.45,.46-.75,1.08-1.09,1.64-.72,1.17-1.8,1.91-2.97,2.54-.83,.45-1.7,.41-2.52-.07-1.49-.88-2.81-1.92-3.44-3.63-.19-.51-.48-.99-.79-1.44-1.21-1.77-2.45-3.52-3.69-5.27-.15-.21-.37-.37-.53-.53-.74,.21-.85,.8-.99,1.3-.15,.51-.16,1.05-.24,1.68-.53,.31-1.09,.08-1.6-.22-.19-.11-.32-.47-.32-.71,0-.95,.18-1.92,.78-2.65,1.04-1.27,.73-2.41-.09-3.58-.09-.14-.17-.28-.27-.42-.16-.21-.55-.21-.72,0-.42,.5-.51,1.04-.24,1.68-.49,.3-.97,.66-1.5,.89-.65,.29-1.08-.01-1.08-.73,0-.89,.23-1.73,.74-2.47,.37-.54,.75-1.06,1.14-1.62-.79-1.34-1.32-2.74-2.72-3.6-.24,.12-.53,.18-.71,.36-.68,.67-1.54,1.05-2.3,1.58-1.05,.73-2.21,.95-3.41,1.1-.22,.03-.47,.09-.65,.01-1.57-.64-2.9,.11-4.23,.74-1.24,.59-2.42,1.3-3.66,1.89-.99,.47-2.03,.85-3.07,1.2-2.29,.78-4.55,1.63-6.75,2.63-2,.91-4.02,1.79-6.07,2.57-1.22,.46-2.48,.88-3.8,1.04-2.02,.25-3.93,1.01-5.91,1.44-1.99,.43-3.97,.87-6,1.08-.27,.03-.55,.06-.81,.13-2.6,.7-5.23,.47-7.86,.19-1.69-.18-3.38-.34-5.06-.6-2.28-.34-4.55-.74-6.82-1.16-1.46-.27-2.9-.6-4.35-.91-.32-.07-.64-.17-.95-.28-3.31-1.2-6.59-2.43-9.64-4.25-1.83-1.09-3.8-1.97-5.63-3.06-1.59-.95-3.24-1.84-4.49-3.3-.53-.62-1.22-1.1-1.89-1.58-1.37-.99-2.41-2.29-3.19-3.73-1.1-2.02-2.11-4.1-2.94-6.24-.7-1.78-1.1-3.68-1.6-5.53-.3-1.11-.5-2.25-.8-3.36-.66-2.5-1.48-4.96-2.01-7.48-.7-3.33-1.37-6.69-1.72-10.07-.28-2.67-.41-5.36-.73-8.04-.17-1.41-.11-2.86-.12-4.28-.01-1.42-.29-2.84-.1-4.27,.03-.19-.07-.4-.1-.56-.37-.18-.48,.06-.58,.23-1.73,3.06-3.43,6.13-4.91,9.33-.69,1.49-1.48,2.95-2.13,4.46-.74,1.71-1.49,3.42-1.88,5.26-.18,.85-.4,1.71-.7,2.53-.39,1.05-.51,2.12-.65,3.21-.35,2.73-.74,5.45-.74,8.2,0,2.25-.16,4.5,.11,6.75,.2,1.69,.23,3.4,.42,5.1,.19,1.69,.42,3.38,.75,5.04,.53,2.69,1.09,5.38,1.74,8.05,.66,2.72,1.39,5.41,2.62,7.95,.91,1.88,1.56,3.87,2.42,5.77,.79,1.75,1.66,3.47,2.57,5.16,1.66,3.09,3.4,6.15,5.07,9.23,1.26,2.32,2.8,4.46,4.21,6.69,1.09,1.71,2.04,3.51,3.06,5.26,.79,1.38,1.56,2.77,2.39,4.13,1.19,1.97,2.44,3.91,3.63,5.89,1.39,2.3,2.75,4.63,4.09,6.96,.27,.47,.43,.99,.71,1.67,.47,.28,1.29,.41,1.52,1.32,.08,.31,.52,.55,.81,.79,.86,.69,1.81,1.28,2.58,2.05,1.31,1.32,2.63,2.65,3.62,4.25,.67,1.07,1.31,2.16,1.76,3.35,.51,1.36,1.37,2.46,2.4,3.47,.54,.53,1.02,1.15,1.45,1.78,.67,.97,.61,1.72-.3,2.46-1.38,1.11-2.43,2.52-3.65,3.78-1.56,1.62-3.19,3.18-4.82,4.73-2.22,2.12-4.66,3.99-6.98,5.98-1.54,1.32-3.08,2.64-4.63,3.95-1.51,1.28-3.09,2.46-4.78,3.5-.37,.23-.69,.53-1.05,.79-.58,.41-1.18,.79-1.75,1.21-1.14,.86-2.26,1.75-3.41,2.6-1.01,.75-2.04,1.47-3.09,2.16-.18,.12-.57,.12-.76,.01-1.2-.68-2.26-1.54-3.08-2.68-1.18-1.62-1.17-1.61-.98-3.59,.13-1.39,.51-2.69,1.08-3.96,.5-1.1,.87-2.24,1.09-3.53-.34-.11-.63-.22-.93-.29-.27-.06-.55-.05-.81-.12-.53-.15-.94-.81-.82-1.27,.09-.36,.51-.63,1.05-.64,.76-.02,1.52,0,2.35,0,.57-1.3,1.02-2.64,1.45-4.12-.39-.15-.73-.27-1.06-.42-.29-.13-.62-.23-.86-.43-.31-.26-.45-.65-.3-1.05,.15-.4,.52-.56,.93-.54,.6,.03,1.19,.08,1.84,.13,.78-1.42,.96-2.96,1.39-4.42,.44-1.47,.71-2.98,1.08-4.62h-2.48c-.47-.6-.86-1.12-1.27-1.64-.41-.51-.85-1-1.24-1.52-2.11-2.88-4.72-5.37-6.64-8.4-.8-1.25-1.47-2.58-2.27-3.83-.5-.78-1.1-1.5-1.71-2.21-.79-.92-1.6-1.81-2.45-2.67-1-1.02-2.01-2.03-3.09-2.96-1.22-1.05-2.32-2.16-3.21-3.52-1.05-1.61-2.21-3.14-3.36-4.68-.39-.52-.83-1.05-1.35-1.43-1.91-1.4-3.27-3.24-4.43-5.25-1.09-1.91-2.17-3.82-3.22-5.75-.45-.82-.81-1.68-1.24-2.51-.72-1.36-1.4-2.73-2.35-3.96-.36-.47-.53-1.08-.83-1.6-.42-.71-.83-1.44-1.34-2.08-1.22-1.52-1.99-3.28-2.74-5.05-.32-.75-.69-1.49-1.1-2.2-.69-1.19-1.36-2.38-1.79-3.7-.43-1.31-.94-2.58-1.42-3.87-.04-.1-.09-.2-.11-.31-.5-2.43-1.36-4.74-2.18-7.08-.23-.67-.32-1.39-.47-2.08-.09-.43-.09-.9-.27-1.29-.99-2.07-1.01-4.37-1.59-6.54-.53-1.98-.73-3.97-.64-6.04,.09-1.86-.11-3.73-.15-5.6-.02-.76,.02-1.53,.1-2.29,.11-1.15,.36-2.29,.38-3.43,.03-1.77,.27-3.5,.61-5.23,.17-.86,.26-1.74,.27-2.62,.04-2.37,.23-4.72,.7-7.05,.56-2.8,.93-5.64,1.78-8.38,.21-.68,.47-1.35,.69-2.03,.3-.94,.61-1.88,.87-2.83,.41-1.49,.92-2.93,1.63-4.31,.47-.93,.88-1.9,1.21-2.88,.49-1.47,1.14-2.85,1.93-4.18,.58-.99,1.16-2.02,1.51-3.1,.74-2.27,1.91-4.31,3.1-6.36,.97-1.66,1.94-3.32,2.96-4.95,.73-1.16,1.44-2.36,2.32-3.4,1.14-1.36,2.07-2.84,3.03-4.31,.66-1.01,1.4-1.96,2.15-2.91,1.05-1.34,2.16-2.62,3.25-3.92,.14-.16,.22-.37,.33-.56-.6-1.78-.58-3.56-.41-5.38,.14-1.53,.09-3.08,.1-4.62,.01-1.26,.09-2.54-.03-3.79-.28-2.89-.06-5.82-.63-8.69-.24-1.19-.27-2.39-.25-3.61,.02-1.31-.12-2.63-.2-3.95-.06-1.04-.15-2.08-.21-3.13-.11-1.98-.24-3.95-.32-5.93-.06-1.37-.06-2.75-.06-4.12,0-2.04-.21-4.05-.53-6.06-.06-.38-.07-.78-.01-1.15,.31-1.98,.1-3.95-.07-5.92-.04-.49-.06-.99-.07-1.48-.01-.77-.02-1.52-.22-2.28-.2-.78-.17-1.63-.25-2.45-.31-3.01-.58-6.02-.93-9.02-.37-3.17-.83-6.32-1.21-9.49-.5-4.23-1.98-8.08-4.34-11.61-.58-.87-1.05-1.8-1.53-2.73-.35-.68-.65-1.39-.94-2.11-.23-.56-.46-1.13-.59-1.71-.8-3.62-1.19-7.25-.65-10.97,.33-2.23,.73-4.45,1.25-6.64,.3-1.28,.6-2.56,.89-3.84,.06-.27,.12-.54,.12-.81,0-.61-.34-1.07-.95-1.18-.43-.08-.87-.05-1.31-.08-2.91-.16-5.82-.3-8.72-.47-2.43-.14-4.8-.62-7.13-1.26-1.22-.34-2.42-.74-3.59-1.21-.65-.26-1.23-.71-1.82-1.11-.86-.58-1.69-1.22-2.57-1.79-.41-.27-.88-.43-1.38-.67-.3-.8-.9-1.42-1.63-1.94-2.01-1.44-3.46-3.36-4.66-5.49-.22-.38-.39-.8-.64-1.15-2.69-3.73-4.02-8.04-5.31-12.36-.42-1.41-.61-2.9-.87-4.36-.25-1.41-.49-2.82-.66-4.23-.13-1.03-.12-2.08-.21-3.12-.12-1.42-.23-2.85-.42-4.26-.21-1.63-.52-3.26-.73-4.89-.08-.65,.03-1.32,.02-1.98-.02-1.1-.06-2.19-.09-3.29-.02-.66-.07-1.32-.08-1.98-.03-1.43-.05-2.85-.23-4.27-.14-1.08-.08-2.2-.08-3.29,0-2.86-.04-5.71-.26-8.57-.07-.93-.06-1.87-.09-2.8-.07-2.09-.12-4.18-.21-6.26-.11-2.58-.25-5.16-.41-7.74-.06-.99-.25-1.96-.32-2.95-.22-3.51-.39-7.02-.63-10.53-.11-1.59-.37-3.17-.48-4.76-.12-1.86-.15-3.73-.22-5.59-.02-.38,.05-.85-.14-1.12-.48-.7-.42-1.44-.43-2.2,0-.54-.11-1.1-.25-1.62-.43-1.65-.89-3.29-1.34-4.93-.06-.21-.12-.43-.21-.63-1.09-2.52-2.15-5.06-3.31-7.55-.59-1.26-.95-2.57-1.22-3.92-.01-.05-.02-.11-.02-.16-.1-1.04,.16-1.59,.9-1.91,1.07-.46,1.81-.34,2.52,.46,.29,.33,.52,.72,1.07,.75Zm69.53,257.71c-1.14,1.71-2.22,3.3-3.13,5-.53,.98-1.15,1.88-2.03,2.57-.99,.78-2,1.53-3.02,2.26-.49,.35-.97,.77-1.52,.95-2.29,.75-4.49,1.81-6.88,2.27-.4,.08-.8,.36-1.11,.64-.99,.9-1.61,2.07-2.28,3.21-.8,1.37-1.59,2.75-2.5,4.07-.9,1.29-1.67,2.71-2.21,4.21-.8,2.23-1.78,4.37-2.94,6.42-.49,.86-.85,1.78-1.25,2.69-.35,.8-.63,1.64-1.02,2.43-.82,1.69-1.55,3.4-1.93,5.24-.11,.53-.35,1.04-.51,1.56-.48,1.52-1.06,3.02-1.39,4.57-.62,2.95-1.13,5.93-1.61,8.91-.2,1.24-.45,2.49-.19,3.76,.06,.31,0,.66-.05,.98-.12,.82-.27,1.63-.38,2.44-.15,1.14-.38,2.29-.4,3.43-.01,1.43-.21,2.84-.38,4.25-.06,.49-.12,.98-.12,1.47,.02,2.64,.05,5.28,.08,7.92,0,.44,.05,.88,.12,1.31,.26,1.74,.52,3.48,.82,5.21,.15,.86,.33,1.73,.59,2.56,.45,1.41,.92,2.81,.99,4.32,.03,.58,.26,1.18,.5,1.73,.68,1.56,1.29,3.15,1.71,4.8,.18,.69,.28,1.41,.52,2.08,.58,1.66,1.21,3.3,1.85,4.93,.2,.51,.42,1.02,.7,1.49,.93,1.56,1.62,3.24,2.36,4.9,.54,1.21,1.19,2.35,2.09,3.34,.29,.32,.57,.67,.79,1.05,.66,1.14,1.31,2.28,1.91,3.45,1.86,3.67,3.82,7.29,5.89,10.85,.99,1.71,2.15,3.31,3.66,4.62,1.17,1.01,2.12,2.23,3.01,3.49,1.81,2.55,3.52,5.19,6.02,7.16,.08,.07,.14,.17,.22,.25,1.48,1.54,2.96,3.1,4.46,4.63,.97,.99,1.88,2,2.43,3.3,.13,.3,.33,.57,.51,.85,.92,1.37,1.82,2.74,2.78,4.09,.4,.56,.69,1.26,1.34,1.48,.79-.56,1.5-1.08,2.23-1.56,1.43-.93,2.88-1.83,4.3-2.77,.35-.23,.65-.54,1.04-.88-.36-.59-.66-1.11-.97-1.62-1.17-1.92-2.4-3.81-3.51-5.77-.74-1.3-1.52-2.54-2.58-3.6-.58-.58-1.08-1.25-1.54-1.93-.71-1.04-1.37-2.13-2.04-3.19-.74-1.16-1.38-2.39-2.23-3.46-1.98-2.5-4.03-4.94-6.1-7.36-1.19-1.38-2.27-2.82-3.24-4.36-.44-.7-.9-1.38-1.35-2.07-1.82-2.81-3.67-5.61-5.46-8.44-1.38-2.18-2.65-4.43-4.04-6.61-1.37-2.15-2.49-4.4-3.35-6.79-.19-.52-.35-1.05-.6-1.53-1.34-2.56-1.99-5.35-2.65-8.13-.56-2.35-1.07-4.72-1.72-7.05-.47-1.7-.91-3.39-.9-5.18,0-.49-.11-.98-.19-1.47-.57-3.21-.62-6.45-.51-9.7,.04-1.15,.04-2.31,0-3.46-.03-.89,.03-1.75,.24-2.62,.57-2.29,1.15-4.59,1.69-6.89,.88-3.77,2.48-7.28,4.08-10.78,.91-1.99,2.01-3.91,3.09-5.82,.94-1.67,1.88-3.36,2.99-4.93,2.01-2.82,4.13-5.55,6.22-8.31,1.07-1.42,2.34-2.63,3.77-3.66,.55-.4,1.03-.38,1.31,0,.35,.49,.29,1.01-.18,1.47-.12,.11-.27,.2-.38,.31-.82,.81-1.71,1.56-2.43,2.46-1.76,2.18-3.39,4.47-5.16,6.64-1.68,2.06-3.02,4.32-4.31,6.63-.89,1.58-1.86,3.12-2.65,4.74-.96,1.97-1.79,4.01-2.64,6.04-.4,.96-.77,1.95-1.03,2.96-.84,3.24-1.64,6.5-2.42,9.76-.13,.53-.12,1.09-.13,1.64-.01,.88,.03,1.76,.01,2.63-.07,2.91-.05,5.83,.29,8.72,.22,1.8,.46,3.6,.7,5.39,.05,.38,.14,.75,.24,1.13,.43,1.65,.87,3.29,1.28,4.94,.29,1.17,.49,2.37,.81,3.53,.58,2.12,1.17,4.24,1.86,6.32,.39,1.19,1.02,2.31,1.48,3.48,.52,1.33,.96,2.69,1.7,3.93,1.3,2.17,2.61,4.32,3.92,6.48,1.05,1.74,2.07,3.5,3.18,5.2,1.56,2.4,3.24,4.71,4.76,7.13,1.55,2.48,3.44,4.68,5.35,6.88,1.62,1.87,3.22,3.76,4.69,5.75,1.24,1.68,2.32,3.48,3.38,5.27,.68,1.15,1.47,2.18,2.38,3.14,.49,.52,.96,1.07,1.32,1.68,1.19,1.97,2.33,3.98,3.51,5.97,.45,.75,.91,1.5,1.41,2.22,.58,.84,1.02,.93,1.75,.29,.61-.54,1.32-.95,1.91-1.49,1.4-1.27,2.99-2.23,4.56-3.24,.68-.43,1.19-.94,1.49-1.66-.06-.19-.09-.36-.17-.5-1.15-1.94-2.31-3.86-3.45-5.8-.42-.71-.76-1.46-1.17-2.18-.7-1.24-1.49-2.44-2.12-3.72-.76-1.53-1.73-2.94-2.7-4.33-1.48-2.12-2.92-4.25-4.13-6.55-.79-1.51-1.74-2.93-2.54-4.43-1.53-2.86-3-5.75-4.49-8.63-.15-.29-.24-.61-.37-.92-.54-1.32-1.06-2.65-1.64-3.96-1.27-2.87-2.52-5.74-3.27-8.8-.53-2.19-1.04-4.38-1.52-6.58-.45-2.04-.94-4.08-1.23-6.14-.51-3.59-.69-7.22-.83-10.84-.05-1.32-.16-2.64-.08-3.95,.1-1.86,.36-3.71,.53-5.57,.31-3.47,1.19-6.81,2.22-10.12,1.13-3.64,2.9-7.01,4.62-10.38,1.47-2.89,3.09-5.7,4.66-8.54,.69-1.25,1.39-2.5,2.2-3.67,.72-1.03,1.59-1.96,2.43-2.91,.31-.35,.8-.27,1.17,.08,.33,.31,.39,.65,.13,1.03-.38,.54-.81,1.04-1.17,1.59-.2,.31-.4,.68-.44,1.03-.16,1.53-.28,3.06-.36,4.6-.18,3.36,.03,6.7,.34,10.04,.08,.87,.21,1.74,.33,2.61,.33,2.29,.21,4.62,.72,6.89,.31,1.39,.54,2.8,.8,4.21,.13,.7,.17,1.42,.34,2.11,.41,1.6,.91,3.17,1.3,4.77,.57,2.35,1.46,4.61,1.87,7.01,.32,1.84,.92,3.61,1.71,5.31,.42,.89,.86,1.78,1.23,2.69,.82,2.08,2.03,3.89,3.65,5.42,.76,.72,1.58,1.37,2.35,2.07,1.35,1.23,2.82,2.26,4.45,3.09,2.06,1.04,4.07,2.17,6.11,3.25,1.26,.67,2.49,1.41,3.81,1.94,2.49,1,4.98,1.98,7.66,2.48,2.59,.49,5.14,1.16,7.76,1.49,2.78,.35,5.57,.67,8.36,.93,1.75,.16,3.51,.24,5.24-.26,.63-.18,1.3-.2,1.95-.31,1.13-.19,2.27-.37,3.39-.62,2.63-.57,5.26-1.14,7.87-1.79,1.27-.32,2.51-.78,3.75-1.22,.77-.28,1.52-.64,2.28-.96,1.21-.51,2.47-.96,3.63-1.56,1.62-.84,3.36-1.34,5.07-1.96,1.03-.38,2.07-.74,3.05-1.23,2.36-1.18,4.72-2.36,7.21-3.25,.15-.05,.27-.18,.4-.28,.03-.17,.09-.33,.07-.49-.09-1.15-.18-2.3-.31-3.45-.1-.87-.3-1.72-.85-2.5-1.24,.26-2.5,.3-3.64,.92-.43,.23-.93,.34-1.4,.48-.89,.27-1.78,.54-2.68,.79-1.16,.32-2.29,.7-3.5,.88-1.17,.17-2.29,.73-3.44,1.11-.26,.08-.54,.12-.81,.16-2.07,.28-4.14,.52-6.11,1.27-.25,.09-.54,.09-.81,.14-1.94,.36-3.91,.59-5.67,1.6-.19,.11-.41,.17-.61,.24-3.34,1.14-6.74,1.9-10.29,2.03-1.29,.05-2.52-.08-3.76-.32-.65-.12-1.28-.31-1.93-.44-3.23-.69-6.3-1.92-9.46-2.84-.37-.11-.74-.24-1.06-.44-1.94-1.15-3.9-2.27-5.66-3.68-.38-.31-.72-.67-1.07-1.02-2.3-2.31-4.23-4.91-6.05-7.6-.46-.68-.98-1.33-1.4-2.04-.84-1.42-1.66-2.85-2.42-4.31-.81-1.56-1.57-3.14-2.29-4.75-.47-1.05-.84-2.15-1.26-3.22-.59-1.49-1.05-3.01-1.32-4.58-.15-.92-.22-1.86-.44-2.76-.44-1.83-.55-3.69-.75-5.55-.23-2.13,.07-4.29-.39-6.41-.07-.31,0-.66,.03-.99,.05-.99,.1-1.98,.15-2.96,.08-1.65,.1-3.3,.26-4.94,.21-2.19,.52-4.36,.81-6.54,.17-1.31,.29-2.63,.57-3.91,.26-1.19,.47-2.37,.47-3.58,0-.38,.04-.77,.1-1.15,.24-1.68,.5-3.36,.77-5.04,.35-2.18,.82-4.32,1.52-6.4,.28-.85,.17-1.49-.4-2.11-.19-.2-.4-.39-.53-.63-.29-.52-.64-1.04-.79-1.61-.51-1.88-.47-3.81-.39-5.72,.02-.53,.29-1.05,.41-1.58,.07-.3,.09-.61,.12-.87-.48-.36-.92-.27-1.35-.21-3.16,.37-6.32,.78-9.49,1.09-3.17,.32-6.35,.54-9.53,.81-1.42,.12-2.85,.23-4.27,.41-1.8,.23-3.58,.57-5.4,.52-1.2-.03-2.41,0-3.74,0Zm-4.7-195.23c-.03,.38-.09,.75-.09,1.12,.03,2.86,.09,5.71,.09,8.57,0,2.25-.04,4.5-.08,6.76-.02,1.59-.09,3.19-.1,4.78,0,1.74,1.03,3.17,2.69,3.73,1.3,.44,2.6,.88,3.93,1.22,1,.26,1.48,.87,1.66,1.81,.05,.27,.05,.55,.08,.82,.24,3.01,.42,6.02,.25,9.04,0,.16,0,.35,.08,.48,.33,.54,.31,1.15,.39,1.75,.2,1.52,.67,3.01,.64,4.56,0,.16,.09,.31,.14,.47,.58,1.59,1.05,3.22,1.72,4.78,1.56,3.62,4.81,5.41,8.61,4.98,1.85-.21,3.48-.95,4.58-2.6,1.6-2.39,2.9-4.92,3.8-7.65,.45-1.38,.41-2.82,.59-4.23,.34-2.71,.34-5.48,1.88-7.94,.37-.59,.42-1.39,.29-2.21-.25-1.56-.32-3.18,.54-4.65,.17-.28,.25-.61,.38-.91,.76-1.66,1.65-3.26,2.9-4.58,1.73-1.83,3.03-3.91,4.06-6.17,.45-.98,.96-1.96,1.06-2.97-.32-.38-.63-.63-.79-.95-.54-1.1-1.26-2.06-2.19-2.84-1.2-.99-2.14-2.2-3.03-3.46-1.1-1.56-1.72-3.29-1.93-5.19-.23-2.07-.51-4.15-.81-6.21-.13-.92-.46-1.82-.54-2.74-.19-2-1.1-3.66-2.24-5.24-.47-.65-1.06-1.12-1.83-1.34-1.64-.47-3.29-.87-4.99-.25-.26,.09-.53,.17-.79,.21-2.2,.33-3.97,1.55-5.7,2.82-1.55,1.14-3.07,2.32-4.22,3.89-.13,.17-.32,.3-.48,.45-1.1,1.07-2.23,2.12-3.3,3.21-1.83,1.87-3.74,3.56-6.46,4.01-.88,.15-.97,.54-.57,1.66,.6-.27,1.22-.49,1.78-.82,1.8-1.05,3.51-.4,5.21,.22,.46,.17,.41,.75-.02,1.06-.45,.32-.93,.33-1.41,.17-.95-.3-1.84-.12-2.74,.21q-1.56,.58-3.03,.16Zm111.37,268.03c-.45,.22-.69,.32-.92,.45-.53,.29-1.04,.62-1.58,.88-2.04,.96-3.97,2.08-5.81,3.4-1.46,1.06-3.06,1.92-4.44,3.1-.08,.07-.18,.13-.28,.18-1.79,.94-3.56,1.94-5.39,2.8-1.29,.6-2.65,1.06-4.07,1.25-1.91,.25-3.83,.35-5.75,.38-1.98,.03-3.96,.17-5.9-.35-1.22-.33-2.41-.75-3.64-1.04-2.91-.7-5.37-2.19-7.61-4.1-4.53-3.86-7.53-8.84-10.31-13.99-.1-.19-.16-.41-.24-.61-.59-1.48-1.1-3-1.78-4.43-.95-2-1.6-4.09-2.03-6.26-.29-1.45-.52-2.92-.77-4.38-.54-3.09-1.02-6.18-1.62-9.26-.54-2.81-.98-5.62-1.15-8.48-.09-1.49,.04-2.97,.04-4.45,0-.93,.07-1.87,0-2.8-.24-3.35-.26-6.7-.24-10.05,0-.48-.05-.97-.08-1.51-2.15-.56-3.76-2.02-5.71-3.02-.13,.24-.27,.41-.33,.61-.33,1.22-.73,2.42-.94,3.66-.46,2.82-.81,5.65-1.22,8.47-.16,1.14-.34,2.27-.52,3.41-.28,1.73-.75,3.46-.8,5.19-.08,2.53-.62,5.01-.63,7.55,0,2.36-.12,4.72,.03,7.08,.08,1.32,.12,2.63,.22,3.95,.1,1.31,.24,2.62,.37,3.93,.06,.6,.13,1.19,.22,1.78,.19,1.3,.23,2.65,.63,3.88,.86,2.66,1.78,5.32,2.92,7.87,1.72,3.86,3.83,7.54,6.25,11.01,.31,.45,.55,.95,.89,1.38,.78,.99,1.6,1.95,2.41,2.91,.53,.63,1.04,1.29,1.64,1.84,1.79,1.65,3.8,2.98,5.93,4.15,.48,.26,.99,.54,1.51,.63,2.39,.43,4.64,1.33,6.92,2.11,1.62,.55,3.31,.74,4.95,1.16,1.78-.21,3.62,.22,5.37-.43,.35-.13,.75-.16,1.13-.23,2.48-.47,4.91-1.07,7.23-2.11,.49-.22,1.04-.37,1.57-.47,1.89-.35,3.8-.58,5.6-1.32,.4-.17,.85-.2,1.28-.28,1.46-.26,2.98-.34,4.37-.8,2.92-.98,5.95-1.57,8.86-2.55,1.86-.63,3.75-1.18,5.7-1.78,0-3.53-1.24-6.76-2.28-10.29ZM276.22,47.67c.09,.62,.15,1.21,.29,1.79,.07,.31,.3,.58,.43,.88,.75,1.71,1.68,3.33,2.27,5.12,.48,1.46,1.18,2.84,1.57,4.32,.44,1.65,1.05,3.23,1.54,4.86,.09,.3,.27,.57,.43,.88,.33-.03,.6-.05,.87-.09,1.03-.14,2.06-.3,3.1-.43,.87-.11,1.75-.13,2.62-.26,2.39-.34,4.78-.71,7.17-1.08,.48-.07,.95-.2,1.42-.31,.05-.31,.1-.52,.11-.74,.1-2.49-.28-4.93-.79-7.35-.36-1.72-.74-3.43-1.13-5.15-.19-.86-.38-1.71-.62-2.56-.23-.85-.58-1.67-.77-2.52-.33-1.47-1-2.78-1.78-4.05-.38-.62-.68-.85-.96-.69-.47,.28-.35,.76-.38,1.18,0,.11,.02,.22,.05,.32,.53,1.73,.77,3.53,1.48,5.22,.46,1.1,.71,2.3,.98,3.47,.09,.41,.01,.88-.09,1.29-.17,.69-.65,1.11-1.36,1.26-.71,.14-1.16-.2-1.48-.77-.16-.28-.35-.57-.44-.88-.62-2.16-1.51-4.25-1.96-6.46-.27-1.32-1.01-2.42-1.73-3.52-.09-.14-.41-.24-.56-.19-.15,.05-.33,.33-.32,.49,.11,1.52,.07,3.07,.78,4.49,.91,1.83,1.4,3.81,1.77,5.81,.1,.53,.1,1.1,.01,1.63-.13,.8-.88,1.15-1.61,.82-.82-.37-1.55-.89-1.94-1.71-.82-1.74-1.61-3.49-2.36-5.26-.56-1.32-1.15-2.62-2.12-3.7-.15-.17-.42-.23-.74-.4,0,.37-.04,.59,0,.78,.55,2.18,1.23,4.32,2.36,6.29,.59,1.02,.86,2.14,1.05,3.27,.21,1.22-.47,1.66-1.74,1.2-.3-.11-.59-.32-.8-.57-.52-.63-1.05-1.28-1.47-1.98-.73-1.22-1.35-2.51-2.07-3.73-.23-.39-.39-.93-1.08-1.01Zm144.45,255.01c1.51-.17,2,.13,2.2,1.48,.2,1.35,.31,2.72,.68,4.04,.06,.2-.03,.44,0,.65,.11,.62,.24,1.24,.37,1.89,.21-.1,.37-.13,.38-.18,.13-1.36,.27-2.72,.34-4.08,.07-1.26,.06-2.52,.1-3.78,.01-.49,.28-.8,.74-.98,.5-.2,.96-.22,1.44,.17,.41,1.19,.95,2.39,1.05,3.74,.07,.92,.25,1.83,.4,2.74,.05,.28,.17,.53,.59,.39,.09-1.23,.18-2.48,.26-3.73,.02-.38-.03-.77-.04-1.15-.04-1.59,.39-2.12,2-2.45,.55,.28,.91,.77,1.07,1.37,.15,.58,.25,1.18,.35,1.77,.06,.38,.01,.8,.15,1.14,.35,.81,.57,1.65,.71,2.52,.03,.19,.12,.54,.56,.43,0-.21,.06-.45-.01-.63-.46-1.15-.44-2.36-.51-3.57-.03-.6-.11-1.2-.17-1.81-.24-2.57-.74-5.11-.73-7.71,0-.87-.08-1.74,.02-2.62,.13-1.16-.15-2.28-.4-3.36-.12-.03-.18-.07-.22-.06-2.16,.65-4.42,.77-6.63,1.09-.96,.14-1.97,0-2.95-.04-.44-.02-.89-.2-1.3-.12-.85,.17-1.63,0-2.43-.22-.48-.13-.96-.25-1.48,.14-.26,1.35-.46,2.75-.35,4.18,.27,3.4,.54,6.79,.81,10.19,.02,.27,.02,.56,.09,.82,.45,1.65,.49,3.36,.71,5.04,.1,.81,.3,1.61,.49,2.41,.06,.24,.27,.31,.57,.14,.03-.55,0-1.16,.11-1.73,.27-1.31,.25-2.63,.19-3.95-.07-1.44-.12-2.85,.84-4.2Zm-43.92,153.79c-.25,.07-.37,.08-.45,.14-1.29,.83-2.58,1.66-3.86,2.49-.55,.36-1.15,.67-1.62,1.11-2.08,1.97-4.52,3.46-6.76,5.23-.34,.27-.74,.47-1.11,.71-1.38,.89-2.76,1.78-4.14,2.67-.18,.12-.37,.24-.57,.37,1.38,2.16,2.58,4.24,4.62,5.75,.52-.35,.97-.65,1.41-.97,1.72-1.27,3.49-2.46,5.31-3.59,1.39-.86,2.69-1.88,3.96-2.92,1.7-1.39,3.31-2.87,4.99-4.29,.53-.44,1.13-.8,1.83-1.28-.97-.74-1.32-1.71-1.79-2.63-.49-.98-1.02-1.94-1.82-2.79Zm84.25-59.11c.5-.07,.98-.02,1.34-.21,.96-.53,1.91-1.09,2.76-1.77,.53-.42,.99-.99,.92-1.83-.2-2.46-.32-4.92-.82-7.35-.3-1.45-.58-2.92-.63-4.4-.1-2.48-.6-4.9-.82-7.36-.05-.49-.08-1-.59-1.36-1.04,.15-2.04,.36-2.9,1.21-.6,.59-1.51,.86-2.28,1.28-.28,.15-.56,.31-.93,.51,.06,.5,.06,.99,.17,1.46,.21,.91,.49,1.8,.74,2.7,.25,.9,.56,1.79,.73,2.7,.58,2.96,.59,6,1.29,8.95,.08,.32,.08,.66,.07,.98-.03,1.5,.31,2.93,.97,4.5Zm-67.41-96.66c-3.08,.35-6.07,.69-9.11,1.04-.25,.65-.53,1.24-.72,1.86-.47,1.56-.43,3.16-.21,4.74,.09,.7,.23,1.48,.63,2.02,.78,1.05,1.64,2.09,2.67,2.89,1.16,.9,2.53,1.53,3.82,2.26,.17,.1,.41,.08,.7,.13,.06-.31,.12-.57,.15-.83,.23-1.85,.38-3.72,.69-5.56,.26-1.51,.73-2.99,1.05-4.49,.21-.97,.34-1.95,.46-2.93,.04-.36-.08-.73-.13-1.13Zm40.61-185.33c.36,0,.42,0,.47,0,.81-.04,1.35-.33,1.31-.73-.06-.61-.56-.75-1.03-.92-2.21-.8-4.49-1.01-6.82-.75-1.86,.21-3.71,.42-5.56,.66-3.63,.47-7.23,.48-10.8-.42-.48-.12-.97-.23-1.46-.28-1.44-.14-2.79-.6-4.15-1.04-1.25-.41-2.47-.93-3.75-1.26-2.92-.77-5.01-2.71-6.88-4.88-1.61-1.87-3.13-3.83-4.32-6.01-.13-.24-.29-.48-.49-.65-.31-.27-.69-.32-1.08-.18-.27,.1-.51,.64-.42,.99,.07,.26,.18,.52,.33,.75,.71,1.11,1.44,2.21,2.17,3.3,1.47,2.19,3.07,4.27,5.05,6.05,1.21,1.09,2.51,1.95,4.07,2.41,.37,.11,.73,.22,1.1,.34,2.15,.67,4.27,1.42,6.45,2,1.48,.4,3.01,.58,4.53,.83,.97,.17,1.95,.33,2.93,.44,3.09,.32,6.13-.16,9.19-.5,1.74-.19,3.49-.4,5.23-.61,.89-.1,1.75,.03,2.61,.22,.53,.12,1.08,.19,1.32,.23Zm-9.36-30.82c0-.69-.8-2.99-1.21-3.72-1.01-1.81-2.34-3.3-4.14-4.38-.62-.37-1.23-.71-1.95-.83-1.14-.18-2.28-.36-3.42-.52-.94-.13-1.87-.09-2.78,.17-1.21,.34-2.43,.69-3.62,1.1-2.71,.95-5.48,1.56-8.34,1.82-1.59,.14-3.17,.32-4.75,.49-.22,.02-.44,.03-.65,.09-.36,.1-.62,.63-.53,1.09,.07,.36,.29,.59,.65,.64,.27,.03,.55,.04,.82,.03,1.26-.09,2.52-.16,3.77-.29,1.47-.16,2.96-.31,4.41-.58,2.1-.4,4.2-.89,6.19-1.71,2.62-1.07,5.27-.85,7.94-.33,.31,.06,.61,.24,.89,.4,.47,.28,.9,.63,1.39,.88,.72,.36,1.23,.9,1.7,1.52,.84,1.12,1.29,2.41,1.69,3.73,.12,.42,.22,.86,.42,1.24,.11,.2,.42,.33,.67,.39,.31,.07,.51-.17,.62-.43,.12-.3,.19-.62,.24-.8Zm-36.23,5.16c-.34-.06-.6-.12-.87-.14-.87-.08-1.75-.07-2.61-.23-1.13-.21-2.22-.61-3.36-.8-1.23-.21-2.3-.7-3.27-1.47-1.07-.86-2.15-1.72-3.21-2.59-1.03-.84-2.13-1.54-3.37-2.05-.71-.29-1.39-.66-2.06-1.03-2.23-1.25-4.65-1.57-7.16-1.46-2.09,.09-3.93,.99-5.78,1.81-.34,.15-.65,.41-.92,.67-.29,.28-.28,.7-.05,1.06,.2,.31,.48,.49,.83,.39,.47-.13,.94-.3,1.39-.5,1.21-.54,2.44-1.01,3.74-1.27,2.41-.49,4.69-.13,6.88,.96,.64,.32,1.28,.61,1.92,.92,1.54,.74,3.03,1.54,4.24,2.79,.61,.63,1.28,1.22,1.98,1.74,1.29,.95,2.68,1.7,4.32,1.9,1.09,.14,2.16,.4,3.24,.6,1.04,.19,2.07,.24,3.12,.01,.61-.13,.97-.47,.99-1.32Zm50.8,20.04c.48-.95,.5-1.02,.12-1.49-.31-.38-.66-.74-1.04-1.05-.68-.56-1.39-1.08-2.09-1.61-.76-.57-1.58-1-2.52-1.15-1.4-.24-2.81-.47-4.22-.65-3.21-.42-6.39-.99-9.65-1.02-2.08-.02-3.95-.81-5.57-2.17-.68-.57-1.31-1.15-1.82-1.87-.31-.44-.72-.83-1.16-1.13-.5-.34-1.17,.13-1.09,.75,.04,.32,.17,.63,.3,.93,.58,1.3,1.64,2.16,2.71,3.04,2.07,1.71,4.44,2.52,7.11,2.56,1.65,.02,3.29,.08,4.92,.38,1.56,.29,3.14,.53,4.72,.67,2.33,.21,4.58,.51,6.36,2.25,.43,.42,.96,.73,1.43,1.11,.45,.36,.94,.52,1.49,.47Zm-46.43,367.92c-.25,.2-.56,.34-.74,.59-1.04,1.44-2.33,2.61-3.67,3.76-.54,.46-1,1.02-1.5,1.53-1.72,1.77-3.42,3.56-5.31,5.15-1.47,1.24-2.96,2.45-4.37,3.75-2.1,1.93-4.12,3.94-6.2,5.89-.92,.86-1.89,1.67-2.86,2.47-.72,.59-1.48,1.13-2.21,1.71-.09,.07-.08,.25-.2,.64,.93-.63,1.63-1.13,2.35-1.61,.86-.58,1.75-1.12,2.6-1.73,.88-.63,1.67-1.44,2.61-1.94,.75-.4,1.29-.93,1.89-1.49,2.2-2.05,4.41-4.1,6.74-5.98,2.14-1.73,4.16-3.58,6.12-5.49,1.81-1.76,3.49-3.65,5.21-5.5,.49-.53,.48-.8-.01-1.43-.09-.12-.26-.18-.45-.32Zm57.01-370.14c-.02-.1-.06-.38-.16-.62-.81-1.98-1.66-3.93-2.94-5.68-1.39-1.89-3.07-3.28-5.4-3.8-1.66-.37-3.35-.65-4.97-1.17-2.04-.66-4.15-.44-6.21-.73-.39-.06-.71,.29-.75,.72-.05,.52,.21,.96,.78,1.11,.63,.17,1.29,.3,1.94,.34,2.65,.14,5.2,.84,7.77,1.43,.59,.13,1.16,.33,1.74,.53,.89,.31,1.74,.74,2.39,1.42,1.36,1.45,2.51,3.05,3.19,4.95,.33,.93,.69,1.85,1.08,2.76,.21,.48,.72,.49,1.08,.12,.32-.34,.48-.73,.46-1.37Zm-104.92,197.76c-1.13-.36-2.09-.3-3.05-.04-.15,.04-.29,.15-.42,.25-1.98,1.53-4.05,2.97-5.54,5.04-.93,1.29-1.8,2.62-2.68,3.94-.16,.24-.17,.52,.23,.75,.9-.35,1.85-.78,2.83-1.08,1.83-.56,3.31-1.67,4.8-2.79,.99-.74,1.65-1.75,2.26-2.8,.41-.71,.77-1.45,1.13-2.18,.14-.29,.23-.6,.42-1.09Zm31.12-235.98c-.38,.02-.6,0-.81,.04-1.81,.27-3.48,.95-5.12,1.73-.1,.05-.19,.11-.27,.19-.24,.26-.34,.55-.2,.9,.13,.34,.39,.56,.74,.55,.32,0,.65-.1,.96-.2,.73-.23,1.45-.52,2.18-.74,1.27-.37,2.57-.71,3.88-.31,1.97,.59,3.79,1.47,5.16,3.08,.32,.38,.59,.79,.88,1.19,.31,.42,.7,.69,1.23,.74,.32,.03,.67-.27,.65-.59-.01-.21-.03-.45-.13-.63-2.03-3.65-5.25-5.45-9.15-5.95Zm110.17,344.27c.71-.95,1.35-1.91,1.03-3.24-.14-.58-.09-1.2-.11-1.8-.07-1.91-.14-3.83-.21-5.74-.02-.6-.08-1.21-.06-1.81,.13-4.12-.04-8.23-.8-12.3-.04-.22-.14-.43-.22-.64-.22,.3-.22,.57-.22,.83,.02,1.92,.04,3.84,.07,5.76,.02,1.59,.04,3.18,.05,4.78,.01,1.37-.05,2.75,.02,4.12,.06,1.21,.13,2.4-.04,3.61-.12,.81-.09,1.65,0,2.46,.13,1.1,.24,2.18,.07,3.28-.04,.27,0,.55,.4,.69ZM347.9,82.06c-.17-.62-.32-1.03-.39-1.46-.1-.69,.07-1.34,.65-1.77,1.03-.75,2.14-1.33,3.48-1.26,.55,.03,1.1,.05,1.64,.03,.4-.02,.63-.42,.58-.84-.06-.51-.41-.74-.83-.93-2.26-1.04-5.56,.14-6.65,1.55-.68,.89-.91,1.86-.89,2.93,.02,1,.43,1.79,1.3,2.48l1.1-.73Zm62.43,7.42c-.69-1.38-1.84-1.88-3.02-2.34-.3-.12-.65-.13-.94-.27-2.6-1.23-5.24-.82-7.87-.15-.1,.03-.25,.07-.28,.15-.1,.24-.23,.5-.21,.74,.01,.16,.26,.44,.4,.44,.76,.02,1.53,.03,2.28-.07,.98-.13,1.99-.38,2.94-.12,1.83,.5,3.74,.88,5.28,2.15,.2,.16,.48,.21,.78,.33l.66-.86Zm74.91,294.58q.25-1.23-.37-2.14c.02,.32,.01,.53,.05,.73,.09,.47,.21,.94,.32,1.41Zm-110.14-237.34s.04-.08,.04-.11c0-.02-.06-.03-.09-.05-.02,.04-.04,.08-.04,.11,0,.02,.06,.03,.09,.05Zm23.94-2.04l-.13,.05,.13,.05v-.1Z"/><path d="M41.65,449.11c-.33-.8-.62-1.45-.87-2.1-.38-.97-.74-1.95-1.09-2.94-.2-.57-.32-1.16-.54-1.72-.22-.57-.06-1.05,.3-1.62-.66-.2-1.26-.39-1.96-.6,.39-.68,.93-1.06,1.46-1.41,1.94-1.26,3.83-2.58,5.59-4.09,1.73-1.49,3.72-2.53,5.81-3.4,.67-.28,1.23-.65,1.77-1.16,1.52-1.43,3.06-2.84,4.68-4.16,1.48-1.2,2.96-2.46,4.16-3.98,.17-.21,.37-.41,.58-.59,1.81-1.45,3.25-3.27,4.85-4.93,2.14-2.22,3.99-4.69,6.05-6.97,.48-.53,.87-1.13,1.32-1.69,.89-1.12,1.81-2.22,2.67-3.35,.7-.92,1.38-1.86,2.01-2.82,1.18-1.79,2.43-3.53,3.4-5.45,.66-1.32,1.61-2.49,2.4-3.75,.52-.84,1-1.71,1.46-2.58,1.98-3.74,3.96-7.48,5.92-11.23,2.15-4.1,4.01-8.31,5.31-12.77,.6-2.06,1.41-4.05,2.07-6.09,1.75-5.38,3.54-10.75,4.73-16.3,.86-4.03,1.93-8.01,2.88-12.02,.43-1.82,.83-3.64,1.17-5.48,.78-4.21,1.51-8.43,2.27-12.65,.16-.87,.38-1.72,.54-2.58,.23-1.24,.44-2.49,.64-3.73,.34-2.06,.63-4.13,1.01-6.18,.13-.69-.03-1.44,.38-2.09,.09-.14,.04-.43-.05-.6-.3-.63-.28-1.28-.2-1.94,.2-1.58,.39-3.16,.58-4.74,.04-.38,.04-.77,.07-1.15,.1-1.26,.24-2.51,.31-3.77,.07-1.26,.09-2.53,.13-3.79,0-.27-.02-.55,0-.82,.19-2.79,.41-5.59,.58-8.38,.11-1.81,.16-3.62,.24-5.43,.04-.88,.08-1.76,.14-2.63,.19-2.69,.39-5.37,.58-8.06,.03-.38,.04-.77,.04-1.15-.06-3.31,.2-6.59,.59-9.87,.18-1.53,.29-3.06,.4-4.6,.15-1.92,.28-3.84,.4-5.76,.24-3.9,.47-7.79,.69-11.69,.17-3.13,.37-6.26,.45-9.39,.08-3.13-.01-6.27,.05-9.4,.05-2.97,.2-5.93,.31-8.9,.14-3.95,.57-7.9,.33-11.87-.04-.59-.15-1.18-.24-1.88-.36,.08-.63,.08-.85,.19-1.38,.67-2.74,1.37-3.83,2.52-.6,.63-1.44,1.02-2.08,1.62-2.77,2.59-5.42,5.29-7.3,8.64-.27,.48-.6,.92-.92,1.37-1.31,1.87-2.19,3.95-2.82,6.11-.58,2-.97,4.06-1.32,6.12-.53,3.14-.98,6.3-1.42,9.45-.45,3.21-.87,6.42-1.26,9.64-.15,1.25-.16,2.52-.32,3.77-.26,2.07-.53,4.13-.91,6.18-.51,2.76-.87,5.54-1.15,8.33-.2,2.02-.51,4.03-.77,6.05-.31,2.35-.57,4.69-.59,7.06-.01,1.81-.31,3.61-.47,5.41-.15,1.64-.37,3.28-.4,4.93-.06,3.57-.07,7.15,.03,10.72,.04,1.38-.11,2.73-.2,4.09-.02,.27-.1,.54-.18,.8-.54,1.61-1.08,3.22-1.65,4.81-.48,1.34-1.03,2.66-1.53,4-.78,2.12-1.9,4.08-2.91,6.09-1.02,2.01-2.1,3.98-3.22,5.94-.6,1.05-1.33,2.02-2.01,3.01-.43,.64-.9,1.25-1.31,1.9-.61,.95-1.48,1.63-2.35,2.29-.73,.55-1.65,.28-2.09-.53-.08-.14-.06-.33-.13-.48-.06-.14-.16-.26-.3-.46-.48,.32-.91,.64-1.38,.9-.28,.15-.61,.25-.92,.26-.9,.01-1.2-.29-1.38-1.24-.04-.2-.09-.4-.16-.69-.67,.14-.91,.69-1.29,1.03-.67,.61-1.16,.68-1.95,.32-.37-.18-.62-.45-.73-.84-.08-.31-.14-.63-.23-1.07-.45,.11-.85,.24-1.26,.31-.97,.15-1.58-.38-1.61-1.37-.02-.94,.1-1.86,.53-2.72,1.08-2.22,2.07-4.5,3.23-6.68,1.48-2.78,2.7-5.67,3.7-8.63,.98-2.91,2-5.83,2.28-8.93,.04-.43,.13-.91,.36-1.24,.39-.54,.43-1.11,.44-1.71,.01-2.69,0-5.39,.06-8.08,.05-2.53,.2-5.05,.25-7.58,.07-3.52,.08-7.03,.13-10.55,.03-2.14,.17-4.29,.09-6.43-.06-1.81-.22-3.62-.1-5.43,.02-.38,.03-.77,.07-1.15,.22-1.75,.26-3.5,.2-5.27-.05-1.75-.01-3.51,.18-5.27,.17-1.57-.05-3.18-.04-4.78,0-1.48,.06-2.96,.1-4.44,.04-1.54,.08-3.08,.13-4.62,.06-2.09,.13-4.17,.18-6.26,.06-2.59,.43-5.14,.67-7.71,.35-3.7,1.21-7.25,2.3-10.77,.54-1.73,1.04-3.47,1.6-5.2,.94-2.89,2.23-5.61,3.86-8.17,.18-.28,.39-.54,.52-.84,.77-1.84,1.91-3.47,3.07-5.06,1.39-1.9,2.96-3.67,4.7-5.28,.8-.75,1.58-1.53,2.47-2.16,2.02-1.43,4.09-2.77,6.14-4.15,2.85-1.14,5.58-2.57,8.57-3.35,1.45,.06,2.79-.54,4.2-.74,2.4-.34,4.72-1.06,6.97-1.96,2.16-.86,4.37-1.46,6.69-1.68,.16-.02,.33-.02,.49-.06,2.37-.62,4.8-.5,7.22-.54,1.91-.03,3.85,.06,5.73-.41,.26-.06,.5-.18,.81-.3,.18-2.66-.31-5.29,.29-7.89-.45-.2-.74-.33-1.03-.46-3.19-1.45-5.4-3.72-6.08-7.27-.18-.92-.37-1.83-.53-2.75-.16-.88-.11-1.75,.05-2.62,.13-.7,.22-1.42,.23-2.13,0-.93-.29-1.26-1.17-1.56-.94-.32-1.88-.63-2.82-.92-1.04-.32-1.66-1.01-1.99-2.02-.37-1.15-.68-2.32-.78-3.53-.08-1.01,.05-1.96,.41-2.91,.76-1.98,1.99-3.66,3.25-5.34,.42-.57,.79-1.19,1.14-1.8,.24-.41,.23-.87-.03-1.26-.39-.59-.74-1.26-1.27-1.7-1.31-1.09-2.11-2.52-2.95-3.93-.6-1.02-.83-2.14-.64-3.33,.03-.16,.05-.33,.05-.49,0-2.86,1.58-4.96,3.37-6.95,.75-.84,1.78-1.3,2.81-1.69,1.69-.63,2.77-1.95,3.87-3.24,.26-.3,.41-.81,.39-1.21-.08-2.23,.83-4.18,1.7-6.13,.23-.52,.69-1.01,1.17-1.35,2.12-1.51,4.43-2.68,6.96-3.31,1.24-.31,2.52-.21,3.77,.06,2.31,.51,4.66,.78,7,1.08,1.27,.16,2.39-.08,3.46-.77,.74-.48,1.5-.93,2.25-1.37,.94-.55,1.95-.77,3.02-.54,2.2,.48,4.44,.76,6.55,1.64,1.53,.64,2.54,1.69,3.14,3.18,.1,.25,.19,.52,.24,.79,.28,1.68,1.16,3.07,2.17,4.39,.57,.75,1,1.56,1.39,2.42,1.09,2.4,2.24,4.77,3.37,7.15,.19,.4,.39,.79,.54,1.2,.95,2.46,1.95,4.9,2.82,7.39,.76,2.18,1.37,4.4,2.05,6.61,.06,.21,.07,.44,.15,.64,.59,1.44,.31,2.92,.27,4.39-.02,.78-.46,1.35-1.06,1.78-.89,.63-1.82,1.22-2.74,1.81-.46,.3-.95,.56-1.41,.85-.61,.38-.94,.91-.79,1.66,.32,1.58,.03,3.17,.04,4.75,.03,2.25,.09,4.5,.19,6.75,.11,2.33-.07,4.6-.88,6.81-.59,1.59-1.68,2.83-2.84,4-.29,.3-.74,.47-1.15,.62-.77,.28-1.56,.53-2.35,.75-.81,.22-1.5,.62-2.22,1.05-.86,.52-1.2,1.27-1.27,2.17-.09,1.15-.09,2.3-.12,3.45,0,.09,.09,.19,.13,.27,.66,.54,1.47-.19,2.2,.38,.57,.44,1.42,.53,2.15,.77,.36,.12,.75,.21,1.09,.38,1.31,.64,2.74,.77,4.15,.95,.71,.09,1.42,.15,2.12,.28,2.23,.38,4.47,.58,6.73,.57,2.69-.01,5.38-.09,8.06-.19,2.32-.08,4.58-.52,6.8-1.18,1.84-.55,3.67-1.16,5.49-1.79,2.14-.73,4.08-1.91,6.09-2.92,2.08-1.05,3.97-2.36,5.67-3.93,.52-.48,.97-1.04,1.4-1.6,1.84-2.35,3.15-5.01,4.45-7.68,1.77-3.63,3.05-7.41,3.97-11.33,.16-.69,.31-1.4,.37-2.11,.12-1.6,.54-3.13,.86-4.69,.62-3.01,1.16-6.04,1.75-9.06,.4-2.05,.88-4.09,1.22-6.15,.46-2.76,.84-5.54,1.2-8.32,.45-3.48,.78-6.97,1.29-10.44,.22-1.52,.17-3.06,.44-4.57,.38-2.13,.25-4.27,.26-6.41,0-.61,.01-1.21,.04-1.82,.02-.51,.15-.97,.65-1.25,.75-.42,.99-1.12,1.03-1.94,.08-1.53,.2-3.07,.31-4.6,.1-1.26,.3-2.51,.3-3.77,0-1.45,.24-2.83,.67-4.2,.16-.52,.28-1.07,.36-1.61,.26-1.81,.89-3.51,1.62-5.17,.33-.75,.56-1.55,.92-2.29,.31-.63,.69-1.26,1.15-1.8,1.25-1.46,2.56-2.87,3.8-4.24h1.67c.53,.54,.67,1.11,.46,1.73-.24,.73-.51,1.44-.79,2.16-.16,.41-.36,.79-.52,1.2-.03,.08,.03,.22,.1,.29,.06,.07,.19,.08,.36,.15,.59-.9,1.2-1.8,1.68-2.78,.6-1.26,1.76-1.77,2.97-2.17,.62-.21,1.24,.28,1.27,.92,.07,1.12-.19,2.17-.69,3.17-.11,.22-.23,.44-.35,.66,.45,.26,.61-.02,.72-.24,.45-.85,1.15-1.47,1.84-2.1,.58-.52,1.38-.48,1.87,.12,.35,.43,.62,.91,.38,1.52-.18,.45-.39,.92,.06,1.46,.5-.27,1-.62,1.64-.48,.52,.11,.75,.29,.92,.81,.3,.9,.07,1.77-.3,2.56-.83,1.78-1.74,3.51-2.76,5.21-1.87,3.1-3.57,6.3-4.3,9.91-.38,1.88-.87,3.73-1.27,5.61-.15,.7-.23,1.41-.26,2.12-.06,1.59-.1,3.18-.1,4.77,0,1.92-.05,3.84-.2,5.76-.16,2.02-.08,4.07-.12,6.1-.04,2.31,.01,4.62-.15,6.92-.2,2.79-.32,5.59-.71,8.36-.45,3.2-.76,6.43-1.1,9.65-.23,2.18-.38,4.38-.62,6.56-.2,1.8-.54,3.57-.91,5.35-.56,2.68-.89,5.42-1.22,8.14-.45,3.76-.77,7.53-1.85,11.19-.58,1.94-.97,3.94-1.45,5.91-.05,.21-.07,.44-.15,.64-.93,2.34-1.75,4.75-2.86,7-.77,1.57-1.53,3.15-2.36,4.7-1.02,1.9-2.18,3.63-3.65,5.24-1.54,1.69-3.36,2.99-5.03,4.48-2.63,2.34-5.37,4.54-8.37,6.4-1.68,1.04-3.27,2.22-4.94,3.29-1.34,.86-2.76,1.55-4.36,1.88-.9,.19-1.74,.66-2.58,1.06-2.41,1.13-4.96,1.77-7.57,2.2-1.95,.32-3.89,.65-5.85,.91-1.47,.19-2.95,.28-4.42,.42-1.91,.17-3.82,.33-5.73,.53-.53,.05-1.06,.22-1.51,.32-.11,.19-.19,.28-.2,.38-.2,1.96-.42,3.93-.57,5.9-.06,.87,.07,1.75,.06,2.63,0,1.21-.07,2.41-.1,3.62-.02,.55-.11,1.11-.03,1.64,.34,2.35,.14,4.72,.3,7.07,.19,2.85-.2,5.71,.04,8.55,.15,1.82,.1,3.61-.08,5.42-.11,1.03-.02,2.09-.03,3.13-.01,1.92-.02,3.85-.04,5.77-.02,2.36-.02,4.72-.08,7.09-.04,1.59-.18,3.17-.29,4.76-.19,2.8-.38,5.59-.61,8.39-.18,2.19-.41,4.37-.6,6.56-.04,.44,0,.88-.03,1.32-.24,4-.44,8.01-.74,12.01-.24,3.23-.56,6.46-.9,9.68-.34,3.28-.68,6.56-1.15,9.82-.21,1.46-.37,2.91-.43,4.39-.06,1.37-.35,2.72-.59,4.08-.06,.36-.31,.69-.49,1.01-.39,.69-.43,.97,.06,1.48,1.25,1.3,2.46,2.62,4.09,3.54,2.45,1.38,4.95,2.63,7.59,3.55,1.45,.5,2.95,.86,4.44,1.22,2.08,.5,4.19,.88,6.27,1.4,1.81,.45,3.62,.91,5.33,1.7,.99,.46,2.06,.76,3.07,1.19,1.52,.64,3.01,1.33,4.52,1.97,1.92,.81,3.87,1.57,5.78,2.4,1.25,.55,2.48,1.17,3.7,1.8,.88,.45,1.73,.95,2.58,1.45,.85,.5,1.73,.98,2.53,1.56,2.44,1.78,4.93,3.51,7.11,5.62,.87,.84,1.74,1.7,2.45,2.67,.85,1.17,1.91,2.12,2.91,3.14,1.67,1.69,3.12,3.55,4.43,5.52,.64,.95,1.11,2.02,1.66,3.02,.95,1.73,1.97,3.43,2.84,5.19,.48,.97,1.01,1.96,1.05,3.1,.01,.27,.09,.55,.18,.8,.78,2.13,1.19,4.33,1.42,6.58,.18,1.75,.48,3.48,.7,5.22,.23,1.85,.42,3.7,.38,5.58-.02,1.31,.22,2.62,.2,3.93-.05,3.41-.12,6.82-.29,10.22-.11,2.3-.36,4.6-.64,6.89-.27,2.18-.64,4.35-.99,6.52-.29,1.79-.65,3.57-.91,5.36-.31,2.12-.53,4.25-.84,6.37-.44,2.99-.9,5.98-1.39,8.96-.48,2.93-1.01,5.85-1.54,8.77-.35,1.89-.79,3.76-1.1,5.66-.4,2.44-1.05,4.84-1.25,7.31-.04,.49-.03,1-.49,1.41-2.43,0-4.9,0-7.37,0-.22,0-.44-.05-.65-.11-1.29-.33-2.58-.52-3.91-.38-.21,.02-.43-.07-.73-.12-.05-.43-.17-.87-.13-1.29,.13-1.26,.28-2.51,.52-3.75,.46-2.37,1-4.73,1.46-7.1,.22-1.13,.35-2.28,.51-3.43,.43-3.16,.7-6.35,1.33-9.47,.53-2.59,.76-5.22,1.18-7.82,.17-1.03,.14-2.09,.29-3.12,.4-2.88,.94-5.75,1.25-8.65,.31-2.84,.63-5.68,.58-8.54-.02-1.26,.1-2.52,.16-3.79,.07-1.48,.16-2.96,.23-4.44,.04-.93,.02-1.87,.12-2.8,.14-1.43,.15-2.85,.05-4.28-.07-1.04,.07-2.09-.01-3.13-.18-2.24-.33-4.49-.99-6.66-.52-1.74-1.02-3.48-1.58-5.2-.43-1.32-1.12-2.5-1.95-3.61-.26-.35-.54-.7-.73-1.09-.81-1.66-1.97-3.03-3.26-4.32-1.28-1.28-2.46-2.66-3.76-3.93-1.14-1.11-2.35-2.16-3.57-3.17-2.13-1.76-4.5-3.13-6.9-4.49-3.2-1.82-6.33-3.76-9.51-5.62-.76-.44-1.57-.79-2.38-1.14-2.27-.99-4.59-1.82-6.92-2.64-1.61-.56-3.12-1.34-4.78-1.8-3.71-1.02-7.31-2.37-10.86-3.85-1.16-.49-2.31-1.01-3.46-1.54-.87-.39-1.54-1.05-2.2-1.72-.35-.35-.65-.74-1.02-1.08-.57-.52-1.17-1-1.76-1.5-.67,.06-1.23,.23-1.42,.93-.17,.63-.06,1.24,.46,1.65,1.22,.95,1.98,2.37,3.3,3.21,.46,.29,.93,.57,1.43,.8,1.09,.52,2.21,.98,3.3,1.5,1.59,.76,3.25,1.33,4.96,1.76,1.17,.29,2.29,.76,3.43,1.14,1.2,.4,2.42,.74,3.61,1.17,1.86,.67,3.71,1.38,5.55,2.09,1.9,.73,3.8,1.44,5.67,2.23,.86,.36,1.65,.88,2.46,1.33,1.34,.75,2.68,1.5,4.01,2.28,.8,.47,1.58,1,2.37,1.48,1.13,.68,2.25,1.37,3.4,2.02,1.63,.92,3.21,1.89,4.71,3.03,2.16,1.64,4.11,3.46,5.9,5.48,.98,1.11,2.07,2.13,3.13,3.16,.83,.82,1.52,1.73,2.05,2.77,.27,.54,.56,1.09,.94,1.55,1.04,1.26,1.65,2.73,2.1,4.26,.75,2.53,1.59,5.03,1.79,7.69,.07,.88,.13,1.75,.17,2.63,.07,1.76,.14,3.52,.17,5.28,.01,.6-.1,1.2-.13,1.8-.15,3.73-.29,7.47-.45,11.2-.09,2.19-.17,4.39-.3,6.58-.05,.87-.25,1.74-.39,2.6-.38,2.39-.81,4.77-1.15,7.17-.2,1.41-.22,2.85-.36,4.27-.24,2.35-.57,4.68-1.14,6.98-.26,1.06-.41,2.16-.48,3.26-.13,2.2-.61,4.35-.82,6.54-.16,1.59-.49,3.13-.87,4.68-.48,1.97-.86,3.97-1.21,5.97-.21,1.19-.3,2.39-.46,3.59-.02,.15-.1,.3-.19,.53-1.58,.1-3.17,.05-4.72-.32-.87-.21-1.73-.28-2.61-.33-1.97-.1-3.91-.41-5.9-.62-.08-.69,0-1.27,.13-1.86,.45-2.04,.9-4.07,1.31-6.12,.2-.97,.35-1.94,.47-2.92,.3-2.34,.53-4.69,.87-7.03,.18-1.25,.5-2.48,.79-3.71,.86-3.65,1.19-7.37,1.65-11.08,.05-.38,.08-.77,.14-1.14,.29-1.73,.61-3.46,.89-5.2,.46-2.93,.89-5.87,1.33-8.81,.02-.11,.03-.22,.06-.32,1.38-4.77,.88-9.59,.4-14.4-.13-1.34-.69-2.65-1.09-3.96-.4-1.31-.89-2.59-1.28-3.91-.34-1.18-.9-2.24-1.59-3.24-.66-.95-1.3-1.91-1.95-2.86-.79-1.14-1.87-2-2.91-2.9-1.42-1.23-2.87-2.37-4.63-3.1-1.11-.46-2.12-1.16-3.21-1.68-2.73-1.32-5.63-2.17-8.48-3.17-.52-.18-1.06-.3-1.56-.52-2.19-.94-4.51-1.39-6.83-1.86-1.72-.35-3.44-.72-5.16-1.09-4.19-.9-8.41-1.63-12.66-2.14-1.09-.13-2.19-.17-3.29-.25-2.08-.16-4.16-.31-6.24-.49-2.46-.21-4.92-.45-7.36-.86-3.47-.59-6.91-1.31-10.34-2.09-1.87-.43-3.77-.79-5.6-1.36-1.45-.45-2.92-.96-4.14-1.97-.38-.31-.87-.48-1.26-.79-1.01-.79-1.86-1.71-2.38-2.91-.22-.5-.45-.99-.66-1.44q-1.15-.21-1.88,.37c.37,2.48,1.5,4.53,3.62,5.98,1.08,.74,2.19,1.44,3.34,2.19-.25,.99-.47,2-.78,2.99-.41,1.27-.6,2.56-.74,3.87-.02,.22-.05,.44-.12,.65-.95,2.75-1.76,5.56-2.91,8.23-1.58,3.69-2.88,7.48-4.43,11.17-.93,2.23-1.7,4.53-2.66,6.74-1.1,2.51-2.34,4.97-3.64,7.39-1.12,2.08-2.34,4.1-3.63,6.07-1.29,1.97-2.7,3.87-4.09,5.78-1.33,1.82-2.66,3.63-4.05,5.41-.88,1.13-1.84,2.18-2.79,3.26-1.09,1.24-2.18,2.47-3.28,3.69-1.18,1.3-2.38,2.59-3.55,3.9-1.9,2.13-3.8,4.26-5.68,6.41-1.99,2.26-3.94,4.56-6.08,6.69-.19,.19-.36,.41-.53,.63-1.08,1.39-2.38,2.57-3.66,3.76-1.08,1.01-2.1,2.09-3.2,3.09-3.03,2.79-6.12,5.51-9.4,8.02-1.48,1.13-2.87,2.39-4.4,3.47-1.62,1.14-3.16,2.37-4.72,3.58-1.38,1.08-2.92,1.95-4.38,2.93-.96,.64-1.88,1.34-2.84,1.97-.96,.63-1.92,1.29-2.95,1.79-2.23,1.08-4.37,2.3-6.5,3.55-.14,.08-.31,.11-.45,.16-.48-.09-.69-.47-.71-.83-.09-1.41-1.07-2.36-1.76-3.46-.69-1.12-1.5-2.16-2.25-3.25-.12-.18-.2-.38-.29-.56,.28-.57,.79-.8,1.26-1.07,1.19-.67,2.42-1.28,3.6-1.97,1.42-.83,2.81-1.7,4.19-2.6,1.88-1.23,3.73-2.51,5.61-3.74,1.15-.75,2.4-1.36,3.5-2.18,1.41-1.04,2.78-2.16,4.05-3.37,2.07-1.97,4.08-4,6.05-6.06,2.35-2.46,4.69-4.93,6.68-7.72,1.11-1.56,2.44-2.96,3.63-4.47,.81-1.04,1.53-2.15,2.31-3.21,.68-.93,1.39-1.83,2.08-2.75,.59-.79,1.18-1.58,1.76-2.38,.76-1.07,1.52-2.15,2.26-3.24,.86-1.27,1.7-2.56,2.54-3.85,1.05-1.61,2.11-3.21,3.15-4.83,.71-1.11,1.38-2.24,2.09-3.35,1.38-2.18,2.8-4.33,4.16-6.53,.78-1.26,1.47-2.58,2.17-3.88,1.18-2.17,2.35-4.35,3.52-6.53,1.01-1.89,2.02-3.77,3.04-5.65,.29-.53,.6-1.04,.91-1.56,.11-.19,.25-.36,.35-.56,1.72-3.25,3.43-6.5,5.17-9.74,1.43-2.67,2.43-5.52,3.68-8.27,.23-.5,.37-1.03,.54-1.55,.37-1.09,.77-2.17,1.1-3.27,.45-1.47,.86-2.95,1.26-4.43,.12-.43-.05-.82-.37-1-.45-.25-1.07-.15-1.34,.24-.13,.18-.22,.38-.29,.59-.2,.51-.39,1.03-.56,1.55-.79,2.46-1.57,4.92-2.35,7.38-.05,.16-.11,.31-.18,.46-1.01,2.25-1.97,4.53-3.05,6.75-1.27,2.62-2.65,5.19-3.99,7.77-.35,.68-.73,1.35-1.1,2.02-2.58,4.61-5.2,9.19-7.73,13.82-1.18,2.17-2.23,4.41-3.59,6.49-1.15,1.74-2.3,3.49-3.43,5.24-1.66,2.59-3.27,5.22-4.97,7.78-2.49,3.75-4.91,7.56-7.76,11.07-.76,.94-1.4,1.98-2.17,2.91-2.71,3.32-5.15,6.86-8.08,10-2.03,2.17-4.13,4.27-6.14,6.46-1.56,1.71-3.34,3.18-5.11,4.66-1.17,.98-2.54,1.72-3.83,2.55-.78,.51-1.57,1.01-2.36,1.51-.65,.41-1.3,.81-1.95,1.23-.83,.54-1.63,1.11-2.47,1.64-1.54,.96-3.07,1.92-4.64,2.85-1.14,.67-2.3,1.29-3.47,1.91-.33,.18-.69,.3-1.27,.54Zm105.33-147.83c.09-.25,.16-.35,.17-.45,.26-2.57,.51-5.13,.77-7.7,.03-.33,.12-.65,.14-.98,.09-1.31,.17-2.63,.23-3.94,.03-.49-.03-.99,.02-1.48,.24-2.57,.5-5.14,.75-7.71,.03-.27,.04-.55,.1-.82,.22-1,.44-1.97,.46-3.03,.03-1.69,.34-3.38,.57-5.07,.45-3.27,.85-6.54,.94-9.84,.01-.55,.07-1.1,.14-1.64,.65-4.85,.95-9.74,1.38-14.61,.27-3.01,.65-6.01,.97-9.01,.14-1.37,.31-2.73,.36-4.11,.15-3.68,.26-7.36,.38-11.04,.12-3.96,.23-7.91,.35-11.87,.02-.66,0-1.34,.13-1.97,.28-1.26,.08-2.52,.17-3.77-.65-1.88,.26-3.82-.22-5.71-.04-.15,.06-.32,.07-.49,.05-.77,.12-1.53,.14-2.3,.05-1.97,.03-3.95,.11-5.92,.13-2.96,.35-5.92,.46-8.88,.05-1.31-.08-2.63-.11-3.95-.01-.55-.06-1.11,.03-1.64,.28-1.85,.43-3.66-.04-5.54-.42-1.68-.85-3.39-.95-5.15-.05-.86-.41-1.7-.63-2.55-.05-.21-.11-.42-.14-.64-.12-1.03-.22-2.07-.35-3.1-.08-.65-.24-1.27-.87-1.75-.24,.29-.47,.53-.65,.79-.88,1.32-1.83,2.61-2.61,3.99-1.54,2.72-3,5.49-4.48,8.24-.6,1.12-1.26,2.19-2.21,3.04-.21,.18-.56,.21-.92,.34-.5-1.93-.79-3.76-.88-5.63-.08-1.59-.16-3.18-.36-4.76-.23-1.8-.5-3.59-.5-5.41,0-.25-.13-.5-.21-.8-.35,0-.62-.01-.89,0-1.15,.07-2.3,.18-3.45,.21-.98,.03-1.97-.03-2.96-.05-1.94-.04-3.83,.37-5.72,.65-2.12,.32-4.17,.94-5.99,2.21,0,.63-.06,1.23,.01,1.82,.18,1.43,.18,2.85,.07,4.27-.08,1.09-.1,2.19-.13,3.29-.08,2.96-.15,5.92-.24,8.88-.06,1.86-.21,3.72-.21,5.59,0,2.25,.13,4.5,.16,6.76,.01,1.59-.04,3.19-.11,4.78-.07,1.7-.19,3.4-.28,5.1-.05,.99-.1,1.98-.13,2.97-.06,1.81-.13,3.62-.15,5.43-.02,1.42,.03,2.85,.03,4.27,0,.88-.03,1.76-.04,2.64-.02,.99-.02,1.98-.06,2.97-.08,1.65-.22,3.29-.28,4.93-.11,3.01,.05,6.04-.35,9.04-.14,1.08-.1,2.19-.18,3.29-.11,1.48-.3,2.95-.39,4.43-.07,1.1-.03,2.2-.08,3.29-.07,1.43-.23,2.85-.28,4.27-.05,1.42-.51,2.79-.49,4.22,0,.71-.07,1.42-.18,2.12-.14,.98-.31,1.93-.1,2.94,.12,.57,0,1.2-.04,1.81-.05,.71-.15,1.41-.2,2.12-.06,.93-.07,1.86-.12,2.79-.04,.82-.12,1.64-.17,2.46-.02,.33-.04,.66-.06,.98-.1,1.48-.24,2.96-.3,4.44-.06,1.54,.12,3.1-.12,4.61-.24,1.54-.21,3.06-.28,4.59-.01,.22,0,.44-.03,.66-.3,1.91-.26,3.83-.28,5.75,0,.82-.05,1.65-.13,2.47-.26,2.62-.55,5.24-.8,7.87-.09,.96,.22,1.37,1.2,1.67,.63,.19,1.28,.32,1.89,.56,1.09,.43,2.21,.63,3.37,.74,.81,.08,1.61,.32,2.42,.46,.86,.16,1.73,.29,2.6,.43,.81,.13,1.63,.23,2.44,.36,.54,.09,1.07,.25,1.62,.3,2.9,.24,5.8,.5,8.71,.64,1.39,.07,2.73,.26,4.06,.65,1.3,.38,2.59,.37,3.97,.16Zm17.36-144.03c-.36,.67-.58,1.04-.76,1.42-.48,.98-.89,2.01-1.44,2.95-.89,1.52-1.73,3.05-2.34,4.7-.23,.62-.48,1.24-.83,1.79-1.07,1.7-1.2,3.64-1.32,5.54-.17,2.46-.1,4.94-.16,7.41-.03,1.1-.14,2.19-.18,3.29-.09,2.57-.18,5.15-.23,7.72-.05,2.42-.08,4.83-.07,7.25,0,1.76,.12,3.51,.12,5.27,0,2.8-.07,5.6-.13,8.4-.03,1.65-.09,3.29-.16,4.94-.11,2.58-.32,5.15-.35,7.73-.02,2.47-.16,4.94-.35,7.4-.19,2.46-.57,4.9-.85,7.36-.09,.76-.08,1.53-.15,2.29-.17,1.91-.37,3.82-.53,5.74-.14,1.8-.21,3.62-.36,5.42-.09,1.15-.27,2.29-.41,3.43-.13,1.09-.32,2.17-.41,3.26-.28,3.61-.6,7.21-1.1,10.8-.23,1.63-.45,3.27-.63,4.9-.23,2.18-.43,4.37-.61,6.56-.17,2.03-.31,4.05-.42,6.08-.12,2.19-.25,4.38-.58,6.56-.26,1.77-.22,3.59-.3,5.4-.02,.44,.24,.7,.68,.8,.16,.04,.32,.07,.49,.08,1.59,.12,3.18,.24,4.77,.35,.66,.04,1.34-.03,1.97,.1,1.81,.36,3.61,.22,5.42,.14,.38-.02,.77-.04,1.15-.05,2.19-.02,4.38,.02,6.56-.08,1.53-.07,3.07-.25,4.58-.55,1.56-.31,3.07-.84,4.6-1.27,.1-.03,.17-.12,.35-.25,.12-.79,.36-1.65,.15-2.52-.21-.88-.12-1.75,0-2.62,.35-2.72,.69-5.45,1.04-8.17,.04-.27,.11-.54,.14-.81,.24-1.8,.52-3.59,.71-5.39,.23-2.13,.41-4.27,.58-6.4,.29-3.73,.54-7.45,.81-11.18,.08-1.15,.12-2.3,.22-3.45,.24-2.79,.51-5.57,.75-8.36,.08-.87,.11-1.75,.17-2.63,.16-2.25,.38-4.49,.47-6.74,.11-2.85,.36-5.7,.21-8.56,0-.05,0-.11,0-.17,.09-4.29,.18-8.57,.27-12.86,0-.38-.02-.77-.03-1.15-.02-1.1-.05-2.2-.06-3.29,0-.93,.01-1.87,.02-2.8,.04-3.9-.27-7.8-.12-11.7,.03-.93,.03-1.87,.03-2.8,0-1.7,.01-3.41,.01-5.11,0-2.31,.16-4.63-.05-6.92-.14-1.53-.22-3.05-.25-4.58-.02-1.1-.05-2.2-.08-3.3-.06-2.31-.15-4.61-.19-6.92-.03-1.59,.04-3.19-.04-4.78-.15-2.91-.18-5.82,.39-8.69,.13-.67,.05-1.3-.27-2.01-.94-.16-1.91-.35-2.88-.48-2.23-.3-4.46-.62-6.56-1.51-.08-.04-.21,.03-.37,.06-.47,.46-.57,1.11-.68,1.76-.16,1.03-.37,2.05-.51,3.09-.22,1.63-.69,3.23-.59,4.89,.11,1.99-.28,3.92-.72,5.85-.05,.21-.12,.43-.23,.61-.34,.59-1.14,.6-1.5,.02-.2-.33-.32-.7-.5-1.04-1.13-2.2-2.11-4.47-3.56-6.5-.96-1.35-1.64-2.85-2.19-4.42-.12-.35-.33-.68-.63-1.3Zm5.98-5.76c.08-1.38,.17-2.73,.22-4.09,.03-.86,.3-1.61,.79-2.3,.95-1.36,2.24-2.25,3.81-2.74,.84-.26,1.7-.46,2.53-.75,.4-.14,.83-.36,1.12-.66,1.67-1.73,2.59-3.8,2.66-6.22,.02-.52,.18-1.1-.2-1.6-.16,.02-.33,0-.48,.05-3.31,1.07-6.16-.1-8.87-1.85-.36-.23-.65-.59-.91-.95-.45-.62-.92-1.25-1.25-1.94-.22-.47-.31-1.05-.3-1.58,.01-.7,.65-1.35,1.38-1.42,.59-.06,1.21-.04,1.79,.09,1.84,.41,3.68,.55,5.56,.3,.6-.08,1.2-.08,1.81-.08,.98,0,1.19-.14,1.28-1.06,.04-.44,.03-.88,0-1.32-.05-.93-.08-1.87-.21-2.8-.19-1.36,.37-2.35,1.42-3.12,.35-.26,.77-.43,1.13-.67,.97-.62,1.93-1.27,2.89-1.89,.56-.37,.77-.89,.79-1.54,.04-1.28-.11-2.53-.48-3.75-.4-1.31-.81-2.62-1.23-3.93-.23-.73-.47-1.47-.74-2.18-.79-2.11-1.6-4.21-2.41-6.31-.4-1.02-.79-2.05-1.24-3.05-1.14-2.5-2.29-4.99-3.48-7.47-.23-.48-.63-.87-1.08-1.47-.41,1.35-1.07,2.33-1.92,3.2-.19,.19-.29,.46-.43,.7-1.04,1.88-2.88,2.87-4.92,2.53-2.06-.35-4.1-.84-5.99-1.76-1.06-.51-2.16-.73-3.31-.9-1.09-.16-1.97,.13-2.76,.75-.73,.57-1.45,1.2-2.03,1.91-1.66,2.02-1.75,4.74-.37,6.74,.34,.49,.74,.95,1.11,1.42,.34,.43,.74,.82,1.03,1.29,.82,1.34,.83,2.71-.08,4.02-.41,.58-.92,1.09-1.38,1.63-.53,.62-1.1,1.22-1.38,2.13,.76,.9,1.52,1.83,2.32,2.72,.4,.45,.76,.92,1.13,1.4,1.3,1.73,2.12,3.72,3.11,5.61,.35,.67,.61,1.42,.76,2.17,.27,1.33,.21,2.57-.83,3.68-.73,.78-1.5,1.05-2.49,.89-.78-.13-1.45-.49-2.02-1.04-.91-.86-1.46-1.91-1.81-3.1-.66-2.27-2.08-3.93-4.01-5.26-1.78-1.23-4.96-.58-5.3,2.47-.04,.38,.02,.77-.02,1.15-.15,1.71,.69,3.06,1.62,4.37,.17,.25,.52,.4,.81,.53,.35,.16,.72,.28,1.08,.4,2.04,.67,3.5,1.99,4.42,3.94,.45,.95,.76,1.94,.94,2.98,.44,2.56,.1,5.04-.76,7.46-.12,.35-.32,.71-.57,.98-.85,.93-1.75,1.82-2.63,2.73-.86,.88-1.76,1.66-3.13,1.29-.92,.21-1.85,.24-2.78,.11-.26-.04-.53,0-.82,0-.11,.26-.26,.46-.26,.66,.02,1.98,.06,3.95,.12,5.93,0,.26,.14,.51,.29,1.01,.9-.73,1.82-.28,2.74-.25,.82,.03,1.63,.16,2.46-.05,.36-.09,.77-.03,1.15,.01,.98,.11,1.96,.27,2.95,.35,1.2,.1,2.41,.15,3.61,.22,.38,.02,.77,.02,1.15,.03,2.53,.04,5.06,.07,7.58,.1,.33,0,.66-.06,.98-.11,1.31-.17,2.61-.35,3.92-.53,.15-.02,.29-.12,.45-.19Zm17.43,35.02c1.21,.21,2.19-.01,3.16-.09,1.31-.11,2.62-.4,3.93-.39,1.55,0,3.06-.16,4.57-.41,.38-.06,.77-.1,1.15-.1,1.11,.01,2.18-.23,3.25-.47,.86-.19,1.73-.34,2.58-.56,2.61-.66,5.27-1.15,7.67-2.46,.57-.31,1.22-.53,1.85-.69,1.41-.35,2.65-1.04,3.84-1.84,1.59-1.08,3.16-2.2,4.8-3.19,2.08-1.25,4.01-2.7,5.8-4.32,1.26-1.14,2.54-2.27,3.95-3.23,2.36-1.61,4.09-3.82,5.58-6.19,1.05-1.67,1.86-3.49,2.75-5.26,1.09-2.16,1.86-4.45,2.74-6.69,.06-.15,.08-.32,.12-.48,.65-2.32,1.02-4.71,1.78-7.01,.1-.31,.16-.64,.22-.96,.71-3.78,1.15-7.6,1.52-11.43,.06-.66,.05-1.33,.2-1.97,.58-2.46,1.03-4.94,1.43-7.43,.25-1.52,.44-3.04,.53-4.58,.08-1.2,.2-2.4,.33-3.6,.11-1.04,.26-2.07,.38-3.11,.17-1.52,.35-3.05,.49-4.58,.16-1.75,.31-3.5,.43-5.25,.06-.82-.08-1.67,.09-2.46,.51-2.39,.18-4.81,.45-7.21,.15-1.36,.01-2.74,.08-4.11,.11-2.19-.14-4.39,.36-6.56,.06-.26,0-.55,0-.82-.03-1.59-.06-3.19-.09-4.78-.01-.49-.02-.99-.07-1.48-.04-.36-.28-.6-.66-.61-.26,0-.53,.06-.82,.1-.15,.46-.33,.86-.42,1.29-.26,1.23-.51,2.47-.71,3.71-.26,1.62-.48,3.25-.72,4.87-.09,.6-.29,1.2-.25,1.78,.11,1.61-.16,3.17-.38,4.75-.13,.92-.31,1.86-.25,2.78,.11,1.65,.09,3.29,0,4.93-.03,.49,.02,.99,.02,1.48,0,.6,0,1.21,0,1.81,0,.93,0,1.87-.03,2.8-.03,1.04-.01,2.09-.13,3.12-.26,2.34-.59,4.68-.91,7.01-.23,1.74-.49,3.48-.74,5.22-.1,.71-.27,1.4-.35,2.11-.24,2.13-.5,4.25-1.04,6.33-.23,.9-.36,1.84-.43,2.76-.19,2.54-1.04,4.93-1.55,7.4-.02,.11-.08,.21-.12,.31-.52,1.32-1.05,2.64-1.57,3.96-1.08,2.7-2.09,5.43-3.26,8.08-.97,2.21-2.12,4.34-3.22,6.49-.73,1.42-1.48,2.82-2.3,4.19-.68,1.13-1.34,2.32-2.25,3.23-1.11,1.12-2.53,1.9-3.98,2.56-.45,.2-.97,.31-1.34,.6-1.58,1.25-3.5,1.81-5.25,2.73-1.35,.71-2.82,1.2-4.24,1.78-.3,.13-.61,.24-.92,.36-.97,.38-1.95,.72-2.9,1.13-1.82,.78-3.65,1.53-5.59,1.93-2.04,.42-4.11,.67-6.17,1.01-1.25,.21-2.49,.44-3.73,.65-.81,.14-1.62,.32-2.44,.35-1.49,.04-2.95,.24-4.41,.48-.99,.16-1.85,.56-2.75,.84,0,1.62,0,3.15,0,4.68,0,1.52-.26,3.04-.07,4.68Zm-69.39-23.13c-.29-.05-.67-.21-1-.16-.59,.1-1.16,.3-1.71,.53-1.77,.74-3.54,1.48-5.42,1.92-.96,.23-1.89,.55-2.83,.85-.52,.17-1.02,.4-1.52,.61-1.31,.57-2.65,1.08-3.9,1.74-1.75,.93-3.32,2.12-4.68,3.59-.78,.84-1.61,1.66-2.5,2.4-.98,.82-1.8,1.76-2.54,2.79-.16,.22-.3,.47-.49,.66-.98,1.01-1.58,2.26-2.04,3.55-1.51,4.24-2.99,8.5-3.6,12.99-.29,2.12-.7,4.23-.58,6.39,.04,.76-.06,1.54-.17,2.3-.37,2.66-.81,5.31-1.16,7.97-.26,1.96-.39,3.93-.63,5.9-.32,2.67-.76,5.33-.74,8.03,0,.27-.06,.55-.09,.82-.14,1.09-.32,2.17-.43,3.26-.23,2.19-.41,4.38-.64,6.57-.36,3.44-.82,6.87-.88,10.33-.05,2.85-.26,5.71-.43,8.56-.08,1.42-.28,2.84-.35,4.27-.13,2.8-.2,5.6-.31,8.39-.06,1.43-.18,2.85-.22,4.28-.05,1.97-.05,3.95-.08,5.93,0,.55,0,1.1-.03,1.65-.03,.54-.09,1.07-.14,1.7,1.29,.22,2.5,.28,3.8-.06,.33-3.69,.66-7.3,.98-10.91,.15-1.64,.32-3.28,.42-4.92,.2-3.13,.34-6.26,.52-9.38,.09-1.54,.26-3.07,.27-4.61,.01-1.44,.06-2.85,.4-4.25,.08-.32,.09-.65,.12-.98,.23-2.96,.45-5.92,.69-8.88,.03-.38,.07-.77,.14-1.14,.3-1.51,.51-3.03,.45-4.58-.01-.33,.01-.66,.05-.99,.28-2.23,.58-4.47,.86-6.7,.14-1.15,.3-2.29,.36-3.44,.07-1.38,.24-2.73,.53-4.08,.18-.86,.37-1.74,.34-2.61-.03-.78,0-1.54,.13-2.29,.62-3.91,1.43-7.78,2.26-11.64,.44-2.04,.78-4.09,1.6-6.04,.34-.81,.44-1.71,.78-2.51,.89-2.13,1.88-4.22,2.76-6.35,.88-2.14,2.36-3.84,3.92-5.45,1.79-1.84,3.57-3.7,5.63-5.28,1.27-.97,2.51-1.96,3.92-2.71,.81-.43,1.73-.74,2.63-.92,1.5-.31,3.03-.47,4.54-.69,1.04-.15,1.31-.46,1.29-1.52-.02-1.48-.07-2.96-.12-4.44,0-.1-.08-.2-.17-.43ZM247.28,71.95c-.08,1.08-.2,2-.22,2.92-.03,2.54-.43,5.02-.88,7.51-.29,1.62-.47,3.26-.71,4.89-.12,.87-.15,1.77-.42,2.59-.28,.86-.29,1.73-.36,2.6-.14,1.69-.27,3.39-.44,5.08-.16,1.64-.35,3.28-.56,4.91-.14,1.09-.28,2.18-.55,3.24-.17,.65-.23,1.28-.27,1.94-.12,2.19-.16,4.4-.48,6.57-.24,1.69-.46,3.37-.53,5.06-.15,3.72-1.44,7.2-2.1,10.81-.02,.11-.09,.2-.12,.31-.17,.63-.33,1.27-.52,1.9-.42,1.42-.69,2.88-1.35,4.23-.72,1.48-1.43,2.97-2.03,4.5-.81,2.09-2.13,3.83-3.45,5.59-.65,.88-1.37,1.71-1.99,2.61-1.22,1.77-2.8,3.22-4.23,4.81-.21,.24-.53,.39-.8,.58-1.26,.88-2.5,1.79-3.78,2.63-.59,.38-1.26,.64-1.91,.92-.5,.22-1.1,.29-1.53,.6-1.18,.85-2.53,1.3-3.86,1.8-1.64,.62-3.25,1.34-5.05,1.38-.22,0-.45,.05-.64,.14-.62,.3-1.28,.35-1.93,.31-.68-.04-1.3,.13-1.93,.34-.62,.21-1.25,.41-1.89,.56-1.5,.34-3.01,.64-4.52,.95-.43,.09-.87,.17-1.3,.2-2.31,.17-4.54,.76-6.79,1.27-.81,.18-1.59,.37-2.47,.15-.37,1.03,.04,2.02-.05,2.99-.09,.93-.12,1.87-.08,2.8,.04,.97-.1,1.96,.18,2.89,.8,.27,1.48-.02,2.16-.18,.91-.2,1.81-.56,2.73-.62,2.09-.12,4.15-.41,6.21-.72,2.33-.35,4.65-.79,6.98-1.18,.54-.09,1.11-.1,1.62-.28,1.87-.64,3.73-1.3,5.57-2.01,2-.77,3.98-1.58,5.95-2.42,1.21-.52,2.38-1.12,3.56-1.71,2.16-1.07,4.38-2.03,6.36-3.44,.92-.65,1.65-1.41,2.2-2.39,.62-1.1,1.27-2.19,1.93-3.27,1.8-2.96,3.48-5.98,4.78-9.2,1.05-2.59,2.03-5.21,3.08-7.81,.62-1.53,1.2-3.07,1.6-4.67,.34-1.33,.64-2.66,.84-4.03,.36-2.39,.93-4.74,1.36-7.11,.15-.81,.08-1.65,.24-2.46,.78-3.83,1.25-7.69,1.57-11.58,.03-.33,.11-.65,.15-.98,.25-1.85,.68-3.67,.55-5.57-.15-2.13,.34-4.27,.06-6.41-.03-.27,.04-.55,.06-.82,.04-.99,.1-1.98,.12-2.96,.03-1.26-.09-2.52,.18-3.78,.3-1.4,.62-2.8,.37-4.25-.04-.21,.02-.44,.06-.65,.33-2.17,.68-4.34,1-6.51,.25-1.73,.73-3.44,.59-5.29-.39-.1-.81-.25-1.23-.32-.32-.05-.65-.01-1.13-.01ZM89.54,280.94c.06-.31,.12-.47,.12-.63,.06-3.08,.12-6.15,.18-9.23,.02-.98,0-1.97,.09-2.95,.16-1.81,.39-3.6,.57-5.41,.08-.82,.23-1.65,.19-2.46-.13-2.54,.24-5.05,.52-7.56,.21-1.8,.51-3.59,.74-5.39,.29-2.29,.5-4.59,.85-6.87,.57-3.69,1.33-7.34,1.48-11.09,.07-1.92,.36-3.83,.59-5.74,.25-2.02,.55-4.03,.84-6.04,.25-1.74,.52-3.48,.8-5.21,.27-1.68,.51-3.37,.86-5.03,.41-1.93,.8-3.86,1.47-5.73,.9-2.51,2.17-4.81,3.56-7.05,1.39-2.25,3.06-4.3,4.91-6.19,1.15-1.17,2.35-2.32,3.61-3.37,1.56-1.3,3.12-2.61,5.03-3.42,.7-.3,1.34-.74,1.98-1.09,.46-2.72,.58-7.27,.22-8.78-.57-.22-1.15-.12-1.74,0-.97,.2-1.94,.41-2.92,.49-.9,.07-1.73,.36-2.51,.74-2.08,1.02-3.81,2.57-5.54,4.06-1.33,1.14-2.49,2.48-3.71,3.75-1.42,1.48-2.5,3.21-3.38,5.05-.66,1.39-1.2,2.83-1.82,4.24-.49,1.11-.97,2.21-1.2,3.41-.06,.32-.19,.64-.33,.93-.48,1-.76,2.06-.97,3.14-.23,1.18-.53,2.35-.76,3.54-.41,2.1-.73,4.22-1.19,6.31-.5,2.32-.85,4.64-.86,7.02,0,.22-.02,.44-.07,.66-.45,1.93-.54,3.91-.74,5.88-.25,2.45-.74,4.88-.98,7.35-.1,1.09-.27,2.18-.25,3.28,.02,1.16-.13,2.3-.34,3.44-.13,.7-.18,1.41-.26,2.12-.07,.6-.15,1.2-.18,1.8-.09,1.92-.54,3.8-.49,5.73,.02,.71-.14,1.42-.22,2.12-.12,1.09-.29,2.18-.36,3.28-.22,3.56-.42,7.13-.61,10.69-.08,1.54-.06,3.08-.17,4.61-.2,2.74-.43,5.48-.7,8.21-.25,2.51-.57,5.01-.84,7.52,0,.09,.09,.19,.2,.42,1.42,.23,2.85,.03,4.32-.55Zm29.07-119.63c.02-1.08,.05-2.01,.03-2.94-.01-.55-.36-.77-.9-.63-.69,.17-1.37,.4-2.07,.53-2.59,.5-5.18,.96-7.77,1.45-.43,.08-.87,.18-1.27,.34-1.53,.61-3.07,1.19-4.55,1.89-2.84,1.35-5.42,3.1-7.73,5.25-1.56,1.46-3.1,2.94-4.54,4.52-1.35,1.47-2.31,3.2-3.49,4.78-.71,.96-1.24,2.07-1.84,3.12-1.27,2.19-2.48,4.4-3.25,6.84-.61,1.94-1.27,3.86-1.85,5.8-.4,1.31-.73,2.64-1.04,3.98-.56,2.41-.93,4.85-1.19,7.3-.2,1.91-.35,3.83-.43,5.75-.15,3.18-.25,6.37-.34,9.56-.08,2.85-.3,5.71-.11,8.56,.04,.65-.04,1.32-.06,1.98-.06,1.65-.21,3.3-.17,4.94,.06,2.42,0,4.83-.27,7.24-.13,1.21-.13,2.41-.03,3.62,.15,1.81,.29,3.61,.12,5.43-.12,1.37-.12,2.75-.14,4.12-.04,2.64-.04,5.28-.08,7.91-.01,.77-.14,1.53-.15,2.3-.04,2.91-.24,5.82-.06,8.74,.02,.27-.02,.55-.03,.82-.03,1.7-.05,3.41-.07,5.11,0,.27,0,.55,.03,.82,.05,.56,.26,.75,.86,.76,.26,0,.52-.09,.81-.15,.11-.53,.25-1,.3-1.49,.06-.54,.05-1.1,.05-1.65,.02-2.2,0-4.4,.07-6.6,.05-1.65,.27-3.29,.3-4.94,.05-2.53,.06-5.05,.27-7.58,.21-2.46,.23-4.95,.49-7.41,.19-1.81,.23-3.62,.21-5.43-.02-1.15,.06-2.31,.16-3.46,.14-1.53,.36-3.06,.52-4.58,.34-3.11,.67-6.23,1-9.35,.13-1.26,.24-2.51,.35-3.77,.05-.55,.04-1.1,.1-1.65,.46-4.1,.92-8.19,1.39-12.29,.11-.98,.16-1.98,.35-2.95,.48-2.49,.79-4.99,.76-7.53-.02-2.22,.62-4.35,.88-6.53,.16-1.36,.42-2.72,.78-4.04,.74-2.65,1.66-5.24,2.35-7.9,.61-2.35,3.96-6.48,5.07-7.62,.15-.16,.36-.25,.52-.4,.53-.48,1.11-.92,1.55-1.47,.73-.92,1.65-1.6,2.51-2.37,1.87-1.67,4.09-2.76,6.31-3.84,1.43-.69,2.95-1.19,4.44-1.75,.25-.1,.54-.12,.8-.18,2.09-.48,4.13-1.14,6.1-1.98,.96-.41,1.93-.79,3.01-.77,.26,0,.52-.13,.94-.24Zm124.15-89.83c-.07,.69-.27,1.47-.18,2.21,.1,.83,.07,1.64,0,2.46-.16,1.8-.45,3.59-.43,5.41,.01,.92-.26,1.85-.36,2.77-.27,2.34-.51,4.69-.77,7.04-.15,1.42-.29,2.84-.48,4.25-.1,.81-.34,1.61-.41,2.43-.16,1.8-.38,3.59-.79,5.36-.28,1.18-.54,2.36-.78,3.54-.2,1.02-.33,2.05-.52,3.08-.13,.7-.35,1.38-.49,2.08-.38,1.88-.71,3.77-1.11,5.65-.28,1.29-.68,2.54-.72,3.88-.02,.71-.16,1.42-.31,2.11-.61,2.96-1.49,5.85-2.7,8.63-.63,1.46-1.32,2.89-1.95,4.35-.83,1.92-1.83,3.74-3.13,5.38-.51,.65-1.02,1.3-1.44,2.01-.64,1.06-1.53,1.84-2.47,2.62-1.79,1.47-3.74,2.71-5.77,3.8-1.84,.98-3.75,1.83-5.63,2.74-.1,.05-.2,.09-.31,.11-1.89,.38-3.7,1.03-5.49,1.74-.2,.08-.42,.15-.63,.19-1.67,.32-3.32,.73-5,.93-1.69,.21-3.4,.34-5.09,.27-1.32-.05-2.63-.16-3.95-.03-1.09,.1-2.17,.23-3.27,.05-.13-.02-.29,.13-.53,.25-.12,.76-.29,1.57-.37,2.38-.08,.82-.13,1.65-.09,2.47,.03,.78-.22,1.6,.12,2.39,1.71-.36,3.3-.73,4.91-1.02,2.21-.4,4.48-.47,6.65-1.12,.21-.06,.44-.06,.65-.1,1.24-.25,2.47-.51,3.71-.77,.91-.19,1.82-.41,2.74-.56,2.15-.35,4.34-.56,6.36-1.46,1.05-.47,2.15-.84,3.19-1.33,1.24-.59,2.43-1.26,3.73-1.71,.66-.23,1.24-.69,1.83-1.09,.99-.69,1.95-1.42,2.93-2.13,.22-.16,.48-.28,.66-.48,.83-.88,1.7-1.72,2.43-2.68,1.84-2.39,3.61-4.84,5.39-7.27,.16-.22,.28-.47,.39-.72,.92-2.05,1.87-4.09,2.74-6.17,.4-.96,.7-1.97,.96-2.97,.57-2.18,1.03-4.39,1.63-6.56,.46-1.7,.78-3.43,.98-5.17,.35-3.11,.66-6.22,.97-9.34,.11-1.15,.16-2.3,.25-3.45,.06-.71,.07-1.44,.24-2.13,.61-2.47,.78-4.99,1.09-7.5,.42-3.38,.52-6.79,1.16-10.14,.45-2.32,.72-4.67,1.11-6.99,.35-2.11,.71-4.22,.55-6.38-.03-.37,.09-.76,.17-1.14,.14-.64,.3-1.27,.47-1.98-.9-.38-1.73-.99-2.84-.17ZM68.2,309.79c.21-.06,.34-.05,.39-.11,1.26-1.66,2.69-3.19,3.71-5.03,1.02-1.82,2.03-3.65,3.07-5.46,.24-.42,.57-.8,.9-1.16,.34-.36,.78-.36,1.23-.2,.39,.14,.59,.55,.41,.92-.17,.35-.38,.67-.56,1.01-1.73,3.24-3.36,6.54-4.77,9.94-.02,.06,.09,.17,.15,.3,.13-.08,.3-.13,.39-.25,.72-.83,1.25-1.78,1.81-2.72,1.29-2.17,2.6-4.33,3.79-6.57,.31-.57,.76-1.07,1.19-1.57,.28-.32,.67-.38,1.04-.12,.21,.15,.39,.36,.63,.59-.67,1.31-1.32,2.58-1.95,3.85-.66,1.32-1.38,2.63-1.95,3.99-.54,1.28-1.34,2.49-1.49,4.06,.27-.12,.46-.13,.54-.24,.72-.9,1.46-1.79,2.11-2.74,2.46-3.66,4.39-7.62,6.35-11.55,1.55-3.1,2.62-6.4,3.66-9.7,.33-1.04,.57-2.11,.51-3.22-.68-.48-1.4-.41-2.1-.29-.87,.15-1.74,.17-2.62,.15-2.69-.08-5.39-.12-8.08-.16-.48,0-.96,.08-1.42,.12-.15,.29-.28,.48-.33,.68-.2,.74-.36,1.49-.57,2.22-.32,1.11-.67,2.21-1.01,3.31-.43,1.36-.84,2.73-1.31,4.07-.4,1.14-.96,2.22-1.32,3.37-.47,1.48-1.23,2.81-1.96,4.16-1.1,2.02-2.2,4.04-3.02,6.2-.1,.26-.22,.5,.04,.74,.1-.04,.25-.05,.3-.12,.31-.45,.64-.89,.89-1.38,.55-1.08,1.04-2.18,1.57-3.27,1.33-2.71,2.73-5.38,4.39-7.91,.29-.44,.59-.82,1.15-.8,.47,.02,.84,.25,1,.88-1.31,2.55-2.66,5.18-4.02,7.82-.02,.05-.07,.08-.1,.13-.71,1.42-1.45,2.83-2.12,4.27-.25,.53-.33,1.14-.5,1.78ZM244.5,68.78c2.08,1.19,5.93,1.58,9.63,.98,.09-.32,.21-.67,.31-1.03,.19-.74,.37-1.48,.56-2.22,.07-.26,.17-.52,.2-.79,.36-3.21,1.5-6.17,2.93-9.03,1.03-2.06,2.17-4.06,3.5-5.95,.44-.62,.71-1.36,1.02-2.06,.1-.22,.08-.49,.11-.76-.18,0-.26-.02-.28,0-.76,.91-1.55,1.79-2.25,2.75-.45,.61-.75,1.34-1.14,2-.17,.28-.37,.55-.62,.75-.35,.29-.79,.41-1.23,.2-.36-.17-.6-.82-.48-1.31,.07-.26,.17-.53,.31-.76,.37-.61,.77-1.2,1.17-1.79,.85-1.28,1.68-2.57,1.98-4.05-.28-.44-.59-.45-.88-.21-.16,.13-.25,.35-.36,.54-.8,1.31-1.57,2.65-2.41,3.93-.42,.63-.96,1.2-1.51,1.73-.36,.36-.84,.47-1.4,.13,.04-.34,.01-.68,.12-.97,.59-1.53,1.18-3.08,1.86-4.58,.41-.92,.76-1.83,.79-2.83,0-.21-.02-.45-.42-.46-.37,.4-.7,.87-.96,1.41-.35,.74-.69,1.5-1.14,2.18-.82,1.24-1.51,2.54-1.99,3.95-.09,.26-.16,.54-.32,.75-.32,.43-.79,.58-1.31,.52-.44-.05-.68-.36-.8-.74-.24-.79-.46-1.58-.15-2.42,.43-1.19,.83-2.38,1.23-3.58,.19-.57,.36-1.15,.51-1.73,.03-.12-.08-.35-.18-.41-.12-.06-.32,0-.46,.04-.09,.03-.18,.13-.24,.22-.4,.66-.84,1.29-1.16,1.98-1.25,2.68-2.4,5.37-3.05,8.3-.72,3.24-1.09,6.49-1.28,9.77-.03,.6-.11,1.2-.12,1.81-.01,1.25-.28,2.5-.07,3.73Zm-101.63,97.04c.55-.62,.89-.89,1.1-1.24,.54-.89,1.04-1.8,1.54-2.71,.68-1.24,1.34-2.5,2.02-3.74,.69-1.24,1.41-2.47,2.1-3.72,.12-.22,.16-.49,.23-.71-.53-.37-1.03-.26-1.51-.23-1.14,.09-2.28,.22-3.43,.16-1.12-.06-2.14,.29-2.8,1.36-.19,3.48,.32,6.94,.75,10.83Zm14.51-.04c.28-.31,.42-.41,.49-.54,.39-.78,.69-1.63,1.16-2.35,1.55-2.35,2.44-5.03,3.8-7.47,.14-.24,.1-.58,.16-.94-.34-.02-.55-.05-.77-.03-1.21,.12-2.4,.01-3.6-.19-.8-.14-1.64-.1-2.46-.09-.24,0-.47,.17-.78,.3,.66,1.87,.2,3.8,.84,5.58,.65,1.8,.22,3.82,1.16,5.75Zm14.57-11.99c-1.85,.16-3.72-.03-5.42,.78-.2,3.08,2.77,8.37,4.72,10.32,.1-.35,.25-.65,.27-.95,.19-2.51,.54-4.99,1.01-7.46,.16-.86,.1-1.75-.58-2.69Zm9.4-23.27c0-.71,0-1.37,0-2.02,0-.39,0-.78-.39-.98-1.07,.05-2.1,.11-3.14,.15-1.04,.04-2.08,.02-3.12,.08-1,.05-1.96-.69-3.01-.21,.98,1.74,1.91,2.55,3.71,3.34,1.98,.88,3.92,.97,5.94-.35Z"/><path d="M247.29,445.44c.36,.86,.06,1.56-.01,2.25-.15,1.36-.35,2.72-.54,4.08-.1,.7-.23,1.41-.33,2.11-.07,.45,0,.85,.36,1.2,.36,.34,.62,.77,.97,1.12,.46,.45,.98,.71,1.62,.3,.64-.41,1.13-.15,1.61,.44l-.43,1.04c.35,.89,1.06,1.32,1.98,1.48l1.57-1.16c.61,.18,.75,.55,.57,1.03-.13,.36-.33,.69-.55,1.11,.19,.23,.34,.55,.59,.7,1.12,.69,2.26,1.37,3.43,1.97,.58,.3,1.23,.45,1.87,.61,1.07,.27,2.11,.59,3.03,1.25,.49,.35,1.02,.66,1.58,.87,.71,.27,1.13,.82,1.63,1.33,.89,.91,.89,1.94,.64,3.06-.21,.97-.7,1.64-1.65,2.08-1.18,.56-2.4,.75-3.67,.82-.76,.04-1.51,.1-2.28,.24-1.24,.22-2.51,.26-3.77,.34-1.31,.09-2.63,.17-3.95,.22-1.58,.06-3.16,0-4.73-.32-1.06-.22-2.12-.44-3.24-.45-1.65-.02-3.26-.43-4.85-.88-.31-.09-.62-.25-.89-.43-1.05-.69-2.09-1.4-3.12-2.11-.91-.62-1.81-1.24-2.7-1.88-1-.73-2.13-.79-3.3-.73-.46,.03-.84,.23-1.14,.58-.07,.08-.16,.16-.2,.26-.72,1.77-2.21,1.93-3.82,1.85-.38-.02-.77-.05-1.14-.15-1.61-.44-3.24-.52-4.9-.34-1.66,.18-2.04-.2-1.72-1.82,.44-2.22,.6-4.46,.68-6.71,.03-.87,.23-1.74,.47-2.58,.51-1.75,.8-3.49,.78-5.35-.02-1.89-.12-3.82,.33-5.7,.23-.96,.26-1.96,.41-2.94,.08-.54,.34-.78,.89-.79,.66,0,1.34-.04,1.96,.12,1.24,.32,2.49,.4,3.75,.42,.27,0,.56,0,.82,.06,1.4,.36,2.83,.3,4.25,.4,1.04,.07,2.07,.22,3.11,.31,1.42,.12,2.87,.1,4.26,.36,1.42,.27,2.83,.32,4.26,.38,1.09,.05,2.18,0,3.28,.13,.69,.08,1.41-.11,2.21-.19Zm2.61,17.84c-.11-.68,.3-.99,.64-1.35,.2-.22,.34-.5,.53-.77-.74-.57-1.39-1.06-2.01-1.54-.68,.19-1.05,.69-1.5,1.08-.48,.42-1.02,.68-1.66,.52-.22-.06-.49-.31-.55-.52-.07-.21,.04-.53,.17-.74,.1-.17,.35-.25,.54-.36,.53-.33,.87-.79,1.04-1.26-.87-1.02-1.65-1.93-2.44-2.85-2.42-.21-4.88-.23-7.35-.07-1.79,.12-3.62-.03-5.3-.85-.38-.19-.84-.24-1.27-.31-1.67-.28-3.32-.77-5.04-.52-.05,0-.11-.02-.16-.03-1.47-.19-2.94-.39-4.41-.57-.31-.04-.62,0-1.01,0-.13,.79-.25,1.48-.36,2.18-.1,.59-.09,1.23-.3,1.78-.87,2.25-.77,4.64-.99,6.97,0,.1,.07,.2,.13,.33,.42,.36,.97,.38,1.51,.48,2.73,.52,5.46-.06,8.19,.06,2.12,.09,4.13,.37,5.83,1.83,1.49,1.29,3.27,2.08,5.24,2.05,2.79-.04,5.57,.68,8.37,.1,.1-.02,.22,0,.33,.01,2.46,.12,4.92,.24,7.38,.36,.38,.02,.78,.1,1.14,.03,.83-.16,1.64-.09,2.46,.04,.38,.06,.77,.08,1.14,.03,.6-.07,1.18-.06,1.79,0,1.01,.11,2.06,.14,2.94-.55-.06-.17-.06-.32-.13-.37-1.63-1.2-3.2-2.51-5.27-2.91-1.98-.39-3.68-1.36-5.31-2.51-.39-.28-.83-.49-1.19-.7-.89,.36-1.29,1.24-2.22,1.4l-.89-.48Z"/><path d="M36.04,441.21c.03,.44,.05,.76,.06,1.08,.02,.55,.05,1.05,.63,1.4,.28,.18,.42,.63,.57,.98,.56,1.31,1.09,2.64,1.65,3.95,.28,.65,.54,1.33,.92,1.93,.59,.93,1.27,1.79,1.63,2.85,.09,.25,.29,.46,.45,.68,.66,.94,1.34,1.88,1.99,2.83,.8,1.16,1.58,2.33,2.35,3.48-.46,.67-1.05,.96-1.63,1.27-.63,.34-1.26,.67-1.86,1.06-1.39,.93-2.93,1.4-4.61,1.73-1.11,1.48-1.72,3.34-1.63,5.19,.32,.1,.67,.21,1.03,.31,.42,.12,.86,.18,1.27,.33,.45,.16,.64,.52,.56,.88-.09,.38-.35,.55-.71,.57-.38,.02-.76,.01-1.15,.02-.38,0-.76,0-1.14,0-.55,.92-.3,1.84-.25,2.84,.41,.15,.82,.27,1.21,.43,.25,.1,.51,.21,.73,.36,.36,.24,.34,.78-.05,.93-.56,.22-1.15,.37-1.78,.56-.34,.36-.26,.88-.26,1.35,0,1.86,.03,3.72,.09,5.58,.03,1.04,.1,2.08,.22,3.11,.1,.89,.08,1.74-.22,2.59-.14,.39-.33,.71-.7,.86-.61,.24-1.23,.56-1.86,.61-1.04,.08-1.94,.35-2.47,1.17-.89-.09-1.64-.17-2.4-.23-.63-.06-1.17-.26-1.57-.78-.65-.82-1.36-1.59-1.94-2.45-.74-1.09-1.44-2.21-2.04-3.38-.49-.97-.82-2.03-1.2-3.05-.46-1.23-.92-2.47-1.36-3.71-.55-1.57-.87-3.16-.65-4.84,.19-1.41,.3-2.84,.43-4.26,.11-1.25,.24-2.5,.26-3.76,.01-.7-.17-1.4-.25-2.02-.69-.4-1.2-.05-1.66,.17-.92,.44-1.87,.57-2.98,.49-.12-.31-.33-.64-.37-.99-.11-.93-.17-1.86-.19-2.79-.03-1.23-.27-2.39-.78-3.51-.27-.6-.49-1.22-.73-1.84-.36-.95-.23-1.31,.65-1.68,.66-.28,1.33-.51,1.99-.8,.8-.35,1.6-.7,2.37-1.12,1.11-.61,2.26-1.11,3.39-1.66,1.5-.73,3.24-1.09,4.44-2.39,.04-.04,.09-.06,.13-.1,.95-.72,2.39-.61,3.05-1.82,1.01-.66,2.02-1.31,3.02-1.99,.59-.4,1.14-.85,1.69-1.3,.5-.41,.95-.88,1.68-1.15Zm-6.36,7.62c-.19,0-.32-.04-.41,0-1.1,.56-2.4,.7-3.31,1.69-.27,.3-.77,.39-1.17,.57-1.65,.75-3.3,1.48-4.94,2.25-.29,.14-.55,.36-.79,.57-.24,.22-.24,.68,0,.9,.24,.23,.52,.4,.76,.62,.82,.74,1.6,1.58,1.98,2.58,.62,1.63,1.02,3.34,.86,5.14-.1,1.08-.11,2.22,.14,3.26,.34,1.42,.91,2.8,1.48,4.16,.49,1.18,.77,2.39,.97,3.65,.23,1.4,.52,2.8,.87,4.18,.27,1.06,.64,2.09,1.01,3.12,.48,1.34,.99,2.67,1.49,4,.12,.31,.27,.6,.45,.88,.68,1.05,1.37,2.1,2.09,3.18,.41,.16,.79-.03,1.21-.2,1.93-.81,2.01-.87,1.7-2.93-.28-1.86-.17-3.73-.1-5.59,.06-1.43,.08-2.84-.2-4.33-.26-.2-.6-.39-.85-.66-.54-.58-.43-1.19,.26-1.64,.22-.14,.46-.25,.7-.37l.2-2.2c-.61-.39-1.25-.64-1.43-1.37-.09-.38-.02-.68,.3-.84,.38-.19,.8-.31,1.21-.46,.1-.28,.22-.53,.26-.8,.24-1.48,.71-2.88,1.41-4.2,.1-.19,.17-.41,.24-.61,.3-.87,.24-1.7-.16-2.55-1.13-2.38-2.6-4.58-3.52-7.07-.13-.35-.43-.64-.6-.98-.58-1.11-1.4-2.1-1.65-3.38-.04-.23-.31-.42-.44-.58Z"/><path d="M250.56,25.19c-1.12,.45-1.98,.17-2.65-.72-.33-.44-.63-.9-.94-1.36-.98-1.46-1.95-2.93-2.92-4.4-.18-.27-.36-.56-.49-.86-.27-.65,.19-1.41,.9-1.42,.49,0,.98,.1,1.48,.15,.19,.31,.4,.57,.54,.86,.98,2.05,2.34,3.85,3.68,5.66,.47,.64,.73,1.2,.4,2.09Z"/><path d="M263.84,16.47c-.29,.33-.52,.65-.8,.89-.65,.55-1.36,.42-1.76-.36-.27-.53-.49-1.11-.57-1.69-.24-1.57-.39-3.14-.59-4.72-.07-.55-.1-1.05,.32-1.53,.23-.26,.24-.7,.36-1.06,.08-.26,.11-.57,.27-.76,.15-.18,.45-.29,.69-.3,.16,0,.43,.2,.48,.36,.13,.41,.19,.85,.23,1.28,.23,2.61,.6,5.2,1.36,7.88Z"/><path d="M295.7,22.53c1.18-1.27,2.26-2.43,3.33-3.6,.93-1.01,1.83-2.05,2.76-3.06,.45-.49,1-.85,1.69-.95,.41-.06,.78-.01,1.01,.36,.24,.38,.12,.74-.16,1.05-.88,.98-1.77,1.95-2.65,2.93-.59,.65-1.15,1.34-1.76,1.96-.69,.7-1.42,1.36-2.16,2.01-.24,.21-.54,.37-.84,.5-.51,.22-.99,0-1.17-.56-.08-.25-.04-.53-.05-.65Z"/><path d="M276.77,14.93c.07-.33,.09-.84,.28-1.28,.8-1.92,1.68-3.81,2.47-5.74,.3-.73,1.01-.92,1.6-.59,.53,.3,.75,.61,.6,1.2-.16,.64-.36,1.27-.61,1.87-.71,1.72-1.45,3.43-2.19,5.14-.13,.3-.26,.64-.49,.84-.22,.19-.6,.37-.85,.31-.26-.06-.54-.36-.67-.63-.13-.28-.08-.64-.13-1.13Z"/><path d="M354.29,134.37c-1.7,.24-3.01-.42-4.07-1.68-.92-1.09-1.85-2.17-2.76-3.26-.14-.17-.26-.36-.35-.55-.86-1.83,.23-2.98,1.82-3.16,.42-.05,.87,.09,1.28,.2,.47,.13,.94,.31,1.39,.51,2.12,.92,4.25,.95,6.41,.19,.84-.29,1.71-.41,2.59-.26,1,.17,1.49,.93,1.22,1.91-.33,1.16-.73,2.29-1.38,3.32-.44,.71-.99,1.3-1.77,1.66-1.4,.65-2.79,1.32-4.38,1.13Zm-2.75-5.88c-.36-.13-.71-.3-1.08-.41-.19-.05-.4,0-.69,.02,.1,.3,.14,.52,.24,.7,.33,.57,.69,1.12,1.05,1.67,1.09,1.72,2.67,2.17,4.57,1.76,.53-.12,1.04-.34,1.56-.53,.59-.21,1.04-.6,1.36-1.14,.28-.47,.57-.94,.82-1.43,.06-.12-.01-.3-.03-.53-.24,.01-.45,.01-.66,.04"/><path d="M356.54,122.18c-.09,.17-.13,.36-.25,.45-1.21,.93-2.62,1.37-4.11,1.49-1.03,.08-2.23-1.04-2.33-2.15-.05-.54-.01-1.1,.1-1.63,.34-1.55,.76-3.08,1.1-4.64,.21-.96,.35-1.94,.49-2.91,.1-.66,.46-1.07,1-1.07,.66,0,1.16,.46,1.11,1.15-.06,.87-.19,1.74-.37,2.6-.35,1.6-.77,3.19-1.15,4.79-.05,.21-.1,.43-.11,.65-.06,.7,.25,1.07,.94,.99,.7-.08,1.4-.24,2.09-.38,.66-.13,1.19,0,1.5,.65Z"/><path d="M356.36,102.64c.71-.42,1.25-.61,1.62-.99,.63-.63,1.39-.86,2.21-.95,1.97-.21,3.94-.14,5.88,.31,.16,.04,.32,.08,.47,.14,.54,.24,.87,.68,.81,1.12-.08,.59-.39,1.13-.95,1.22-1.34,.23-2.72,.51-4.06,.44-1.33-.08-2.62,.06-3.92,.13-.27,.01-.54,.13-.8,.13-.45,0-.93-.1-1.13-.53-.14-.31-.1-.71-.13-1.03Z"/><path d="M360.7,106.68c1.14-.09,2.1,.5,3.13,.83,.15,.05,.28,.18,.39,.29,.34,.34,.44,.88,.24,1.2-.24,.37-.62,.45-1.01,.39-.65-.1-1.3-.22-1.92-.4-.99-.3-1.93-.27-2.85,.24-.19,.1-.39,.2-.6,.24-.39,.09-.77,.02-1.06-.28-.33-.35-.38-.79-.22-1.22,.07-.18,.25-.39,.43-.45,1.13-.39,2.24-.87,3.48-.84Z"/><path d="M178.37,184.2c-.07,1.43-.14,2.85-.22,4.28-.01,.27,0,.56-.07,.82-.75,2.76-1.45,5.53-3.5,7.7-.83,.88-1.39,1.99-2.43,2.67-.23,.15-.43,.34-.66,.5-.52,.36-1.03,.32-1.52-.05-.22-.16-.43-.35-.63-.53-.58-.5-1.12-1.06-1.75-1.5-1.92-1.36-2.76-3.34-3.33-5.51-.79-3-.81-6.08-.95-9.15-.05-1.15,.13-2.3-.08-3.45-.11-.6,.14-.92,.75-1.09,.84-.24,1.69-.5,2.56-.61,3.33-.41,6.68-.44,10.02-.16,1.82,.15,1.83,.24,1.77,2.14-.03,.88,.05,1.76,.07,2.63,0,.44,0,.88,0,1.31h-.03Zm-13.06,.64c0,.57-.08,1.08,.01,1.55,.41,2.15,.85,4.3,1.32,6.44,.09,.42,.3,.82,.5,1.21,.81,1.54,2.1,2.63,3.5,3.61,.08,.06,.21,.04,.41,.07,3.78-3.62,5.66-7.97,4.96-13.32-1.41-.41-2.74-.64-4.11-.62-.6,0-1.21,.21-1.79,.13-1.68-.24-3.24,.03-4.8,.93Zm.3-2.75c.62,0,1.12,.06,1.6-.01,1.96-.28,3.94-.22,5.91-.26,.54-.01,1.1,.06,1.64,.15,1.17,.18,1.33,.06,1.29-1.16,0-.15-.12-.29-.22-.52-.46-.05-.94-.14-1.43-.14-1.65-.02-3.29-.07-4.94,0-1.14,.04-2.29,.21-3.42,.37-.59,.09-.76,.41-.66,1.09,.02,.15,.13,.3,.23,.5Z"/><path d="M174.25,96.06c.88,0,1.76,0,2.64,0,.51,0,.99,.12,1.39,.43,.51,.39,.5,.99,.01,1.41-.3,.26-.63,.43-1.04,.42-.44,0-.88,0-1.32,.06-1.14,.19-2.22,.5-3.25,1.08-1.39,.77-2.87,1.38-4.33,2-.55,.23-1.16,.36-1.75,.47-.55,.11-.96-.12-1.22-.63-.15-.29-.27-.6-.37-.91-.18-.57-.07-.99,.44-1.28,1.47-.84,2.79-1.95,4.43-2.53,.85-.3,1.66-.53,2.56-.49,.6,.03,1.21,0,1.81,0v-.04Z"/><path d="M178.12,103.59c.45,.1,.99,.18,1.5,.34,.53,.17,.74,.65,.6,1.18-.15,.54-.54,.84-1.09,.77-.64-.09-1.24-.27-1.93-.14-1.38,.26-2.63,.72-3.64,1.72-.19,.19-.43,.35-.66,.49-.38,.24-.93,.16-1.2-.15-.3-.35-.28-1.04,.04-1.36,.12-.11,.26-.2,.39-.3,.53-.39,1.08-.75,1.58-1.17,1.26-1.04,2.8-1.14,4.41-1.38Z"/></svg>